<svg xmlns="http://www.w3.org/2000/svg" width="2110" height="1100" viewBox="0 0 2110 1100">
  <path fill="none" stroke="#fff" stroke-width="2" opacity="0.3" d="M1029.94149,451.501l-9.02178-.3829c-.682-7.84921-1.041-11.76184-1.747-19.55124l8.37569-3.99639C1028.54158,437.14268,1029.03212,441.92879,1029.94149,451.501ZM751.91656,738.32045l13.59253,8.37569c-.56234,10.64911-.83759,15.98558-1.38794,26.67055-6.95182,9.82351-10.43368,14.69339-17.40945,24.33739.32308,11.19947.49054,16.81118.8256,28.04659-5.24079,10.79269-7.84921,16.15311-13.09,26.85006-16.04539,5.99461-24.122,8.95-40.05969,14.93263-1.26832,6.85608-1.90251,10.2782-3.15885,17.11032-10.84053,15.29165-21.52551,31.10969-33.83781,45.28865l-18.65389-1.5914c3.36224,7.17916,4.90573,10.76874,7.80138,17.9479-6.24583,4.22378-9.42864,6.3296-15.90181,10.52942l-18.13935-1.68707c-3.087,6.98775-4.75022,10.48159-8.16032,17.48124l-10.14656-2.69218c-1.00508,4.116-1.53156,6.186-2.58451,10.30207-.32305,2.30929-.49058,3.50582-.81363,5.89887-2.058,5.64757-3.111,8.41162-5.19292,14.02326l-12.46782,8.3039c3.81692,5.38437,5.8151,8.08853,9.79955,13.50876-8.33979,12.51569-12.45584,18.78548-19.635,31.26525a260.27334,260.27334,0,0,0,10.11066,24.08609s20.02985,11.78576,17.87611,12.09687-19.97,4.59469-19.97,4.59469c-7.10737-3.781-10.63714-5.67153-17.63679-9.44061.53845-3.27848.84952-4.92969,1.56745-8.22014-7.66975-5.69548-11.41488-8.54321-18.79743-14.21474,2.39305-3.27847,3.63745-4.91771,6.18606-8.22013-4.92968-6.86805-7.28684-10.2901-11.82169-17.11032-3.21866-12.97038-4.499-19.44356-6.80824-32.30622,5.516-3.68533,8.268-5.53993,13.784-9.24913,1.50764-9.3808,2.30929-14.04721,3.74514-23.35623-.61024-13.56864-.93329-20.317-2.53663-33.6583,6.74843-11.96527,9.76366-17.93592,14.35832-29.8294-1.22045-11.86953-2.83576-17.66075-5.09722-29.29095,2.082-6.79627,3.1349-10.20641,5.22882-17.07446-2.082-18.9769-3.099-28.4893-5.10916-47.47817-14.92069-10.01493-22.387-14.95659-37.34359-24.76812q-19.21621-28.09443-38.81533-55.9496c1.36406-7.05954,2.046-10.58924,3.39814-17.66075-1.35209-6.01857-2.03411-9.02179-3.38616-15.00442,9.27308-8.54322,13.87972-12.85069,23.04512-21.53748-3.19475-10.14652-4.77413-15.16-7.98085-25.12706-3.37422-1.98621-5.06132-2.96737-8.44748-4.92969-4.03229,2.46485-5.99461,3.74514-10.01492,6.13819-11.8815-6.66466-17.86414-9.95511-29.8294-16.44026-4.10408-4.23568-6.16211-6.34165-10.27816-10.50554-12.85069-4.14-19.288-6.186-32.30623-10.20641-5.36045-4.36735-8.05263-6.50911-13.44894-10.76874-8.02869.10768-12.12083.1316-20.13753.28715q-26.98167-11.45078-54.11892-22.51864c-.1316-5.44418-.25126-8.13637-.335-13.52074q-19.79057-27.12532-39.629-54.25052l-7.17916,1.735c10.31406,18.4624,15.37538,27.57993,25.12706,45.468l-7.07147,4.72629q-24.32538-34.34037-48.66274-68.66865c-5.68351-3.61349-8.53124-5.43224-14.20277-9.08163-1.35208-8.49535-2.058-12.7789-3.51779-21.33406-5.75529-5.44418-8.627-8.17226-14.35832-13.65237q7.80135-29.30294,15.55485-58.62981c-7.80136-10.17048-11.7858-15.24374-19.76663-25.24672,2.28537-3.39813,3.434-5.08524,5.75529-8.44748-4.31946-11.60632-6.50911-17.32572-10.97215-28.52519-6.1621-5.08524-9.27308-7.60989-15.55485-12.57551-1.83068-5.76727-2.752-8.615-4.60663-14.21474-6.40143-6.16211-9.644-9.17736-16.189-15.04035-5.9228-3.39813-8.92609-5.08524-14.90872-8.37569-10.18244-3.19472-15.30358-4.71432-25.58174-7.56206-7.81332,1.91445-11.66613,2.8956-19.288,4.94166-7.909-1.08884-11.85758-1.59138-19.74269-2.45288-2.96739,4.37929-4.42715,6.60483-7.29881,11.1277,0,0,13.84381,2.45289,10.86446,3.58958s-12.92249,8.86627-12.92249,8.86627c-4.90575-1.81872-7.3706-2.60842-12.30029-4.21178-9.58418,5.62367-14.23867,8.5432-23.32031,14.62154-10.90035,4.14-16.21293,6.29374-26.56289,11.07985,0,0-2.02213-3.27847-.43075-4.10408s17.9479-11.43879,17.9479-11.43879c2.24947.323,3.37421.49058,5.63564.84952,3.94854-3.781,5.9587-5.63563,10.0269-9.297,4.43911-4.05623,6.68858-6.05443,11.28325-9.96707-1.25636-2.29733-1.89052-3.42207-3.18277-5.64761-7.94493-.46665-11.90544-.63416-19.77858-.75382.39485-3.58958.43075-5.2049.77774-8.5432-5.25275-.64612-7.86118-.93329-13.06607-1.42387-.46665-2.64433-.694-3.93656-1.12474-6.49713-1.55548-2.39305-2.32126-3.58958-3.85281-5.98263,4.5468-3.087,6.85609-4.59466,11.6422-7.60991-.38289-1.55549-.57433-2.3811-.95722-3.94855,2.87166-.88543,4.30749-1.25635,7.17916-2.082,7.07147-.92133,10.673-1.35208,17.9479-2.11786,3.85282-4.16391,5.851-6.24587,10.003-10.46961-2.39305-.32306-3.58958-.46664-5.98263-.75381-3.30241,1.49565-4.92969,2.33322-8.14835,3.88871-8.17227.67005-12.18064,1.00508-20.13754,1.86658-1.28029-2.54861-1.92641-3.80495-3.19473-6.3057-1.376-1.14868-2.07-1.711-3.446-2.83577,11.96527-4.52287,18.19918-6.74841,31.1097-11.22342,1.376,1.95034,2.07,2.91952,3.434,4.89379,5.67154-1.65122,8.5432-2.46485,14.35832-4.10408-3.58958-2.64433-5.43223-3.93657-9.02181-6.44928-2.22554-5.08524-3.33831-7.60991-5.57582-12.70711L55.921,197.43052c5.45616-1.1367,8.268-1.69907,13.83185-2.78791C80.713,188.7198,86.37257,185.6567,97.97888,179.339c14.74121-4.57074,22.25539-6.85609,37.35556-11.41486,10.29013,3.58958,15.32751,5.45616,25.22279,9.57222,19.74269,2.91952,29.42259,4.7861,48.11235,9.04573,7.74153,1.029,11.57041,1.57943,19.14442,2.776,1.93837,2.84774,2.88364,4.28356,4.78611,7.17916,6.8202-2.12982,10.23031-3.21866,17.01461-5.39633,2.02214,1.51959,3.02721,2.33322,5.03739,3.91264,8.974-2.18964,13.3652-3.3024,22.13574-5.53992,8.268-.335,12.36013-.49058,20.40079-.78971,0,0-3.15883,10.25422-.93329,10.01492s21.98019-1.364,21.98019-1.364c10.46961,6.01853,15.69842,8.85429,26.02445,14.70531l9.83546,9.79955c9.36878.5145,13.99937.78972,23.17671,1.34011,1.78282-2.30929,2.66827-3.41011,4.41519-5.80316-8.57911-.6222-12.89856-.93329-21.63319-1.53156l-8.37568-9.51238-9.644-7.239c4.3434-3.12294,6.49713-4.67843,10.76874-7.78938l-8.20815-8.02871c4.02031-3.31438,6.00655-4.96557,9.93115-8.268-.45468-3.38617-.694-5.07328-1.19652-8.45945-6.13819,3.19472-9.24917,4.77415-15.55485,7.98083-5.157-1.23242-7.75351-1.86658-12.99426-3.06311.40681-3.29045.59826-4.92968,1.00508-8.22013,7.909-7.34667,11.77381-11.008,19.32389-18.31882,2.22553-4.19981,3.32635-6.29374,5.504-10.49355,12.30029,2.28537,18.28292,3.4819,30.24819,5.875,1.053,6.59287,1.59136,9.88332,2.68021,16.44029,5.06132,3.91265,7.598,5.863,12.68319,9.76366l10.52942.87346c2.72808-3.769,4.08016-5.64761,6.73645-9.4047,4.54679-2.8597,6.79626-4.3075,11.2354-7.17916l10.76874,5.2049c-6.62876,10.82857-10.08671,16.27277-17.26587,27.17311,3.41011,7.28684,5.12114,10.97215,8.54322,18.15131-9.53632,7.31078-14.41813,10.98412-24.3972,18.30686l8.69874,6.84413,17.27785-2.59646c-.09571-4.00837-.15556-5.99459-.28716-9.991,7.75351-4.75021,11.58237-7.0595,19.14443-11.84561,1.17261-5.4442,1.74692-8.16032,2.83576-13.6045-6.18605-7.55008-9.27308-11.34307-15.36339-18.97692,1.26831-2.07,1.89049-3.099,3.14687-5.169l5.98263,1.97426c1.79479-5.32454,2.68021-7.99279,4.40321-13.31735l14.60958-2.15375s-1.41189,18.77351.75382,16.40439,15.92577-13.449,15.92577-13.449c4.84592,2.01016,7.28684,3.01526,12.19261,5.01345-7.37061,6.09032-11.11575,9.1654-18.74959,15.33947-.75382,9.4047-1.17261,14.119-2.17769,23.55961,2.01016,6.74841,2.99132,10.12262,4.90577,16.883l8.615.57433c-1.16063,5.21686-1.77087,7.82528-3.05112,13.06607,8.72269-7.38257,12.97034-11.05591,21.346-18.39061,0,0-21.14265-6.00657-19.04872-9.42864s.9931-18.09147.9931-18.09147c9.42863-9.57222,13.97542-14.35832,22.91348-23.7032,6.15016,1.67513,9.24916,2.45289,15.48306,4.06819,11.80971,1.22046,17.69664,1.78283,29.75761,2.97936,2.30929,7.27488,3.434,10.91231,5.59974,18.22309,12.2285,8.49535,18.4265,12.71909,30.655,21.38193-3.92461,6.61679-5.93477,9.94313-10.08672,16.64369,12.56353,7.07148,18.86922,10.57729,31.13362,18.04363-6.82022,6.68858-10.1944,10.0269-16.85906,16.69154l-10.76874-.08376c3.33832,7.01164,5.04934,10.55335,8.55516,17.66072-3.15885,3.21866-4.7263,4.81-7.84922,8.00477L574.6871,285.782c-10.43372-4.25963-15.66253-6.35355-25.98856-10.45765-1.83069-4.487-2.71611-6.71252-4.475-11.15162,0,0-19.69482,3.06311-19.99395-.16751a49.872,49.872,0,0,0-1.2803-6.92788l17.61277-4.00834c5.98263-8.90216,8.99787-13.35324,14.62148-22.15975L535.393,232.56047c-.52647-2.29733-.80169-3.446-1.35208-5.7194,1.99822-3.00327,2.99132-4.51091,4.94166-7.50222-1.78281-4.90577-2.70416-7.34668-4.58268-12.21655-7.9569,9.17736-12.049,13.796-20.49651,23.069.80169,2.46485,1.22045,3.69727,1.99822,6.17409-7.04756,6.557-10.63714,9.84741-17.8163,16.39241,4.4391,6.12621,6.70055,9.22523,11.28323,15.47108l-6.32963,3.36224c-5.2049-1.42387-7.80134-2.12982-12.99426-3.51779l-10.17048,5.33651c-2.81185-4.21178-4.19982-6.3057-6.95182-10.46961-9.02182,3.93657-13.53271,5.89887-22.61435,9.81152-.05981,2.33322-.1316,3.446-.1316,5.83906-12.2285,10.17047-18.34274,15.24375-30.63109,25.3544,3.49387,8.85429,5.28866,13.32933,8.95,22.35111,14.65746,7.07148,21.95628,10.57729,36.57783,17.84022a114.01235,114.01235,0,0,0,11.61827.74184c2.68021-.20343.57435,21.76482.57435,21.76482,3.02721,3.80495,4.54678,5.7194,7.586,9.57222l8.73463-9.08163c-.19145-8.11245-.26324-12.15672-.39484-20.20936,6.26979-3.17079,9.39275-4.76219,15.63862-7.95689.58628-5.2049.87347-7.80135,1.48368-12.99427l-8.80642-10.38584c3.4819-4.06818,5.21684-6.11423,8.71071-10.18244,1.25634-8.974,1.92639-13.437,3.33832-22.33915,9.38077.40682,14.07117.6222,23.47585,1.07687,6.77235,5.56384,10.19439,8.37569,17.0864,14.05919.62218,6.904.94527,10.36192,1.65121,17.31374l5.98264,4.04427c7.49027-7.83724,11.24734-11.76184,18.84529-19.635,5.32456,11.79773,8.08854,17.78037,13.70025,29.74564-.11966,4.60663-.17947,6.90394-.27522,11.52255,12.01314,7.4783,18.07951,11.2713,30.29607,18.953.83758,10.23029,1.28029,15.35143,2.16571,25.64156,5.77925,3.458,8.6868,5.19292,14.5019,8.69874,1.43585,5.36045,2.15373,8.04066,3.58958,13.425-15.69843-1.44779-23.46387-2.14179-38.935-3.46992l-1.13672-11.0559,7.81332-6.26978c-.83758-3.46992-1.25634-5.19293-2.1059-8.65091-9.81153,3.33832-14.69334,5.02543-24.43309,8.37569.45469,2.99132.706,4.487,1.19653,7.49027l-15.25572,10.1585c4.73824,4.15195,7.07148,6.2339,11.85759,10.42174l13.64039-3.58958c1.26832,2.752,1.90248,4.128,3.15885,6.88-13.23358,7.17916-19.85037,10.76874-33.01217,17.9479l-8.37568-5.98264-16.32065,7.78941c-1.8546,5.42026-2.78789,8.12442-4.66644,13.54469-13.58059,11.96526-20.40077,17.9479-34.25657,29.75761.22734,3.66137.347,5.49205.56237,9.15342-13.97542,11.07985-21.09477,16.6078-35.5129,27.37654,3.21866,13.46093,4.75021,20.19738,7.574,33.63439l-7.25095,3.48189c-5.28866-7.31076-7.98085-10.96019-13.425-18.22311-.8256-2.66827-1.2444-3.9964-2.08194-6.66466-11.84561-1.91445-17.82824-2.87166-29.79351-4.78611-5.851,2.82378-8.80642,4.21176-14.72924,6.99969-10.30208-1.08885-15.495-1.62726-25.96465-2.69219-8.75858,6.533-13.28145,9.73975-22.14772,16.10524,2.79987,13.68827,4.05625,20.42472,6.4493,34.02923,6.93984,4.23571,10.4098,6.40142,17.27785,10.76874l19.14443-1.54353c2.5845-4.14,3.86479-6.21,6.42534-10.35,8.42356-.8974,12.55155-1.34011,20.92724-2.26146-3.42205,12.09687-5.09722,18.18723-8.6868,30.43965,12.68319,1.041,18.965,1.56744,31.46864,2.62039.32305,11.12769.46666,16.75138.75382,28.05857,5.98263,3.8289,8.95,5.75529,14.93267,9.644,3.446-2.70416,5.169-4.05617,8.591-6.77231,0,0,13.9874,6.198,15.97364,5.07327s34.36432-18.6777,34.36432-18.6777c6.60482,2.24948,9.90724,3.38619,16.50012,5.67153,14.4301,2.68021,21.64516,4.04426,36.06329,6.83219,15.69843,11.77386,23.54764,17.75649,39.31785,29.91317l11.40294-2.03411c12.58748,7.63385,18.90511,11.48663,31.60024,19.312,4.86987,9.71579,7.31076,14.58566,12.20458,24.3972l20.12559,3.58958,9.44062,8.75858c12.53957,1.45973,18.89313,2.2375,31.46863,3.58958C742.77508,731.36863,745.83818,733.6899,751.91656,738.32045Zm-252.76627-162.285c3.12291,2.81184,4.75021,4.23571,7.909,7.08345l-8.91414,1.19653c-14.478-4.78611-21.74091-7.17916-36.42228-11.66614l-11.16357.05981-3.32635-4.00833c4.59466-1.4,6.88-2.1059,11.4388-3.52977,7.38258.98116,11.05589,1.48368,18.37863,2.48876C485.92864,570.93831,490.30794,572.58952,499.15029,576.03549Zm35.54879,10.673c5.30061,2.20161,7.945,3.31437,13.24556,5.53993.39484,1.6871.59827,2.52465.99311,4.21176l-16.04543,3.41011c-7.0595-.8974-10.58927-1.26832-17.66075-2.09393l-4.58268-4.37929,11.22343.27522.65807-6.32964Zm-147.783-469.84015-12.62335-11.355c12.91054-7.70563,19.14443-11.47469,31.1097-18.91708,5.07326.29913,7.598.46664,12.6114.80167-2.95542,6.40142-4.4391,9.57221-7.47829,15.97363,3.67334,7.71759,5.53992,11.58238,9.35685,19.25211l5.7792-.37092c1.23243-6.15015,1.85461-9.23719,3.05113-15.3993l7.17916.335c.64614,4.19982.96919,6.29374,1.62726,10.48158l8.50722,2.63236c-4.33142,5.24078-6.533,7.87314-11.02,13.16179l-13.31735-.13162-14.5378,4.69038-9.967-1.28028c1.30421-2.45288,1.95035-3.74512,3.23064-6.13818-5.31258-2.65629-7.96887-3.99639-13.29339-6.64073,4.00837-2.57253,5.98263-3.85281,9.88332-6.41338l-3.12288-3.46992Zm40.17935-22.48274c-1.053-3.52975-1.57943-5.25275-2.59648-8.84233.75382-1.28028,1.17261-1.90247,1.95034-3.1708l6.91593,1.95034,2.84774-2.17768c.26323-2.71611.40681-4.08016.682-6.80824l13.81991-1.93837c1.45976,2.33323,2.20161,3.434,3.69726,5.82709l-2.17768,6.92789-11.702,4.67842c-1.77088,3.07508-2.66827,4.6186-4.46306,7.69367Zm25.21082,19.71877c2.53664,2.47681,3.81693,3.70923,6.37748,6.17408,1.66319-2.26144,2.47682-3.39813,4.116-5.65958,5.74331.94526,8.627,1.43583,14.41813,2.39306-.89739,4.67842-1.3401,7.01164-2.26145,11.6781,4.66645,2.83577,6.97574,4.24767,11.76184,7.05951-1.26831,3.29045-1.91445,4.94165-3.21866,8.24407l-8.77052-.61023-2.57253-5.46813-14.57368.706c-3.73316-6.72449-5.56385-10.09869-9.15343-16.883C449.997,118.67512,450.82255,117.14357,452.30623,114.1044Zm11.67812-29.30295,6.28176-3.74513c-.93329-3.62547-1.30421-5.49205-2.12981-9.08163l6.1621-2.16572c1.711,2.60843,2.57253,3.91264,4.31945,6.50911,2.74,1.6512,4.128,2.47681,6.90394,4.11605-2.1178,7.32274-3.15881,10.91232-5.25273,18.09148l-4.97756-.3111c-1.017-3.26652-1.51957-4.8938-2.50073-8.17228C469.23712,87.96028,467.47822,86.90734,463.98435,84.80145Zm25.06725,17.6368c-1.20851-.40681-2.33324-16.5001-2.33324-16.5001l7.08345-4.16391c2.84774,4.95362,4.29553,7.41846,7.27487,12.31226-1.029,4.65449-1.54353,6.97575-2.58451,11.61827Zm353.10684,82.94323a371.41908,371.41908,0,0,0-28.92,24.816c-11.34305,2.2016-17.36162,3.60153-29.614,6.62875-9.15346,8.33979-13.83184,12.64729-23.09295,21.31013-7.4065.78972-11.13966,1.20849-18.57012,2.07,1.17257,1.86658,1.723,2.83576,2.91953,4.78611-9.84739,7.28684-14.72924,10.99608-24.30146,18.17524-9.47647,15.65057-13.9874,23.45193-22.43487,38.7555-5.12117-.02393-7.6578-.04785-12.63532-.14358-9.24913-3.90067-13.72413-5.94674-22.41092-10.07475-4.28359-10.87642-6.35356-16.23686-10.35-27.0056l-6.50911-5.45616c-1.699-10.7448-2.47682-16.08132-3.84087-26.71844,4.22377-6.32962,6.26978-9.45256,10.26622-15.67451-3.41008-3.51779-5.145-5.25275-8.65087-8.68678,2.75207-4.71431,4.10415-7.0595,6.76041-11.73792,4.89382.2393,7.26292.39486,12.19261.61022.23932-3.26651.347-4.89379.55042-8.12441-6.67663-1.05295-9.79955-1.66317-16.34452-2.752.84956-7.62187,1.18455-11.379,1.747-18.86923-7.07144-13.20965-10.87646-19.65894-18.40259-32.62929-14.47794.347-21.51356.47861-35.28556.694-3.38616-5.39633-5.07326-8.10048-8.4355-13.52075l6.545-6.16212c-3.97248-2.45288-5.94674-3.6853-9.84743-6.17407.16754-3.98444.26324-5.95871.45469-9.96707,13.73614-5.19292,20.77169-7.84921,35.50093-13.38914-.5145-8.86626-.71789-13.35323-.86147-22.51863-14.89677,10.03887-21.76486,14.78908-35.23772,24.134-4.41519,7.17916-6.557,10.76874-10.79266,17.68467-6.35356,3.30241-9.48845,4.92969-15.73432,8.1962.335,4.53484.5145,6.80824.84952,11.31914l-7.0595,6.97576c-6.82021-2.39306-10.1585-3.58958-16.75137-5.98264-8.53124-.15554-12.73106-.2393-21.10675-.43075l-4.14,6.17409c14.90871,3.46992,22.49468,5.169,38.04953,8.45944-3.25455,4.70235-4.88181,7.04754-8.19621,11.76186,0,0-29.67385-2.48878-30.58322-2.393s-17.242-6.78431-17.242-6.78431c1.87856-6.06639,2.78789-9.10557,4.58268-15.16-4.42716-4.37929-6.60481-6.5809-10.91231-11.008,1.39995-2.66826,2.10589-4.00837,3.48189-6.67662,8.44748,3.19472,12.71909,4.77414,21.39391,7.88511l12.49174-6.48517c.67-5.00148.9931-7.50222,1.67513-12.51567-6.05442-.67005-9.02182-1.00508-15.00446-1.711-1.029-4.97756-1.53155-7.4783-2.48876-12.5037l4.73824-2.84773c-2.082-3.54172-3.111-5.30062-5.12113-8.8902,6.66466-11.59436,9.95511-17.43342,17.13427-29.45851l5.851,2.15375c.3829,5.48009.63416,8.19621,1.19653,13.59254,2.1059,1.20849,3.15885,1.80676,5.28866,3.00328l3.03919-3.02721c-1.041-5.9946-1.53155-9.02181-2.393-15.148,10.14656-6.28176,15.3275-9.48845,26.20392-16.177,3.21866.52647,4.77413.78971,8.00477,1.29225,1.59137-2.70415,2.405-4.08015,4.06819-6.83217,12.00116-3.18276,18.19916-4.86986,31.22935-8.45944.682,1.67514,1.029,2.51271,1.735,4.17588,6.82018-.0718,10.2423-.11966,18.618-.47861,10.39782,2.393,16.39243,3.446,29.00379,5.44419,6.46128,6.36552,9.8474,9.46453,16.69157,15.55485,14.65745-1.35207,22.4229-2.09392,37.97774-3.46993-.58628,4.78611-.86146,7.17917-1.376,11.96527l14.526-2.11785c1.4717-5.0972,2.22552-7.66974,3.793-12.86266,9.41666,4.88183,14.07116,7.31078,22.99721,12.21653,5.57578-7.35864,8.36371-11.06787,13.95147-18.5342l-4.128-6.04246c13.55667-2.95542,20.12559-4.28356,31.89937-6.67662C799.311,9.169,803.30747,7.36224,810.30712,4c15.32751,2.29733,22.60241,3.50582,37.82227,6.198-.3829,2.5486-.57431,3.81692-.95721,6.34159,8.591,4.21177,12.89859,6.32963,21.53748,10.61319l1.67517,5.61171c-9.27308,1.6871-13.89166,2.53664-23.10493,4.28357-2.69218,3.50582-4.05624,5.24079-6.7604,8.69875,4.9177.20341,7.38254.32306,12.32421.57433l4.94166-4.78611,5.4322.75382c.88542,3.81691,1.25634,5.74332,2.082,9.57221l18.15129-6.72448c7.37057,3.00328,11.06787,4.52287,18.4624,7.59794-10.63714,9.26112-15.98558,13.784-26.65865,22.734-6.26979,13.72416-9.45259,20.43668-15.75824,33.82581l6.68862,3.81693-1.19653,5.77922c-5.58776.08376-8.39957.13162-13.96345.27521,5.45616,7.72956,8.19618,11.63024,13.73611,19.53928-4.29557,6.533-6.43725,9.79956-10.661,16.40438-3.08705.56237-4.63055.84954-7.69365,1.43583-3.781,4.40321-5.64757,6.62875-9.35685,11.11573C839.05955,174.66061,840.07664,178.19037,842.15844,185.38148Zm185.39,242.189-8.37569,3.99639c.706,7.7894,1.06493,11.702,1.747,19.55124l9.02178.3829C1029.03212,441.92879,1028.54158,437.14268,1027.54844,427.57047Zm-8.37569,3.99639c.706,7.7894,1.06493,11.702,1.747,19.55124l9.02178.3829c-.90937-9.57221-1.39991-14.35832-2.393-23.93053ZM2107.04283,241.61824l-10.1585.38283-22.2672-8.78251-10.67322,1.11276-10.34984-6.76036-9.02186,2.393c6.12621,5.9587,9.2132,8.91412,15.35153,14.78907l-12.38416,10.13458c9.90727,8.67482,14.87289,12.97035,24.7083,21.45374,0,0-3.91252,5.91084-4.64253,7.26292s-12.30033-4.23569-12.30033-4.23569-35.01038,22.80579-36.58973,25.92873-17.45729-5.98263-17.45729-5.98263c-13.772,1.95034-20.64008,2.95542-34.19682,5.04934-1.005,6.7125-1.47171,10.06279-2.39306,16.75137,6.04252,7.65777,9.11768,11.45077,15.30363,19.02477-9.8953,16.5719-14.72932,24.8758-24.06214,41.62718-4.95364,1.8546-7.43053,2.78789-12.33611,4.67842-8.69878-17.55306-16.91906-35.489-24.45709-53.56849q19.58122-23.20662,39.65292-46.04234c-10.07481.07179-15.0524.13162-24.85189.28717-2.393-2.64433-3.58958-3.9605-5.98263-6.60483-5.53992-1.14868-8.37569-1.711-14.35832-2.78791-6.2099,7.19112-9.28506,10.86446-15.39929,18.04362,3.13489,3.86478,4.66648,5.80317,7.58593,9.66794-8.62691-.37092-13.12586-.50254-22.29115-.71792-10.17048-3.00328-15.48313-4.463-26.32359-7.32274-19.24024.65809-29.11159,1.1367-48.06467,2.27339-15.27953,14.44209-22.45869,21.76483-35.89581,36.6616l8.37569,9.11753c20.11369,2.64431,30.715,4.02031,51.056,7.03558a444.27945,444.27945,0,0,1,25.12706,40.56225c-3.817.20343-5.73141.29913-9.57222.52648,4.24759,9.71579,6.24584,14.57368,10.03873,24.26556-8.66284-.52648-13.12586-.75382-22.13574-1.13672-.47849-14.813-.74184-22.19555-1.48368-36.96065-4.61858-2.776-6.93992-4.15195-11.726-6.91593,1.92653,7.933,2.83591,11.94135,4.55883,19.89825-4.475,9.34487-6.66473,14.03527-10.93627,23.51174-8.54322,7.0954-12.73106,10.70893-20.90328,18.03167-3.12292,2.97934-4.67847,4.475-7.72967,7.49027-9.15331.19145-13.70017.31111-22.62621.58628-2.07,4.70235-3.08713,7.0954-5.09722,11.88151-4.43907,3.757-6.61683,5.6476-10.91232,9.46453,3.78107,4.499,5.67153,6.76037,9.42864,11.27129,1.43577,7.69366,2.12985,11.55846,3.51772,19.312-8.98593,1.85461-13.401,2.82379-22.02795,4.78611.99306-7.95689,1.51961-11.90545,2.56044-19.77858-5.3724-.90938-7.99272-1.376-13.1618-2.2734-2.1059-5.70742-3.17068-8.54322-5.27658-14.22672-6.58089,1.376-9.88332,2.082-16.15311,3.50582-1.86665-4.06819-2.788-6.1023-4.61872-10.17048-6.26979,4.84592-9.30887,7.239-15.67432,12.02508l5.98263,5.98263,20.79549,1.30417,4.04442,5.08524c-8.28017,4.57074-12.27638,6.892-20.006,11.59435,5.70745,7.55008,8.62706,11.33111,14.60969,18.90511,2.046,8.45945,3.075,12.70711,5.133,21.25032-6.17412,11.51059-9.16544,17.34964-15.04028,29.20723-7.20311,5.24079-10.73281,7.8851-17.75656,13.24556-12.71894,3.49387-19.06059,5.22881-31.40883,8.92608-2.70416,6.80824-4.04412,10.26618-6.43717,17.25393l-8.83052-2.1418c.80173-5.42026,1.23246-8.12442,2.17776-13.4729l-11.69009-1.4c-3.37428,5.27669-5.02535,7.945-8.23211,13.34127,7.59792,8.32781,11.46268,12.45584,19.37185,20.83149.44256,10.52942.7896,15.818,1.63909,26.58679-5.10905,3.123-7.64568,4.71432-12.695,7.9091-4.91785,4.33149-7.31091,6.52109-12.097,10.93627-.98109-2.84774-1.44775-4.29556-2.39306-7.17916-9.34479-6.96379-13.95139-10.45763-23.06907-17.45736-1.77083,5.73134-2.6323,8.615-4.33127,14.41814,2.93143,6.78428,4.42709,10.19443,7.49027,17.01457,5.82693,5.06129,8.72258,7.59792,14.70521,12.6473,3.42205,16.7873,5.31266,25.24668,9.321,42.24935,4.78611,3.48186,7.17916,5.21692,11.96527,8.6868,0,0-1.412,14.466-1.30417,15.9617s12.25242,2.60842,12.25242,2.60842c2.18959,3.3144,3.29045,4.97752,5.504,8.27994,0,0,14.72917-3.47,17.63679-3.58958s15.47116,9.2013,15.47116,9.2013c-.93333,2.60842-1.388,3.91266-2.30936,6.53306-20.36491-4.14-30.48748-6.35356-50.56523-10.91232l-.95714-6.48515c-5.31265-1.4119-7.969-2.12986-13.25761-3.58958-5.839-5.87492-8.69877-8.8184-14.35832-14.71727-6.76026-12.09687-10.06268-18.15129-16.46422-30.22428-7.574-7.08341-11.31909-10.62516-18.72552-17.72055-.08384-3.14687-.08384-4.76216-.08384-7.933,0,0,23.03314,9.23715,24.92374,9.71579,1.89032.47864,4.52276,10.35,4.52276,10.35l9.41666.39487c-2.66823-6.10226-3.98453-9.14148-6.55694-15.23176-6.93991-8.20816-10.35-12.32421-17.06248-20.53237,1.08873-9.18932,1.72292-13.76006,2.91945-22.8058-4.94151-11.41483-7.34654-17.09834-11.96527-28.38158-3.60155,2.03411-5.38437,3.05121-8.974,5.12117l-7.17916-4.86987c.49062-2.90755.754-4.33142,1.26839-7.17916-6.34165-12.049-9.20122-18.16327-15.447-29.99693-6.06648-.694-9.1057-1.029-15.208-1.69909-14.99251,12.97035-22.67427,19.80251-37.72652,33.64633-4.84585,16.93085-7.15521,25.53388-11.68994,42.97926-7.22707,6.09035-10.86456,9.17734-18.1873,15.39929-9.5005-23.20067-18.88123-46.4372-28.45344-69.61392.49062-6.09031.74184-9.17737,1.26824-15.16l-17.69653,1.67513c-10.06283-10.99608-15.38731-16.45224-25.68939-27.30475-10.82863-.29913-16.23681-.52647-27.00555-1.08884-18.48642-4.61858-36.901-9.69187-55.19593-15.04035-10.11059-8.80642-15.1599-13.19769-25.29444-21.96825l-5.44426,5.28866c8.65087,13.65238,12.97031,20.54442,21.64513,34.48391,6.74843,1.376,10.12272,2.046,16.883,3.36224,3.05121-3.74513,4.5828-5.61171,7.66978-9.33289,4.12811,4.4391,6.1861,6.66466,10.338,11.10376,4.92968.77774,7.39445,1.16064,12.33626,1.8905l7.35852,9.48845c-4.97744,8.33979-7.3705,12.53961-12.1566,20.98709-11.96527,5.43224-17.93593,8.10047-29.80552,13.37716-3.434,4.487-5.14513,6.72447-8.5552,11.2354-19.43158,5.28863-29.07566,7.81336-48.30378,12.81483-4.22377-10.03888-6.32953-15.02837-10.56528-24.94759-9.65605-12.767-14.49-19.12051-24.19373-31.63617-1.87856-6.91592-2.81181-10.326-4.70234-17.11032-8.25607-13.53271-12.396-20.17346-20.71188-33.33525l-9.36882,4.06818c3.76908,6.74843,5.63566,10.13458,9.3808,16.9907l8.53124,2.59647c-1.51961,3.92461-2.28533,5.93477-3.793,9.90724q12.25845,24.31944,23.93053,48.914c10.9362,10.685,16.39244,16.08129,27.29278,26.85,1.72307,4.33142,2.58454,6.47318,4.30746,10.76874,16.50015-2.75207,24.78-4.16389,41.4239-7.17916,2.29724,3.434,3.49376,5.14505,5.88682,8.5671-6.7125,14.77708-10.07466,22.24346-16.75138,37.30769q-31.15774,30.49347-61.69291,61.59718c-.6342,14.52578-.94523,21.82463-1.5435,36.43425l6.3177,9.70382c-1.18455,13.70024-1.735,20.56829-2.9315,34.28052l-34.23262,25.12706c.96919,5.52794,1.43585,8.29192,2.39306,13.80789-.43074,6.29374-.6461,9.44054-1.07691,15.71033l-15.17195,13.56864v12.93445c-12.94642,14.62153-26.01248,29.14738-39.00674,43.733,0,0-19.69486-1.029-21.14261-1.19652s-14.35832,5.81517-14.35832,5.81517c-4.43914-2.96736-6.66466-4.451-11.1157-7.35867-2.45287-13.46092-3.73316-19.76664-6.23393-32.92844l-10.91261-18.10345c-2.33325-13.70018-3.434-20.60416-5.82708-34.53175-6.17405-13.078-9.297-19.647-15.55485-32.74893,1.38794-9.47647,2.11787-14.19079,3.58958-23.763,3.85278-7.68168,5.79122-11.53454,9.67993-19.24017-2.70416-15.88991-4.05624-23.83479-6.77231-39.629-8.63889-12.2644-13.03012-18.34278-21.80068-30.308,1.47171-12.5276,2.22552-18.74956,3.72118-31.1097-4.487-4.94166-6.73645-7.39453-11.24738-12.25242l-12.14477,2.68021c-4.53481-5.88689-6.82022-8.80642-11.391-14.58567-7.52613.52648-11.29522.80166-18.8453,1.376-6.47318,3.25452-9.71579,4.88185-16.17706,8.16032-6.97578-.88542-10.45764-1.31615-17.44538-2.15373l-22.37507,6.80824c-11.27126-6.47318-16.93088-9.656-28.28591-15.94973-1.2085-5.63566-1.84262-8.43549-3.03915-14.01135-7.21509-5.5519-10.82855-8.29192-18.09148-13.74808l-9.309.87344q1.7948-27.62173,3.84088-55.2197c-1.9743-2.764-2.95539-4.14-4.92969-6.88,9.32092-16.24882,13.92759-24.4929,23.10493-40.82549,7.55008-5.57582,11.34305-8.35177,18.92906-13.86774,1.1606-7.47829,1.68707-11.19947,2.8836-18.65384,7.62187-5.07327,11.45077-7.598,19.14443-12.56354,1.51961-4.18784,2.28533-6.28176,3.8289-10.44569l-7.17916-4.94166-15.78219-4.22374c1.13671-19.3,1.66319-28.89611,2.752-47.92088,16.84712.0359,25.30657.1316,42.15362.347,1.60337-3.8648,2.39305-5.77921,3.99643-9.57222-4.18785-5.851-6.29374-8.77052-10.5414-14.64547l-10.60121-1.96232c.17951-5.25277.27518-7.89709.45469-13.1618l-9.08167-3.36224c2.99131-2.32126,4.49895-3.46992,7.50224-5.75529.33507-6.70055.50252-10.03887.83759-16.69156,4.53481-3.63745,6.82021-5.40829,11.391-8.99787l-8.77056-6.17408c-4.3434,3.5776-6.50911,5.44418-10.82855,9.03376-.50252,3.93659-.74184,5.93476-1.19653,9.91922-5.45616,2.74006-8.18427,4.14-13.6045,6.96372-6.13819-1.77087-9.21327-2.65629-15.36344-4.40321,1.053-4.40321,1.57943-6.60481,2.64436-10.98411-.22735-3.48189-.33507-5.22881-.56234-8.71071,8.19618-5.63563,12.27638-8.3996,20.65207-13.80793-1.029-6.1621-1.5435-9.23719-2.57257-15.37537,6.9638-2.16571,10.45764-3.21866,17.46927-5.30061l11.90545,9.95511c.49054,5.32456.72986,7.99279,1.19653,13.34127L970.151,343.87337c-.75381,3.099-1.17257,4.72629-1.95034,7.88511l8.51927,2.53663c-.5145,4.58268-.7658,6.868-1.26832,11.47468l11.0559-3.19474c3.64939-4.29553,5.49208-6.42534,9.16536-10.685l18.80936-6.35356c-.37092-7.11935-.55043-10.673-.92135-17.75645l11.0559-7.7894,7.32274,6.64071c-.83759,3.0631-1.26832,4.60663-2.1059,7.68172,3.54174.25126,5.25277.38289,8.84235.61024,1.29227-2.20161,1.95034-3.30243,3.24261-5.516-4.91771-7.63385-7.4065-11.46271-12.43193-19.14443-8.89018,3.14687-13.36518,4.67842-22.31525,7.74153l-11.49861-7.45438c-2.28533-10.673-3.48186-15.99755-5.87491-26.64665,14.6335-10.7807,22.01612-16.06937,36.64962-26.98168,6.904-9.54828,10.37387-14.32243,17.2539-24.00233-.92135-5.4442-1.39992-8.14834-2.39306-13.65237,17.34979-8.26793,34.10116-17.57691,51.24741-26.13207,13.13784,1.47172,19.76664,2.29733,33.084,4.09212,1.56745,2.78791,2.38108,4.18784,3.9605,6.97575,10.78072,2.26144,16.24886,3.458,27.0176,5.851,0,0,30.9063,14.19081,34.32835,15.69842s6.93984,14.99248,6.93984,14.99248l8.19618-2.81184c-.32308-8.22014-.50252-12.33619-.87344-20.5683h11.66614c3.91266,6.46124,5.851,9.6799,9.69205,16.14115,10.51737-5.81512,15.7941-8.69875,26.39531-14.44209,17.32568-1.22046,25.98852-1.78283,43.20656-2.89559-4.846-3.37421-7.28695-5.0613-12.18056-8.44747v-8.17228q26.90388,7.43043,53.73591,15.04035c-5.74339-7.40651-8.65087-11.12771-14.53768-18.606,2.6802-10.91232,4.02016-16.41635,6.65261-27.52011l13.26944.45468c9.48837,18.271,14.05919,27.28082,22.93747,45.03727,3.23056,11.11572,4.80991,16.6078,7.88507,27.52011,1.54357-10.673,2.29724-16.02143,3.76909-26.79017-7.27483-12.10885-10.99616-18.23508-18.6059-30.60716,6.78421-5.21686,10.17047-7.82528,16.8948-13.078,9.14148,3.90067,13.65241,5.83906,22.55465,9.66794l5.74324-2.89559c-6.74843-7.94488-10.17048-11.96527-17.14618-20.06576,10.984-3.25455,16.42829-4.89379,27.12517-8.18424l-13.05415-8.90221c13.73611-11.69006,20.47256-17.58894,33.50275-29.55421,5.0014,1.6512,7.39445,2.32126,12.25242,3.85282,3.745-3.9964,5.59967-5.98264,9.28506-9.979-.25122-10.01494-.40692-15.08821-.78975-25.34244l11.17552-.21538c3.0512,4.05623,4.57082,6.04247,7.57411,10.03886l11.60625,6.25784,12.9465-5.34847,23.65536,20.664c-6.38956,13.83185-9.65605,20.68795-16.28486,34.30442,4.17587,1.42387,6.24584,2.14178,10.38577,3.58958,3.26664-4.52287,4.846-6.79635,8.05275-11.33111,14.14288-1.1367,21.14268-1.67514,35.2378-2.6204,5.89879,3.61351,8.8422,5.42027,14.753,9.00985,3.805-2.27341,5.73141-3.39813,9.57221-5.64761.26335-3.55369.383-5.31258.63419-8.90216,10.68505,2.57253,16.05744,3.87674,26.94581,6.533l4.78611,15.77023c9.333,5.07328,13.9993,7.60991,23.57151,12.7071-.4186-4.35535-.634-6.533-1.08873-10.91231,14.6335-1.28029,22.016-1.84266,37.36751-2.764-3.24254-4.45108-4.858-6.68858-8.10051-11.17555,1.66319-4.05623,2.441-6.09032,4.05624-10.17048,18.12741.90936,27.46038,1.48369,47.04737,2.89559,0,0,4.3675,8.95,4.7861,10.66106.41891,1.711,35.42929,10.99608,35.42929,10.99608,15.08818-.83756,23.95449-1.19652,42.91926-1.723,16.23695,7.63385,24.82793,11.46273,41.57931,19.14443q34.56767-2.51273,69.26709-4.1998c16.38038,7.34667,24.01423,11.04393,37.09233,18.49831l5.157-3.37422a200.19,200.19,0,0,0-16.0814-17.3257c21.57341,2.70415,31.21749,4.22374,46.9517,7.33472,27.06557,11.57041,54.33446,22.66222,81.66295,33.58644l13.56872-3.5297,23.3682,9.8235c-.20346,3.80494-.29913,5.70743-.49062,9.48844l-7.32274,3.58958ZM1041.02134,344.22041c3.94853.90937,5.92283,1.28022,9.83542,2.1059,7.37057-3.62548,11.04392-5.49206,18.31882-9.21327,8.72265-.20343,13.102-.28716,21.88445-.28716,1.19652-7.7535,1.80676-11.61826,3.00329-19.33587,2.91953-4.63056,4.39123-6.93984,7.35867-11.54648,11.82169-.93329,17.80432-1.32815,29.76959-2.01016-.84956-3.67334-1.22048-5.504-2.04609-9.1654-13.36518,2.10589-20.00589,3.30241-33.16768,5.69547-4.91771-9.10563-7.39453-13.66434-12.36014-22.734,6.31769-8.01673,9.46449-12.0251,15.88991-19.982l-4.42717-9.96707c-12.67125,14.94463-18.79746,22.59044-31.10969,37.73845,4.69036,6.3057,6.98775,9.41666,11.6302,15.7463-4.0921,3.75709-6.06632,5.6476-10.07473,9.46453,0,0,.76579,15.04035.76579,15.90185C1066.292,327.481,1041.0453,344.22041,1041.02134,344.22041Zm155.18954,135.62631-8.1723-5.59973c-5.08524,1.47174-7.62187,2.21358-12.68316,3.70924-13.46092-2.89562-20.26916-4.31945-33.80188-7.01163-4.51093-4.77413-6.77231-7.15525-11.30719-11.85759.10772-6.85611.15556-10.26618.27518-17.06248-6.97577,1.31619-10.45763,1.98624-17.39747,3.37421.81363,3.06311,1.19652,4.60664,2.01015,7.69366,3.36224,1.00508,5.03741,1.51958,8.37569,2.54861-5.73134,4.64253-8.57908,6.97573-14.2506,11.69-6.62873-4.73823-9.95511-7.07148-16.61978-11.69l3.17083-5.76727c-6.22195-9.62008-9.34487-14.3703-15.62664-23.763-8.18427-1.45977-12.24044-2.11784-20.48453-3.4341-4.43914-5.06132-6.67664-7.598-11.18749-12.6592-.39488,4.21176-.59827,6.31766-1.00512,10.55337,12.65927,9.10555,18.79746,13.5088,31.1097,22.84169-2.72812,7.11935-4.09211,10.70893-6.79627,17.88809-7.70563,1.97427-11.54651,3.05113-19.288,5.12114-1.28029-4.33142-1.91442-6.48519-3.19471-10.76874l9.95511-4.14c-1.91441-5.34847-2.85971-8.00476-4.7861-13.31734L1036.98913,432.56c-3.458-5.839-5.20487-8.75858-8.71075-14.60958-8.33976,4.06819-12.46779,6.1023-20.84348,10.21835L994.41669,426.362c-7.96884,8.44748-12.01311,12.71909-19.93411,21.37-.07179,5.851-.07179,8.78251-.07179,14.65746-12.5276,4.23571-18.78548,6.40142-31.25334,10.84053l1.31615,5.98263c8.3039-.80169,12.46779-1.18455,20.77168-1.93837,0,0,21.5973-10.56531,23.73913-10.56531s47.75335-2.39306,47.75335-2.39306c2.58446,5.70742,3.86476,8.57912,6.41336,14.35833-3.12291,3.30242-4.67838,4.96557-7.80137,8.29192,12.18063,3.07508,18.271,4.66644,30.23625,7.86119,10.98411,5.48007,16.46422,8.32781,27.38851,14.15489,2.082-6.23389,3.1349-9.35685,5.22882-15.55485,5.80313-.39483,8.71075-.58628,14.51387-.92131,17.3736,5.24079,26.04842,8.01675,43.32626,13.73614,4.78611-1.19653,7.17916-1.77087,11.96527-2.9674,5.98264,1.50764,8.95,2.2734,14.93263,3.805C1188.20611,496.05964,1190.87434,490.60349,1196.21088,479.84672Zm108.83595-10.92429q-14.71719-23.45793-29.91317-46.60473c3.06318-4.69041,4.70241-7.03559,7.84928-11.69006l-20.80747,5.44418c3.61339,9.76367,5.3962,14.66943,8.98578,24.54078,3.93662,4.03229,5.95883,6.04244,9.91926,10.08671-1.87848,5.5878-2.81181,8.39961-4.65451,14.04721l18.06753,12.55156C1298.7173,473.93588,1300.83518,472.26075,1305.04683,468.92243ZM1007.07589,107.32008c-.41876-10.1944-.62222-15.31554-1.06493-25.64157,9.69184-.347,14.47794-.5504,24.05016-1.05294,5.56388-4.69038,8.38766-7.0954,13.93956-11.96526,14.96856,1.32814,22.25537,1.74692,37.39146,3.15883-3.56562,5.79119-5.33653,8.67482-8.86623,14.43011-7.6578,2.65629-11.40293,4.08016-19.00085,6.72448,0,0,8.50729,4.91773,10.76874,5.79118s10.48159,21.74089,10.48159,21.74089c-6.545-.53843-9.7756-.71791-16.27274-1.19652l-3.58958-12.24047c-2.69218.21538-4.03229.3111-6.73645.49058-3.24261,10.36193-4.79808,15.495-8.02872,25.6655C1027.0579,122.98262,1020.36928,117.74183,1007.07589,107.32008ZM1174.31438,71.0055c-7.49027-4.10409-11.24738-6.15015-18.73758-10.20637l7.574-6.545,9.40468,4.24767c2.27343-2.65629,3.47-3.98443,5.863-6.64072l7.07144,6.40142Zm24.98348-35.18985,8.20816.90936c4.00833,7.43043,6.03047,11.1277,9.991,18.48633,7.87316-8.44748,11.82161-12.69515,19.70683-21.29817l6.916,4.18784c-3.32638,7.7535-5.00155,11.59435-8.37569,19.21622l-16.42829,8.90216-25.12706-1.50762C1192.31019,64.60408,1199.29786,35.81565,1199.29786,35.81565Zm44.36738,126.06605c6.77224-12.01313,10.18231-18.05558,16.97864-30.28409,13.89166-6.98771,20.84355-10.48158,34.69928-17.50518,4.43907,3.66137,6.64064,5.48009,11.03194,9.14146-14.94461,10.58926-22.45883,15.842-37.42739,26.32359,0,0-10.697,33.1079-10.76874,34.40013s16.46422,13.97543,16.46422,13.97543c-1.388,3.31438-2.09392,4.96558-3.48194,8.28-13.56857-6.198-20.42464-9.285-34.22063-15.41127C1239.6328,179.30313,1240.97291,173.5239,1243.66524,161.8817Zm193.02348-80.10746c-2.32119-10.8525-3.51772-16.34456-5.91077-27.52012,8.44755,3.25456,12.5276,4.78611,20.62811,7.88511,1.32813,3.29045,1.99825,4.92969,3.30243,8.19621C1447.58921,74.90617,1443.93974,77.20351,1436.68872,81.77424ZM1379.435,55.79764c-1.93837-4.66645-2.91946-6.99968-4.89376-11.714.71789-9.69187,1.06493-14.59763,1.67517-24.5288l7.53818,1.31618c6.11423,7.46632,9.11753,11.18752,15.10016,18.55813,6.55694.95722,9.81146,1.43583,16.2368,2.393,4.91771,8.05263,7.31076,12.049,12.09687,19.9461-2.04616,2.26143-3.07515,3.39814-5.13315,5.64761C1405.48336,62.77339,1396.92816,60.44016,1379.435,55.79764ZM1618.9439,95.78557,1613.84669,80.123c6.67656.74185,10.03887,1.13669,16.847,1.93837.29913-2.04606.45469-3.0631.7658-5.10916l22.23141,4.7861c.83751,3.781,1.22033,5.65957,2.034,9.40471-8.79444,4.30749-13.11389,6.5091-21.65711,10.97214C1627.96562,99.59052,1624.95034,98.33416,1618.9439,95.78557Zm47.825-4.94166c-1.06493-2.95542-1.60331-4.43911-2.66824-7.41846,4.57082-.20341,6.88-.28716,11.53454-.45468,4.91771,2.47681,7.39445,3.7212,12.396,6.21l-3.58958,5.75528Zm-9.8474,27.83121,3.72118-4.59466c5.15711,2.5127,7.76545,3.781,13.01822,6.30569-.9453,2.2734-1.43577,3.39813-2.39305,5.65958-4.76216-.682-7.11928-1.01705-11.78576-1.66317C1658.45309,122.10915,1657.9505,120.96049,1656.9215,118.67512ZM1283.67688,826.4806c-2.39306,8.04063-3.58958,12.061-5.98264,20.10164l2.39306,5.38437-7.68176,3.01527c-5.5519,16.06935-8.30382,24.09807-13.76,40.07167-6.258.65807-9.39286.96918-15.61474,1.55547-2.91945-8.84235-4.37918-13.26951-7.2868-22.1597,3.90069-6.65268,5.851-9.991,9.77567-16.66761-1.31615-7.33471-1.96232-10.99608-3.26649-18.34277,7.5262-3.72118,11.29529-5.59974,18.86925-9.38081,6.43732-8.30389,9.66788-12.41995,16.16509-20.79564ZM1478.639,663.28623c2.393,3.9605,3.58958,5.95868,5.98263,9.94314-.76579,3.67334-1.18455,5.516-1.96232,9.20129l-8.50728-.28715c-.61025-4.96562-.90938-7.43046-1.49566-12.36015C1475.04944,667.17494,1476.246,665.8707,1478.639,663.28623ZM882.76871,248.235c-11.22343,4.95362-16.77533,7.52615-27.69963,12.97035-8.25606-1.62728-12.37212-2.39306-20.50848-3.781-3.72126-7.76547-5.56388-11.63024-9.22525-19.25211,3.099-1.81873,4.71432-2.71612,7.88514-4.487,3.55365,1.78283,5.33654,2.69219,8.92612,4.53483,11.79773-2.09392,17.70858-2.93149,29.74564-4.487C876.23564,239.54825,878.41333,242.45581,882.76871,248.235ZM1925.68533,874.79614c.70591,7.56206,1.041,11.31917,1.65122,18.76153-4.78611,10.31406-7.27483,15.42325-11.64219,25.95267-9.65605,8.78254-14.37029,13.24556-23.67931,22.20753-4.63055,11.15164-6.84424,16.75138-11.28331,27.903-4.54686.61024-6.80831.90937-11.28331,1.53158-6.61683,4.53481-9.8953,6.80824-16.33262,11.391-3.61353-3.099-5.33646-4.6545-8.926-7.76544-4.14008,3.24261-6.1861,4.79808-10.21839,8.02872-7.75347-2.57257-11.60625-3.8289-19.14442-6.49714.371-4.499.55035-6.74842.89739-11.27126-2.46477-4.6066-3.73316-6.93991-6.12621-11.6183,0,0-8.36371,1.36406-9.35677,1.19653s3.0512-11.77386,3.0512-11.77386c-4.8698,3.33829-7.251,5.01345-11.96527,8.37569-1.44775-5.67152-2.15381-8.55519-3.58958-14.35832-5.91077-3.5776-8.74668-5.40832-14.35832-9.1295-12.33612,2.70416-18.1632,4.02031-30.20032,6.7723-4.64253,4.43915-7.03559,6.66467-11.82169,11.1756-8.87829,1.97429-13.38907,2.99131-22.86561,5.12117-6.96387,4.72629-10.62517,7.17916-18.15137,11.96526l-13.3413-8.962c3.01527-4.0921,4.49895-6.13819,7.43039-10.23029-3.57761-21.08279-7.69359-41.86646-12.06094-62.7937,3.15885-7.35867,4.71439-11.04392,7.7894-18.37863,17.51717-7.02361,25.821-10.44566,41.59128-16.75138,2.393-7.68168,3.58958-11.52255,5.98263-19.14442,3.38612-1.711,5.03734-2.56059,8.37569-4.24766.6821-3.11094,1.01717-4.67839,1.7111-7.7894,4.16389-3.49384,6.25781-5.22882,10.50554-8.67482,7.58594,1.31615,11.379,1.96232,19.14443,3.24261,2.14168-5.63566,3.24254-8.43557,5.492-14.01135,5.45624-2.64435,8.14842-3.9605,13.83192-6.5809,11.008,1.735,16.17707,2.57256,28.82429,4.128-3.75711,7.35867-5.33646,11.0559-8.68679,18.47438,9.72776,6.37751,15.08818,9.46449,25.85692,15.73436,4.58279-.41876,6.904-.62222,11.57047-1.00512,3.56562-15.77021,5.43213-23.65536,9.38073-39.2102h7.5262c1.9981,6.92786,3.00329,10.38584,5.02535,17.26587,4.05624,1.51961,6.10226,2.27343,10.18245,3.781,2.94341,11.0559,4.42724,16.57187,7.3467,27.52012,6.93991,3.93654,10.4217,5.88689,17.33766,9.71579,1.388,4.11605,2.08194,6.16214,3.446,10.24226l8.37569-.89739C1918.14716,862.54387,1920.70774,866.69578,1925.68533,874.79614ZM1856.598,999.70166c.53838,2.28533.80172,3.42205,1.3401,5.6835-2.6564,4.55876-3.98453,6.82022-6.65276,11.355-4.04426,2.18966-6.06632,3.29045-10.0269,5.504-2.93157-3.73323-4.37933-5.61171-7.251-9.3808,1.4-5.31258,2.082-7.99279,3.446-13.35321C1838.86543,999.582,1856.59789,999.70166,1856.598,999.70166Zm189.90056-14.5138c.64617,3.33828.96911,5.00147,1.62726,8.29192-3.31425,2.24947-5.0014,3.36223-8.45938,5.5519-.43073,3.30242-.67012,4.95364-1.19652,8.20815-3.7929,2.39306-5.71929,3.58958-9.66789,5.98264-4.86994,6.41336-7.41855,9.56024-12.755,15.69842-4.487,4.0921-6.88,6.11424-11.66614,10.07474-8.74668-.682-13.16179-1.017-22.00414-1.87856,2.72811-4.463,4.05624-6.72447,6.6288-11.30719,12.57551-7.59792,18.61788-11.43879,30.00884-19.56318,6.72447-8.24409,9.955-12.46779,15.93767-21.09478C2039.66648,985.22371,2041.98767,985.23569,2046.4986,985.18786Zm22.13575-33.81386c4.3913-.67005,6.53313-1.041,10.66109-1.86658-8.31595,16.26083-12.80292,24.18183-23.20067,39.23408-3.69723-6.26978-5.516-9.41665-9.10555-15.842,4.16389-5.70745,6.22188-8.603,10.14652-14.466,0,0-6.12621-23.428-6.73645-25.2228,1.89046-1.23246,2.82379-1.90251,4.65451-3.099,5.09721,8.51934,7.84928,12.8149,13.58055,21.26245ZM1902.22146,755.5983c-.40678,2.50077-.61024,3.74513-1.005,6.25781,8.53124,6.62873,12.80292,9.90728,21.29823,16.3565-8.91406-.96918-13.37708-1.43585-22.25536-2.39305-4.59462-3.8289-6.892-5.76727-11.47465-9.644l-13.95155-1.92639c-4.34339,3.18273-6.4972,4.75018-10.76874,7.96884-16.09337-3.21866-24.02635-4.83394-39.22218-7.83724,4.092-4.59469,6.162-6.85607,10.39775-11.355-19.93418-4.88185-29.08764-7.05954-46.25777-11.96527-.19148-3.72125-.28715-5.58776-.45468-9.297-2.88367-2.39305-4.31945-3.58958-7.17916-5.98263,3.30242-2.97934,4.96561-4.451,8.37568-7.4065,4.499,1.735,6.78436,2.58446,11.40294,4.29556.347,4.55876.52655,6.8441.90937,11.41484,2.81181,1.89053,4.25971,2.85972,7.17916,4.78611,6.42534-4.66649,9.8953-6.99966,16.93088-11.51059q30.48734,9.58413,61.02287,18.953C1893.18763,750.02244,1896.22685,751.82921,1902.22146,755.5983Zm39.10256-12.14485c3.00329,2.53663,4.51093,3.793,7.50225,6.29374l-9.93123,1.5914c-.55036,1.53159-.81371,2.29732-1.36406,3.84088l-18.57012,2.63237-10.76874-4.64252c7.921-1.19653,11.91736-1.747,19.88627-2.94349C1933.37907,747.49779,1936.0473,746.14571,1941.324,743.45345Zm-241.32755-56.93069c-3.20676,3.75711-4.822,5.64757-7.99287,9.4645,3.063,6.43724,4.61858,9.6559,7.72952,16.11718-6.26979,12.79087-9.20122,19.3-15.18385,32.54554-13.13784-3.9605-19.69479-5.70746-32.62931-9.57222-3.37414-9.8953-5.0014-14.837-8.16025-24.68435l11.96527-1.63923c12.396-12.83871,18.70172-19.14443,31.86351-31.1097Zm38.85118,30.667c-11.46267,1.42387-17.02655,2.14175-28.214,3.67334.22727,2.10583.33506,3.17083.56233,5.27665,6.25781-.14365,9.38073-.21544,15.66249-.33506-2.53663,2.26145-3.793,3.39817-6.29374,5.6835l10.00309,13.0302s-8.23211,7.45434-9.04581,8.90216-3.20675-7.47829-3.20675-7.47829c-2.72812,3.76909-4.06823,5.65955-6.74843,9.47647h-4.58265c-1.86665-5.04931-2.79983-7.574-4.6545-12.61137,2.2854-11.379,3.446-17.02655,5.98263-28.20214,0,0,31.46871-6.82022,32.22253-7.04756.75382-.21529-1.68715,9.6321-1.68715,9.63217Zm-44.83382,55.26757c8.44755-1.61528,12.58749-2.38108,20.84355-3.87673,6.28177.1795,9.39271.28715,15.65052.49054,0,0,2.35712,3.13489,1.67517,3.37421s-15.3993,4.33142-15.3993,4.33142,2.18959,5.91085,1.28022,6.16215C1717.1666,783.1902,1694.01383,772.45732,1694.01383,772.45732Zm60.77164-3.87673c.58629,1.62725.87344,2.405,1.44775,4.02031-8.04062,4.55876-11.92933,6.85607-19.61109,11.53453a28.15134,28.15134,0,0,0-3.12291-4.25963c2.04616-3.02725,3.07515-4.54679,5.1571-7.55008C1745.03375,770.80611,1748.24036,770.06427,1754.78547,768.58059Zm2.60835-30.5952,19.14443-.5145c-.25123,1.93837-.371,2.89557-.61024,4.78611l-13.71215,1.19652Zm-4.69029-27.04148c4.27153-.88542,6.41336-1.31615,10.76874-2.18966-2.22567,4.51093-3.3144,6.77231-5.44426,11.30719l-4.7861.65808C1752.99068,716.80685,1752.87091,714.8446,1752.70353,710.94391ZM1701.15692,621.36c2.46491-6.72447,3.75711-10.05082,6.44929-16.64369l9.93123,1.62726c.43088,3.111.64617,4.67842,1.11284,7.81332-1.44775,3.48186-2.16579,5.24079-3.58958,8.75858,6.44929,6.174,9.71579,9.297,16.33262,15.55485,4.16389,1.81874,6.26978,2.72812,10.48158,4.53481-.94515,2.89557-1.41182,4.31944-2.32119,7.17916l-10.46961-4.30747c-1.51961-2.96736-2.26145-4.451-3.74513-7.4065l-8.04063-5.5519c-2.11787,4.71432-3.14687,7.17916-5.14512,11.96527C1707.63031,635.3952,1705.41677,630.68088,1701.15692,621.36Zm17.984,36.43418c.14358-3.55365.22727-5.27665.41876-8.86623,5.56388,3.23064,8.32792,4.8579,13.93957,8.08853,0,0-6.22189,6.12622-7.41841,7.32274C1724.81242,665.6075,1719.14089,657.79414,1719.14089,657.79414Zm24.77988,4.23568c2.04616,3.74514,3.06318,5.62369,5.13315,9.3808-2.1059,5.31258-3.12292,7.98082-5.08524,13.35321l-7.921-.92135c-1.30418-3.39817-1.96232-5.09722-3.24254-8.49531l-7.17916,1.19653c-2.6323,1.50763-3.93648,2.33324-6.533,3.90069.95728-3.80495,1.42379-5.70746,2.393-9.48845,4.40328-.93333,6.61683-1.4119,11.09183-2.33324,4.51093-2.63231,6.74842-3.93655,11.3429-6.59281Zm-32.641-80.10741c-2.60849-3.84084-3.91267-5.75529-6.49721-9.57221,2.9196-4.31944,4.39131-6.48519,7.37065-10.76874l5.79115,1.35208C1715.22823,570.4597,1713.9001,574.26465,1711.27978,581.92241Zm161.81841-142.91315c.62207,2.62039.94516,3.93658,1.59133,6.56892-4.8698-.35895-7.55-.58629-12.049-.82561-2.776,2.2375-4.164,3.37422-6.93992,5.63563-4.45119-1.41189-6.71264-2.1059-11.28331-3.49387-3.3144,1.83068-4.97759,2.752-8.292,4.60663l-8.10051-2.47682v-7.921c4.95364-.35894,7.40657-.51449,12.30033-.83758,1.06492-5.57582,1.6033-8.35177,2.70416-13.89166,6.62866,3.88871,9.85937,5.851,16.1052,9.77564C1864.60259,437.21447,1867.30675,437.78881,1873.09819,439.00926ZM1828.15657,482.491c3.087-9.60811,4.63056-14.3703,7.8731-23.81088,3.805.67005,5.69548,1.01706,9.42863,1.711,1.62726,5.89886,2.417,8.84235,4.02032,14.75315-2.68021,3.69727-4.00834,5.55191-6.66459,9.297-.29914,6.30569-.43088,9.50043-.65815,15.8779-13.078,4.06818-19.74269,6.22195-32.83263,10.673-6.19807-.89739-9.321-1.3401-15.55484-2.21358-4.41526,3.18277-6.60485,4.75022-10.9243,7.96888-1.376,3.55368-2.058,5.34847-3.39809,8.938l-7.17916-1.11276c-.67013-5.492-1.005-8.23211-1.67517-13.68827,6.85608-6.48519,10.44566-9.66792,17.62482-15.96166,6.88-.9931,10.34984-1.47174,17.30173-2.39305,2.22552-3.805,3.35018-5.70742,5.62361-9.47651C1817.99793,482.79017,1821.432,482.68248,1828.15657,482.491Z"/>
</svg>
