<svg xmlns="http://www.w3.org/2000/svg" width="88" height="63" viewBox="0 0 88 63">
    <polyline fill="none" stroke="#000" stroke-width="2" points="59 10 59 55 85 55"/>
    <line fill="none" stroke="#000" stroke-width="2" x1="53" y1="48" x2="59" y2="48"/>
    <line fill="none" stroke="#000" stroke-width="2" x1="45.8" y1="25.6" x2="37.7" y2="33.7"/>
    <line fill="none" stroke="#000" stroke-width="2" x1="38" y1="27.6" x2="40.9" y2="30.5"/>
    <line fill="none" stroke="#000" stroke-linecap="round" stroke-width="2" x1="40.6" y1="24.9" x2="35.3" y2="30.3"/>
    <path fill="none" stroke="#000" stroke-linecap="round" stroke-width="2" d="M16.8,22.4H8a5,5,0,0,0-5,5V39"/>
    <line fill="none" stroke="#000" stroke-linecap="round" stroke-linejoin="round" stroke-width="2" x1="31.84" y1="55" x2="22.92" y2="55"/>
    <polyline fill="none" stroke="#000" stroke-linecap="round" stroke-linejoin="round" stroke-width="2" points="8.8 55 3 55 3 34 17 34 17 1 42 1 53 36 53 55 46.12 55"/>
    <polygon fill="none" stroke="#000" stroke-linecap="round" stroke-linejoin="round" stroke-width="2" points="21 5 21 34 48 34 39 5 21 5"/>
    <circle fill="none" stroke="#000" stroke-linecap="round" stroke-width="2" cx="16" cy="55" r="7"/>
    <circle fill="none" stroke="#000" stroke-linecap="round" stroke-width="2" cx="39" cy="55" r="7"/>
    <rect class="uk-text-primary" fill="none" stroke="#0045d4" stroke-width="2" x="63" y="39" width="19" height="12.4"/>
    <rect class="uk-text-primary" fill="none" stroke="#0045d4" stroke-width="2" x="63" y="27" width="16" height="12"/>
    <rect class="uk-text-primary" fill="none" stroke="#0045d4" stroke-width="2" x="63" y="16" width="11" height="11"/>
    <line fill="none" stroke="#000" stroke-width="2" x1="27" y1="38" x2="23" y2="38"/>
</svg>
