<svg width="1280" height="670" viewBox="0 0 1280 670" xmlns="http://www.w3.org/2000/svg" xmlns:xlink="http://www.w3.org/1999/xlink">
  <defs>
    <path id="svg-defs-map" d="M625.5,277c-2.01-.1-3.01-.14-5.02-.24-.38995-4.92-.58-7.37-.98-12.26,1.85-1,2.78-1.5,4.63-2.5C624.69,267.97,624.96,270.97,625.5,277ZM456.24762,449.89993c3.30524,2.02207,4.95505,3.03311,8.25238,5.05521-.34012,6.4736-.50851,9.71435-.843,16.20151-4.22168,5.97482-6.33477,8.93237-10.56323,14.791.1955,6.80423.295,10.21085.49609,17.03989-3.17532,6.55487-4.763,9.81363-7.94052,16.30868-9.73718,3.64136-14.63574,5.45917-24.30853,9.07685-.77066,4.15924-1.15485,6.23773-1.92212,10.39477-6.5766,9.30811-13.05716,18.90064-20.53094,27.52832-4.53244-.38476-6.79584-.57885-11.32148-.9693,2.043,4.34772,2.97641,6.53,4.73471,10.90931-3.78778,2.566-5.72119,3.84558-9.6502,6.39575-4.40247-.40393-6.60483-.60822-11.01071-1.01892-1.87241,4.24273-2.87925,6.36639-4.95166,10.61932-2.46338-.65332-3.6951-.97943-6.15848-1.63391-.60681,2.49939-.92435,3.75189-1.56958,6.257-.19324,1.433-.29267,2.15069-.49268,3.5849-1.2464,3.40436-1.8837,5.10821-3.147,8.51941-3.02277,2.022-4.53922,3.03082-7.56989,5.04162,2.34815,3.2735,3.53351,4.91419,5.94721,8.20685-5.06015,7.60877-7.54614,11.4137-11.91812,18.9931,2.14926,5.83722,3.338,8.76654,6.07827,14.6579,0,0,12.161,7.15741,10.85251,7.34809-1.3074.19183-12.1181,2.79278-12.1181,2.79278-4.3132-2.29852-6.45456-3.4461-10.7045-5.73566.3266-1.995.51755-2.99359.947-4.99084-4.64883-3.46533-6.92691-5.19287-11.40509-8.63562,1.45658-1.9939,2.208-2.99365,3.75159-4.99542-2.99-4.17169-4.416-6.25128-7.17209-10.39478-1.982-7.89087-2.72781-11.821-4.129-19.63635,3.34369-2.23981,5.01947-3.36487,8.36087-5.62274.91532-5.69275,1.40686-8.5318,2.27356-14.18848-.36612-8.24066-.565-12.33783-1.53567-20.44537A118.74617,118.74617,0,0,0,335.67,553.22827c-.74127-7.20709-1.71872-10.7254-3.09732-17.79144,1.27011-4.12988,1.90631-6.205,3.17868-10.37329-1.26559-11.52887-1.88256-17.30622-3.09958-28.84632-9.06033-6.08093-13.58709-9.08923-22.66439-15.04715q-11.68021-17.05965-23.55481-33.98953c.82715-4.29239,1.23959-6.4386,2.06222-10.73215-.82263-3.65374-1.23395-5.47723-2.05771-9.114,5.62851-5.20981,8.42414-7.83334,13.98713-13.10632-1.93345-6.13507-2.90186-9.18512-4.84656-15.23786-2.04758-1.20285-3.07248-1.8009-5.12454-2.99362-2.42386,1.49625-3.63974,2.24213-6.07489,3.72934-7.20035-4.04754-10.81748-6.04706-18.1037-9.99194-2.49054-2.57047-3.738-3.84668-6.24213-6.38333-7.76535-2.51181-11.67516-3.7519-19.57722-6.1994-3.24987-2.63028-4.88047-3.93357-8.162-6.51648-4.87143.0632-7.354.08123-12.21415.17263q-16.372-6.95479-32.84568-13.6795c-.08136-3.30734-.1503-4.948-.2068-8.21472q-11.98364-16.50788-24.04863-32.957c-1.74359.422-2.61256.633-4.34824,1.05389,6.26923,11.24335,9.33832,16.78262,15.25387,27.65247-1.71874,1.15435-2.57641,1.7287-4.28949,2.87176q-14.74986-20.87136-29.52913-41.72241c-3.45328-2.197-5.17652-3.30057-8.62189-5.51447-.8215-5.16693-1.24977-7.76336-2.13342-12.96527-3.46685-3.30618-5.20365-4.96606-8.68291-8.29031q4.73583-17.81451,9.42306-35.64035c-4.7573-6.178-7.15177-9.25736-11.99607-15.33714,1.3899-2.06159,2.08712-3.0873,3.4917-5.13082-2.61934-7.04683-3.95047-10.52568-6.658-17.32538-3.76063-3.09632-5.65226-4.62867-9.46148-7.64375-1.1074-3.50366-1.66675-5.23237-2.79562-8.6356-3.88607-3.74176-5.84887-5.5754-9.82534-9.13549-3.59453-2.09657-5.40365-3.12341-9.04677-5.12179-6.18223-1.93633-9.28746-2.865-15.52281-4.59369-4.7426,1.1645-7.084,1.76141-11.70452,3.00265-4.80137-.66236-7.19923-.96365-11.98251-1.4861-1.80348,2.654-2.68827,4.00693-4.42847,6.76023,0,0,8.40493,1.47255,6.59468,2.162-1.81026.68832-7.84446,5.38471-7.84446,5.38471-2.98093-1.06861-4.47479-1.58089-7.4659-2.557-5.81836,3.41452-8.64336,5.18948-14.15211,8.885-6.61162,2.51181-9.83664,3.85122-16.11717,6.732,0,0-1.22944-1.99388-.26668-2.49376.96389-.49875,10.88754-6.95317,10.88754-6.95317,1.365.19859,2.04869.30241,3.416.52244,2.40125-2.29853,3.61712-3.428,6.09069-5.64874,2.69166-2.47006,4.06009-3.682,6.84779-6.05835-.76388-1.39357-1.15033-2.08076-1.93116-3.43033-4.82623-.28773-7.22861-.38365-12.00737-.457.24182-2.18.2599-3.164.47121-5.18948-3.18434-.3972-4.77086-.56984-7.92694-.86435-.287-1.61023-.42375-2.39784-.68478-3.94826-.94129-1.50189-1.40685-2.23309-2.33345-3.66615,2.75607-1.87427,4.16743-2.79392,7.06362-4.623-.23617-.9693-.35143-1.44887-.57856-2.40236,1.71986-.51,2.58657-.76167,4.33355-1.26042,4.31433-.56533,6.49862-.82149,10.91014-1.28411,2.33909-2.52986,3.55271-3.79592,6.06922-6.36528-1.44414-.19183-2.16621-.28323-3.60809-.45587-2.00235.94672-2.9911,1.41727-4.94487,2.35834-4.94035.38591-7.38793.61272-12.21529,1.13742-.78083-1.54816-1.16955-2.31207-1.94247-3.82864-.8362-.69735-1.2543-1.04264-2.09162-1.72531,7.27832-2.7499,11.06946-4.10172,18.90375-6.81664.83507,1.1803,1.252,1.77383,2.08484,2.97107,3.44311-1.00314,5.18783-1.50076,8.71682-2.4915-2.17525-1.60909-3.27022-2.3922-5.47485-3.92345-1.34922-3.08728-2.02157-4.6219-3.37982-7.71483,2.49616-1.37777,3.76289-2.074,6.33138-3.48335,3.33575-.69059,5.01606-1.0291,8.39476-1.6926,6.64666-3.603,10.08186-5.46029,17.12627-9.29683,8.94508-2.77925,13.50349-4.16716,22.66777-6.93625,6.24438,2.1699,9.30668,3.33554,15.3115,5.83381,11.98024,1.76593,17.83477,2.88192,29.19916,5.47158,4.694.62513,7.01729.96478,11.61414,1.68583,1.16615,1.74,1.74472,2.61561,2.89506,4.377,4.14144-1.29879,6.21047-1.95552,10.3248-3.28476,1.23169.94558,1.84415,1.42178,3.06342,2.38091,5.41835-1.33263,8.11114-2.00628,13.43-3.36713,5.01945-.20424,7.49981-.29789,12.38366-.48182,0,0-1.91987,6.23439-.56952,6.09,1.35147-.14556,13.33963-.82824,13.33963-.82824,6.34156,3.65036,9.5259,5.37342,15.79512,8.929,2.39334,2.38542,3.58776,3.57588,5.96979,5.95454,5.68616.31369,8.4942.47844,14.06622.817,1.078-1.4071,1.61365-2.11235,2.67923-3.524-5.207-.38365-7.82861-.5721-13.13171-.93318-2.025-2.30644-3.03857-3.46191-5.068-5.77626-2.33684-1.76029-3.50753-2.64157-5.85567-4.40186,2.64534-1.89345,3.95613-2.84018,6.54723-4.73249-1.99219-1.94874-2.98772-2.92255-4.98444-4.87355,2.43741-2.01418,3.64313-3.01959,6.02629-5.02925-.30171-2.05142-.452-3.07939-.75256-5.13646-3.7177,1.92956-5.6048,2.9-9.43549,4.851-3.13009-.7549-4.70532-1.12839-7.88515-1.86637.24523-1.99274.36727-2.99024.61022-4.98863,4.80249-4.4628,7.14949-6.69252,11.726-11.12825,1.35148-2.55242,2.0193-3.82863,3.34365-6.3788,7.47382,1.37213,11.12485,2.09543,18.35344,3.57023.64185,4.00355.96842,6.00193,1.62494,9.98968,3.077,2.37415,4.616,3.56122,7.70208,5.92972,2.5651.20875,3.842.31483,6.389.53035,1.65657-2.28726,2.4747-3.43145,4.08833-5.71307,2.75946-1.76368,4.12224-2.64045,6.81728-4.3872,2.60238,1.26719,3.9064,1.90023,6.52124,3.164-4.02506,6.57967-6.1167,9.887-10.47736,16.51293,2.06789,4.42331,3.10861,6.62706,5.181,11.02217-5.7822,4.44023-8.74506,6.67332-14.80072,11.12485,2.112,1.66551,3.16739,2.49714,5.27484,4.1604,4.21941-.63416,6.31557-.95012,10.48526-1.57863-.0599-2.42719-.09491-3.64133-.174-6.07527,4.72678-2.883,7.05457-4.324,11.64124-7.19127.71417-3.30619,1.05767-4.96042,1.71872-8.26549-3.755-4.59144-5.62513-6.89562-9.32361-11.52769.76953-1.25928,1.15259-1.8878,1.91082-3.14483,1.45093.48182,2.17753.72217,3.63068,1.20288,1.09384-3.23851,1.62607-4.85662,2.6702-8.0906,3.56177-.52922,5.33359-.78987,8.86709-1.30894,0,0-.84411,11.40808.46332,9.96825,1.3074-1.441,9.65921-8.1741,9.65921-8.1741,2.94367,1.22319,4.424,1.83252,7.39923,3.04554-4.46914,3.70227-6.74045,5.56524-11.37909,9.31716-.45425,5.71871-.71075,8.58144-1.3153,14.31482,1.21475,4.10285,1.81253,6.152,2.97076,10.25824,2.09164.1388,3.138.20876,5.22964.34754-.704,3.16966-1.07238,4.75732-1.84756,7.936,5.28839-4.47859,7.87836-6.7162,12.9498-11.16659,0,0-12.83115-3.63682-11.55991-5.71532,1.27127-2.07738.60568-10.994.60568-10.994,5.7212-5.8,8.48291-8.67623,13.87641-14.38591,3.73352.99638,5.61044,1.49175,9.3948,2.4757,7.13935.73909,10.74289,1.10131,18.05738,1.80883,1.40008,4.41652,2.08825,6.62593,3.4013,11.07067,7.42185,5.15677,11.17908,7.72838,18.59867,12.99234-2.37641,4.01821-3.59793,6.03917-6.12122,10.10816,7.65573,4.26759,11.48306,6.42284,18.93652,10.98831-4.14483,4.06787-6.18786,6.0956-10.2344,10.14314-2.62726-.02369-3.938-.03384-6.55286-.05189,2.03061,4.26308,3.07132,6.4104,5.19687,10.73329-1.91534,1.94647-2.86908,2.918-4.76748,4.86226-2.02607.85983-3.03742,1.28975-5.05674,2.14845-6.3551-2.58514-9.50781-3.85573-15.777-6.354-1.104-2.72057-1.64755-4.07463-2.71539-6.77037,0,0-11.94635,1.86184-12.12826-.10381a30.31032,30.31032,0,0,0-.77634-4.20666c4.27142-.97606,6.406-1.46466,10.68527-2.44072,3.58777-5.405,5.44434-8.10977,8.85242-13.45386-4.816.39833-7.215.60031-12.00736,1.00653-.32318-1.39581-.48816-2.092-.82717-3.48,1.21588-1.82461,1.817-2.73522,3.00128-4.55194-1.07914-2.98236-1.63736-4.4662-2.77866-7.42259-4.82849,5.57315-7.31335,8.38059-12.44241,14.01354.49606,1.49513.74014,2.24438,1.21814,3.7474-4.2522,3.98323-6.441,5.985-10.81635,9.96373,2.695,3.72032,4.06574,5.60246,6.84891,9.39954-1.53793.817-2.30634,1.2243-3.84424,2.039-3.155-.86435-4.73132-1.292-7.88174-2.13831-2.46906,1.301-3.70417,1.951-6.17432,3.24752-1.704-2.56258-2.54816-3.83654-4.216-6.36527-5.47486,2.39446-8.21735,3.586-13.72611,5.96018-.03616,1.41726-.052,2.127-.078,3.54994-7.42633,6.1802-11.13388,9.2596-18.59073,15.40146,2.11987,5.38131,3.21033,8.09962,5.43417,13.58474,8.89081,4.254,13.32267,6.42283,22.19657,10.836a69.96082,69.96082,0,0,0,7.05118.45249c1.62268-.12865.34692,13.21914.34692,13.21914,1.8385,2.32111,2.75946,3.48561,4.60587,5.82366,2.121-2.2049,3.1798-3.30846,5.29629-5.51674-.11072-4.92656-.15933-7.38309-.23389-12.27693,3.8013-1.92955,5.69858-2.89548,9.48972-4.83179.35031-3.16515.52884-4.7449.89835-7.89764-2.14814-2.53775-3.21711-3.80043-5.34375-6.31112,2.11083-2.47343,3.16625-3.71128,5.28613-6.18585.76275-5.449,1.165-8.16394,2.02609-13.57234,5.69293.2505,8.53827.38139,14.24249.65559,4.11319,3.38181,6.189,5.09133,10.37226,8.54421.37405,4.18974.57629,6.29306,1.00345,10.51326,1.44073.9817,2.16281,1.47369,3.60922,2.461,4.54147-4.76522,6.82406-7.15064,11.43445-11.93051,3.23858,7.163,4.90872,10.78068,8.31228,18.07237-.07345,2.79616-.10623,4.1965-.165,7.00056,7.293,4.54067,10.97,6.84485,18.38846,11.51641.50852,6.20953.774,9.32391,1.30853,15.573,3.51093,2.10106,5.27259,3.15725,8.805,5.28428.8746,3.25767,1.31192,4.88932,2.18542,8.16055-9.52591-.88129-14.24252-1.301-23.626-2.10672-.27682-2.69122-.417-4.03514-.69381-6.71959,1.89615-1.5222,2.84533-2.285,4.746-3.80833-.513-2.1056-.7684-3.15613-1.27914-5.25606-5.95511,2.03787-8.918,3.05681-14.83011,5.09469.29718,1.81784.44748,2.72846.74691,4.55082-3.70526,2.47119-5.55508,3.70452-9.25357,6.16894,2.87247,2.52309,4.311,3.79027,7.19132,6.3382,3.30752-.879,4.96408-1.3191,8.28177-2.197.76614,1.6689,1.15033,2.50391,1.91647,4.17732-8.02975,4.37819-12.02545,6.56276-20.03262,10.91384-2.034-1.46128-3.05213-2.18909-5.08612-3.6402-3.95951,1.89456-5.9404,2.84131-9.90671,4.728-1.1232,3.29379-1.6882,4.939-2.82724,8.2294-8.24109,7.28152-12.3848,10.90255-20.79425,18.07235.14352,2.22522.21356,3.33667.34579,5.56186-8.50552,6.72977-12.804,10.06418-21.55362,16.63257,1.95264,8.17746,2.88376,12.26788,4.59571,20.43408-1.756.84745-2.63739,1.26947-4.40247,2.11124-3.21033-4.44138-4.84091-6.65527-8.14389-11.06842-.50061-1.62152-.75372-2.43057-1.26333-4.05206-7.18116-1.18256-10.79377-1.76709-18.07886-2.92368-3.55611,1.7095-5.34377,2.5592-8.94168,4.24616-6.25455-.65787-9.40273-.98511-15.75785-1.635-5.31663,3.964-8.0614,5.92068-13.43794,9.78881,1.69725,8.3219,2.46565,12.4101,3.90866,20.67557,4.21829,2.58179,6.32121,3.89862,10.48865,6.55487,4.676-.369,6.99809-.55743,11.62091-.93884,1.565-2.51859,2.34476-3.77561,3.89737-6.2908,5.10986-.53937,7.649-.8147,12.70232-1.36875-2.07694,7.34586-3.13349,11.04813-5.27369,18.49442,7.69642.63077,11.51017.949,19.0947,1.58765.19775,6.7647.28815,10.177.45538,17.0444,3.63636,2.32675,5.45,3.49914,9.066,5.85974,2.09052-1.64182,3.13465-2.46555,5.2161-4.11411,0,0,8.48062,3.76432,9.6886,3.08164s20.85525-11.34375,20.85525-11.34375c4.00925,1.36648,6.0116,2.05368,10.01294,3.44159,8.76312,1.63168,13.1351,2.46216,21.89032,4.15249,9.52365,7.13825,14.28546,10.77393,23.85541,18.15928,2.76736-.49424,4.15161-.7425,6.92352-1.23673,7.63992,4.63657,11.47174,6.98364,19.17606,11.73532,2.95495,5.8981,4.43527,8.86353,7.406,14.8226,4.8703.86774,7.31223,1.30667,12.2164,2.19471,2.28714,2.12252,3.433,3.18661,5.73023,5.32379,7.61056.90948,11.46271,1.38678,19.09811,2.20373C450.72192,445.66733,452.56494,447.07669,456.24762,449.89993ZM303.608,351.76962c1.96021,1.76731,2.93747,2.65775,4.892,4.44657-2.204.31421-3.30649.47186-5.51495.78381-8.95462-2.9946-13.44718-4.4715-22.52365-7.313-2.75467.0159-4.136.02384-6.90415.03971-.8204-1.00614-1.2312-1.50864-2.05725-2.51139,2.83929-.88025,4.25443-1.32376,7.07681-2.21533,4.56137.61819,6.83191.93015,11.36057,1.55969C295.43427,348.61621,298.16409,349.6496,303.608,351.76962ZM323.94479,357c3.18576,1.33749,4.77756,2.01135,7.95887,3.36926.23877,1.01984.3587,1.53147.59634,2.55588-3.85165.83267-5.77859,1.24786-9.63919,2.07486-4.23727-.51389-6.35925-.768-10.61108-1.27057-1.09855-1.06863-1.64893-1.59955-2.74973-2.66138,2.70041.06467,4.04892.09531,6.74149.16111.1603-1.53943.23877-2.30744.39682-3.84345C319.564,357.23141,321.02466,357.1543,323.94479,357ZM234.23923,72.24216c-3.10164-2.7433-4.64675-4.11438-7.73923-6.8452,7.91637-4.64128,11.70827-6.91432,19.07265-11.397,3.113.18243,4.65815.27988,7.73123.48158-1.81024,3.847-2.72336,5.771-4.58046,9.62248,2.24567,4.656,3.39192,6.97892,5.73015,11.60319,1.42167-.09066,2.13136-.136,3.54619-.22436.75427-3.70758,1.12567-5.5625,1.864-9.27462,1.77365.07706,2.65936.11558,4.42618.19717.392,2.53253.592,3.796.99881,6.31942,2.08337.63568,3.12451.95409,5.2113,1.58977-2.65478,3.166-4.00333,4.75346-6.753,7.94207-3.2525-.03853-4.8833-.05552-8.16208-.08385-3.52562,1.1184-5.305,1.68383-8.90834,2.82714-2.43536-.31047-3.65819-.46457-6.1107-.76825.7977-1.48212,1.19311-2.22319,1.97938-3.70305-3.25363-1.60223-4.881-2.40335-8.14379-3.99765,2.45022-1.55352,3.66163-2.32631,6.05584-3.86509-.768-.83851-1.15083-1.25663-1.91537-2.09515C236.83231,71.236,235.9729,71.57021,234.23923,72.24216Zm24.90954-12.87455c-.67022-2.2515-1.00018-3.379-1.64877-5.63751.49609-.80853.743-1.21163,1.23685-2.019,1.76028.49657,2.63983.74544,4.39782,1.24435.7237-.555,1.08439-.83307,1.80466-1.38806.17182-1.73039.2583-2.59617.43579-4.33124,3.53079-.50475,5.28424-.75012,8.77634-1.23617.93075,1.4862,1.40069,2.227,2.34854,3.70733-.55414,1.76778-.83179,2.64991-1.38593,4.41185-2.95272,1.18476-4.43652,1.77946-7.43136,2.97824-1.12534,1.96056-1.69086,2.94085-2.831,4.90258C262.56689,60.94728,261.42676,60.41916,259.14877,59.36761ZM275.83035,70c1.52146,1.57222,2.28781,2.35612,3.83167,3.92062.99377-1.43771,1.48672-2.15656,2.46817-3.591,3.45407.61411,5.18506.92061,8.66379,1.53032-.53778,2.97023-.8078,4.45314-1.359,7.419,2.80093,1.80375,4.21371,2.70011,7.065,4.484-.7641,2.09372-1.1506,3.14-1.936,5.237-2.10739-.15546-3.15942-.23373-5.26235-.3903-.6218-1.38588-.93213-2.07827-1.54834-3.46747-3.5.1753-5.24891.2635-8.75678.44432-2.23849-4.26676-3.34091-6.41119-5.49649-10.721C274.44,72.91841,274.90494,71.94487,275.83035,70ZM282.5,53.4c1.52036-.94182,2.27719-1.41272,3.78864-2.35227-.52833-2.26942-.7858-3.40755-1.28516-5.69173,1.49136-.54239,2.236-.8136,3.72287-1.356,1.031,1.63626,1.5527,2.451,2.60937,4.077,1.65412,1.03826,2.48676,1.55457,4.16428,2.586-1.27737,4.55475-1.90381,6.81738-3.16779,11.337-1.20492-.07943-1.80572-.118-3.00842-.19744-.61416-2.04136-.91733-3.06487-1.51031-5.11757C285.67224,55.37553,284.61,54.71853,282.5,53.4Zm15.4631,11.5502c-.75781-.25594-1.4631-10.34356-1.4631-10.34356,1.77609-1.04219,2.66357-1.56329,4.43854-2.60664,1.7839,3.107,2.69708,4.65068,4.56146,7.71848-.64828,2.91907-.97018,4.37513-1.61737,7.28153C303.88263,67,298.71982,65.205,297.9631,64.9502Zm214.19327,49.82045a226.18078,226.18078,0,0,0-17.59607,15.16113c-6.89529,1.34671-10.5563,2.19769-18.007,4.04574-5.57336,5.09905-8.41592,7.73177-14.05136,13.023-4.50314.4789-6.77221.73855-11.29232,1.26128.709,1.18032,1.06341,1.77162,1.77575,2.95758-5.99441,4.45268-8.977,6.69644-14.78512,11.10415-5.75962,9.563-8.504,14.32816-13.64606,23.67642-3.11575-.01124-4.65671-.027-7.68326-.08993-5.63769-2.37865-8.34592-3.62869-13.63479-6.15573-2.5987-6.64249-3.8642-9.94293-6.29245-16.49661-1.59061-1.33658-2.382-2.00208-3.959-3.32854-1.033-6.56265-1.506-9.82828-2.33343-16.32575,2.56936-3.86476,3.80889-5.77128,6.24166-9.56858-2.07266-2.1516-3.12817-3.21164-5.264-5.30927,1.67752-2.8834,2.49823-4.31667,4.11255-7.17083,2.978.145,4.41848.24281,7.41909.37208.14789-1.99532.21335-2.98793.33078-4.96528-4.05838-.63738-5.96057-1.01284-9.93991-1.68057.5159-4.65165.72022-6.95162,1.06568-11.52571-4.30222-8.07125-6.6142-12.01133-11.19638-19.93308-8.80536.21584-13.08277.2979-21.458.42493-2.06137-3.29483-3.092-4.94392-5.13083-8.25562,1.58383-1.503,2.37857-2.25725,3.976-3.76809-2.417-1.50071-3.61584-2.25388-5.98651-3.77033.10272-2.427.15579-3.6433.27432-6.08829,8.35834-3.17454,12.63233-4.79216,21.59687-8.18254-.31611-5.41493-.43915-8.15331-.52945-13.75373-9.04132,6.13438-13.23853,9.03576-21.42752,14.74409-2.689,4.37624-3.994,6.53457-6.59162,10.83324-3.86423,2.01332-5.772,3.01155-9.56964,5.00238.20545,2.77548.31159,4.15815.52042,6.92014-1.71817,1.70306-2.57614,2.554-4.2977,4.256-4.11481-1.458-6.14682-2.19318-10.16117-3.68154-5.185-.09443-7.74761-.14837-12.83779-.26529-1.00019,1.50634-1.50257,2.26062-2.514,3.77034,9.06274,2.12236,13.67428,3.15992,23.13894,5.17437-1.97445,2.86878-2.969,4.30429-4.98632,7.18318,0,0-18.04087-1.53331-18.59854-1.47261-.55655.05958-10.48517-4.14354-10.48517-4.14354,1.14019-3.70739,1.69336-5.5577,2.78161-9.25946-2.69015-2.67318-4.0166-4.01651-6.63452-6.72116.85346-1.63337,1.27789-2.44948,2.12119-4.08172,5.13308,1.94812,7.73181,2.91262,13.01162,4.81465,3.04126-1.58615,4.55848-2.37866,7.59635-3.96256.40527-3.04977.60733-4.57634,1.02051-7.643-3.6847-.40805-5.509-.61714-9.1305-1.04319-.62539-3.04077-.92907-4.56734-1.51046-7.63846,1.1481-.69471,1.72158-1.04319,2.87191-1.74016-1.26776-2.1617-1.8909-3.24761-3.11236-5.43178,4.0516-7.08315,6.08136-10.64777,10.41971-17.99621,1.41.534,2.12005.79926,3.54809,1.32872.25174,3.35328.40527,5.01251.7496,8.304,1.27564.73743,1.918,1.1039,3.21283,1.83457.73941-.73743,1.10968-1.10839,1.85364-1.84918-.64572-3.66129-.94263-5.50937-1.46643-9.25047,6.17392-3.83778,9.32578-5.796,15.93546-9.88447,1.93267.3215,2.90805.48113,4.8757.79251.96747-1.657,1.46078-2.49107,2.46777-4.1784,7.30167-1.94137,11.07556-2.96321,19.00153-5.16538.4143,1.02408.62539,1.53444,1.05551,2.54841,4.14529-.03935,6.21683-.07083,11.3183-.29115,6.32519,1.46361,9.976,2.10549,17.648,3.3263,3.92965,3.87487,5.98764,5.76678,10.14761,9.4899,8.92053-.824,13.67542-1.28263,23.10394-2.12348-.36123,2.95534-.52832,4.4167-.83764,7.31359,3.52554-.52384,5.299-.78465,8.83359-1.29388.8941-3.11384,1.35693-4.68537,2.31085-7.861,5.7269,2.9857,8.55365,4.47068,13.98361,7.4631,3.3754-4.49427,5.09244-6.75827,8.48477-11.32336-.99457-1.46924-1.49692-2.20779-2.50952-3.69052,8.24655-1.79973,12.24173-2.6417,19.40341-4.07384C486.09024,7.1588,488.52188,6.05491,492.78006,4c9.32126,1.40629,13.74878,2.14484,22.99783,3.70963-.22918,1.558-.34546,2.33257-.58026,3.87375,5.23468,2.57426,7.85486,3.86925,13.10535,6.48623.40979,1.37481.61523,2.06165,1.0216,3.4286-5.63995,1.02745-8.452,1.54792-14.05242,2.62034-1.64368,2.13585-2.46778,3.197-4.116,5.30814,2.99161.12815,4.49069.2001,7.497.3541,1.20227-1.159,1.80279-1.74015,3.00506-2.90587,1.31971.18323,1.98011.27653,3.30207.46426.51135,2.36068.76422,3.53539,1.26886,5.87471,4.40832-1.63449,6.61755-2.44836,11.04058-4.08509,4.48395,1.83233,6.73047,2.76086,11.23023,4.64041-6.46857,5.66224-9.71979,8.422-16.2132,13.88525-3.81677,8.38826-5.74945,12.48571-9.58429,20.666,1.60871.92627,2.41584,1.39392,4.03015,2.33255-.27655,1.41416-.4143,2.12011-.68975,3.532-3.40924.04609-5.10938.07869-8.49494.16637,3.31671,4.72135,4.98523,7.10338,8.35157,11.93264-2.61341,3.99291-3.91272,5.99048-6.48212,10.02274-1.87848.34286-2.81433.51823-4.68152.87795-2.295,2.69342-3.43408,4.04911-5.69074,6.79425C510.2655,108.24956,510.88638,110.40451,512.15637,114.77065ZM1279.5,149.52c-2.46.09-3.69995.13-6.17993.23-5.38013-2.12-8.09009-3.19-13.54-5.33-2.59009.27-3.89.41-6.48.68-2.52-1.64-3.78-2.46-6.30005-4.11-2.18994.58-3.29.87-5.49,1.45,3.73,3.61,5.6,5.41,9.34,8.97-3.0199,2.47-4.5199,3.7-7.52991,6.16,6.02,5.26,9.04993,7.86,15.02,13.01,0,0-2.38013,3.59-2.82007,4.41s-7.48-2.57-7.48-2.57-21.28,13.88-22.24,15.74c-.96,1.85-10.62012-3.67-10.62012-3.67-8.37988,1.19-12.54993,1.79-20.78992,3.06-.6,4.09-.89,6.12-1.44006,10.18,3.67,4.64,5.54,6.95,9.30005,11.54-6.02,10.06-8.96,15.1-14.63,25.27-3.01,1.12-4.52,1.69-7.5,2.84-5.28992-10.66-10.28992-21.54-14.87-32.51q11.90991-14.13,24.11-27.95c-6.13.05-9.16.08-15.11.17005-1.47-1.6-2.17993-2.4-3.65991-4-3.34009-.7-5.09009-1.04-8.70008-1.69-3.78,4.36-5.65,6.55-9.37,10.94,1.90991,2.35,2.84,3.53,4.61,5.87994-5.24-.23-7.97009-.31-13.54992-.43994-6.17017-1.82-9.40015-2.71-15.99-4.45-11.70008.4-17.70008.7-29.22009,1.38-9.27,8.77-13.63,13.21-21.79993,22.25,2.04993,2.22,3.08,3.33,5.10986,5.54,12.23,1.6,18.68006,2.43,31.05005,4.27a268.52,268.52,0,0,1,15.28,24.61c-2.30005.12-3.46.19-5.80005.33,2.59009,5.89,3.80005,8.84,6.11011,14.72-5.27-.32-7.98-.45-13.47009-.69-.27991-8.99-.44007-13.47-.89-22.43-2.80994-1.68-4.24-2.52-7.12988-4.2,1.16992,4.84,1.72,7.25,2.7699,12.08-2.73,5.67-4.04993,8.52-6.65,14.27-5.19995,4.31-7.74,6.5-12.71,10.94-1.8999,1.81-2.84,2.72-4.69995,4.54-5.56006.12-8.33008.2-13.76.37-1.26,2.87-1.88,4.31-3.1001,7.2-2.69995,2.28-4.02,3.43-6.62988,5.75,2.29993,2.73,3.44995,4.1,5.73,6.83.87,4.68,1.30005,7.02,2.13989,11.73-5.46,1.13-8.1499,1.72-13.3999,2.91.61-4.83.92993-7.23,1.56006-12-3.2301-.56-4.82007-.84-7.97009-1.38995-1.27991-3.45-1.92-5.18006-3.21-8.63-4.03.84-6,1.26-9.80993,2.13-1.14014-2.47-1.70008-3.71-2.81006-6.17005-3.81006,2.92005-5.67,4.37-9.53,7.29,1.44995,1.45,2.16992,2.17,3.62,3.61,4.84.31,7.39.47,12.64.79.96,1.27,1.44995,1.9,2.41992,3.17-5.03992,2.78-7.46,4.18994-12.15991,7.04,3.47,4.58,5.26,6.88,8.88,11.47,1.24,5.14,1.87,7.71,3.12,12.89-3.76,7-5.57007,10.54-9.14,17.73-4.38,3.18-6.53,4.79-10.81,8.04-7.73,2.12-11.58,3.18-19.09,5.42-1.65,4.13-2.43,6.23-3.91,10.47-2.16-.52-3.23-.78-5.38-1.3.49-3.29.76-4.93,1.33-8.17-2.86005-.35-4.28-.52-7.11005-.85-2.05,3.2-3.05,4.82-5.01,8.09,4.62,5.06,6.98,7.59,11.78,12.64.28,6.4.49,9.63,1.01,16.14-3.11,1.9-4.65,2.86-7.73,4.8-2.96,2.63-4.43,3.96-7.35,6.63-.59-1.75-.88-2.63-1.45-4.38-5.68-4.23-8.48-6.35-14.02-10.59-1.08,3.47-1.61,5.22-2.64,8.74,1.78,4.12,2.69,6.19,4.55,10.32995,3.54,3.07,5.33,4.61005,8.94,7.68,2.09,10.18,3.24,15.32,5.68,25.64,2.89,2.11,4.35,3.17,7.28,5.27,0,0-.86,8.78-.79,9.68.06.91,7.45,1.59,7.45,1.59,1.33,2.01,2,3.02,3.34,5.02,0,0,8.97-2.14,10.73-2.2,1.77-.07,9.4,5.58,9.4,5.58-.56,1.58-.84,2.37-1.4,3.96-12.38-2.51-18.53-3.85-30.74-6.62-.24-1.57-.36-2.36005-.59-3.93-3.23-.88-4.84-1.32-8.06-2.21-3.51-3.56-5.25-5.34-8.69-8.92-4.11-7.34-6.11-11.02-10.01-18.35-4.61005-4.29-6.88-6.44-11.38-10.75-.03-1.93-.04-2.89-.06-4.81,0,0,14.01,5.6,15.16,5.89,1.14.29,2.75,6.28,2.75,6.28,2.29.1,3.43.14,5.73.24-1.63-3.7-2.43-5.55-4-9.24-4.21-4.99-6.29-7.48-10.37-12.46.66-5.58,1.01-8.35,1.77-13.84-3.03-6.93-4.49-10.38-7.31-17.23-2.18,1.24-3.27,1.86-5.45,3.11-1.74-1.19-2.61-1.78-4.35-2.96.31-1.74.46-2.6.78-4.33-3.86-7.33-5.6-11.02-9.4-18.21-3.69-.41-5.53-.62-9.24-1.03-9.1,7.87-13.79,12.02-22.94995,20.42-2.94,10.28-4.34,15.5-7.1,26.08-4.4,3.7-6.61,5.57-11.06,9.35-5.78-14.08-11.49-28.18-17.3-42.25.3-3.69.45-5.53.77-9.19-4.27.39-6.42.59-10.76,1.01-6.12-6.67-9.35-9.99-15.62-16.57-6.59-.18-9.87-.32-16.42-.66-11.24-2.81-22.44-5.88-33.56006-9.13-6.15-5.34-9.22-8.01-15.37994-13.33-1.33,1.28-1.99,1.92-3.31,3.21,5.26,8.28,7.88,12.46,13.16,20.93,4.1.83,6.15,1.24,10.26,2.04,1.86-2.28,2.79-3.41,4.66-5.67,2.51,2.7,3.77,4.04,6.29,6.74,3,.47,4.5.7,7.5,1.14,1.79,2.31,2.68,3.46,4.48,5.76-2.99,5.07-4.45,7.62-7.39,12.74-7.28,3.3-10.91,4.92-18.13,8.12-2.08,2.72-3.12,4.09-5.2,6.82-11.81,3.21-17.68,4.74-29.37,7.78-2.56-6.1-3.85-9.13-6.42-15.14-5.87-7.75-8.81-11.61-14.71-19.19995-1.13995-4.2-1.72-6.27-2.86-10.39-5.02-8.21-7.54-12.25-12.6-20.23-2.28.99-3.42,1.48-5.69,2.47,2.29,4.1,3.43,6.15,5.7,10.31,2.11.63,3.16.94,5.26,1.58-.92,2.39-1.38995,3.59-2.3,6q7.45506,14.745,14.53,29.69c6.64,6.49,9.96,9.76,16.59,16.29,1.05,2.6,1.57,3.9,2.62,6.5,10.03-1.68,15.07-2.53,25.18-4.36,1.44,2.08,2.15,3.12,3.58,5.2-4.11,8.97-6.15,13.5-10.21,22.64q-18.975,18.48-37.52,37.38c-.38,8.82-.57,13.25-.94,22.12,1.54,2.35,2.31,3.53,3.85,5.88-.72,8.32-1.08,12.48-1.79,20.81-8.38,6.14-12.54,9.2-20.81,15.27.57,3.36.86,5.03,1.43,8.38-.26,3.82-.39,5.73-.64,9.53-3.71,3.31-5.55,4.96-9.23,8.24-.01,3.13995-.01,4.72-.01,7.85-7.88,8.87-15.82,17.69-23.73,26.54,0,0-11.98-.68-12.85-.75C674.59,580.4,666.74,584,666.74,584c-2.7-1.8-4.05-2.7-6.76-4.47-1.49-8.16-2.27-11.98-3.79-19.98-2.65-4.39-3.98-6.59-6.64-10.99-1.42-8.31-2.12-12.5-3.53-20.95-3.78-7.94-5.68-11.93-9.49-19.88.87994-5.75,1.33-8.63995,2.22-14.42,2.35-4.66,3.52-7,5.89-11.68-1.65-9.64-2.47-14.46-4.12-24.04-5.27-7.45-7.92-11.14-13.26-18.4.9-7.58,1.35-11.36,2.27-18.86-2.73-3-4.1-4.49-6.85-7.44-2.95.65-4.42.98-7.38,1.63-2.76-3.57-4.14-5.34-6.92-8.85-4.58.32-6.87.48-11.46.83-3.94,1.98-5.91,2.97-9.84,4.95-4.24-.53-6.36005-.79-10.61005-1.3-5.43994,1.65-8.16,2.48-13.6,4.13-6.85-3.92-10.29-5.86005-17.2-9.68-.74-3.41-1.11-5.11-1.85-8.5-4.39-3.37-6.58-5.04-10.99-8.35-2.27.22-3.4.33-5.67.54q1.095-16.77,2.34-33.52c-1.2-1.67-1.8-2.51-3-4.17,5.67-9.88,8.47-14.87,14.06-24.79,4.6-3.39,6.9-5.07,11.51-8.42.71-4.53,1.06-6.8,1.76-11.32,4.63995-3.08,6.97-4.61,11.63995-7.62.93005-2.55,1.4-3.81,2.33-6.34-1.75-1.2-2.62-1.8-4.37-3.01-3.84-1.02-5.76-1.54-9.6-2.56.68-11.71,1.01-17.53,1.67-29.08,10.24.02,15.39.08,25.63.21.97-2.32,1.46-3.48,2.43-5.79-2.54-3.54-3.83-5.32-6.41-8.88-2.57-.48-3.86-.72-6.44-1.19.11-3.22.16-4.82.27-8.02-2.21-.81-3.31-1.22-5.52-2.03,1.82-1.41,2.73-2.11,4.56-3.5.19995-4.06.3-6.09.51-10.13,2.76-2.21,4.13995-3.3,6.93-5.46-2.13-1.49-3.2-2.24-5.33-3.75-2.65,2.18-3.97,3.27-6.59,5.48-.28,2.41-.42,3.61-.7,6.02-3.32,1.67-4.97,2.52-8.27,4.23-3.73-1.07-5.6-1.61-9.34-2.67.64-2.67.96-4.01,1.61005-6.66-.14-2.12-.21-3.18-.35-5.29,4.98-3.42,7.5-5.1,12.56-8.38-.62-3.74-.94-5.6-1.56-9.33,4.23-1.32,6.35-1.96,10.62-3.22,2.9,2.42,4.35,3.63,7.24,6.04.28,3.24.43005,4.86.71,8.1,4.16,3.32,6.22,4.98,10.33,8.26-.48,1.91-.72,2.87-1.19,4.79,2.08.62,3.11.93,5.18,1.54-.31,2.78-.46,4.17-.77,6.96,2.69-.78,4.03-1.16,6.72-1.94,2.22-2.6,3.34-3.9,5.58-6.48,4.57-1.54,6.86005-2.31,11.43006-3.86-.22-4.32-.33-6.47-.56-10.78,2.68994-1.88995,4.03-2.83,6.72-4.72,1.79,1.62,2.68,2.42,4.46,4.03-.52,1.86-.78,2.79-1.29,4.66,2.16.16,3.24.23,5.38.37.79-1.34,1.18-2.01,1.97-3.34-2.99-4.63-4.5-6.95-7.56-11.61-5.4,1.91-8.12,2.84-13.56,4.7-2.78-1.8-4.18005-2.7-7-4.53-1.41-6.47-2.13-9.71-3.57-16.17,8.9-6.54,13.39-9.75,22.28-16.37,4.21-5.8,6.31-8.69,10.5-14.57-.59-3.31-.87-4.94-1.48-8.28,10.52-5.04,20.74-10.67,31.2-15.82,7.99.89,12.02,1.4,20.12,2.48.97,1.7,1.45,2.54,2.41,4.23,6.55,1.37,9.84,2.09,16.42,3.56,0,0,18.8,8.6,20.87994,9.52s4.22,9.11,4.22,9.11c1.99-.69,2.99-1.03,4.98-1.72-.2-4.98-.3-7.48-.53-12.47,2.84,0,4.26,0,7.1.01,2.37,3.92,3.55,5.87,5.89,9.79,6.39-3.53,9.6-5.27,16.04-8.76,10.54-.74,15.81-1.08,26.28-1.76-2.95-2.05-4.43-3.07-7.41-5.12-.01-1.98-.01-2.98-.02-4.96q16.34994,4.485,32.67,9.13c-3.5-4.5-5.27-6.76-8.85-11.3,1.63995-6.65,2.45-9.99,4.05-16.73,3.24.11,4.86.17,8.07.28,5.77,11.09,8.55,16.55,13.95,27.33,1.96,6.72,2.92,10.05,4.79,16.67.94-6.47,1.4-9.72,2.29-16.25-4.42-7.35-6.68-11.07-11.31-18.58,4.13-3.17,6.18-4.75,10.27-7.94,5.56,2.37,8.3,3.55,13.72,5.87,1.4-.7,2.1-1.06,3.49-1.76-4.1-4.82-6.19-7.26-10.42-12.18,6.67-1.97,9.98-2.96,16.49-4.96-3.15-2.15-4.73-3.23-7.94-5.4,8.32-7.1,12.41-10.68,20.34-17.94,3.04,1,4.49,1.41,7.44,2.34,2.28-2.42,3.41-3.63,5.65-6.06-.15-6.08-.25-9.15-.48-15.38,2.74-.06,4.09-.08,6.79-.13C892.08,53.45,893,54.67,894.83,57.09c2.84,1.53,4.25,2.29,7.06,3.8,3.19-1.31,4.78-1.96,7.93-3.26,5.82,5.08,8.69,7.58,14.38,12.54-3.89,8.4-5.87,12.56-9.9,20.82,2.53.87,3.8,1.31,6.32,2.18,1.96-2.74,2.94-4.12,4.89-6.87,8.6-.69,12.86-1.02,21.43-1.59,3.58,2.19,5.37,3.29,8.97,5.47,2.33-1.38,3.49-2.07,5.83-3.43.16-2.16.24-3.24.38-5.4,6.5,1.56,9.77,2.35,16.39,3.96,1.16,3.86,1.74,5.77,2.88,9.57,5.67,3.08,8.53,4.62,14.33,7.71-.26-2.64-.38995-3.96-.66-6.62006,8.87-.78,13.38-1.12,22.72-1.68-1.98-2.7-2.96-4.05-4.93005-6.78.99-2.46,1.48-3.7,2.47-6.17,11.02.55,16.68994.9,28.59985,1.75,0,0,2.65015,5.44,2.90015,6.48.25,1.03,21.53991,6.67,21.53991,6.67,9.18006-.51,14.57-.72,26.1-1.05,9.87012,4.64,15.11011,6.96,25.28,11.63q21.045-1.56,42.11-2.56a220.4291,220.4291,0,0,1,22.55994,11.23c1.26-.82,1.89014-1.23,3.13013-2.05a118.51156,118.51156,0,0,0-9.78-10.5c13.11,1.63,18.98,2.56,28.55005,4.44,16.44995,7.03,33.03,13.76,49.6499,20.39,3.30005-.86,4.94995-1.29,8.24-2.14,5.73,2.4,8.59009,3.59,14.26,5.97-.11987,2.31-.17993,3.47-.30005,5.76-1.77991.87-2.66992,1.3-4.44995,2.16C1276.04,143.55,1277.2,145.55,1279.5,149.52ZM631.44,211.74c2.41.52,3.61.78,5.99,1.28,4.48-2.2,6.71-3.33,11.14-5.59,5.3-.13,7.96-.16,13.3-.18.73-4.7,1.09-7.05,1.83-11.73,1.78-2.81,2.67-4.21,4.47-7.01,7.2-.57,10.83-.81,18.11005-1.22-.5-2.22-.75-3.34-1.25-5.56-8.13,1.29-12.17,1.98-20.17,3.46-2.99-5.55-4.49-8.31-7.52-13.81,3.83-4.88,5.76-7.3,9.67-12.13-1.08-2.42-1.61-3.63-2.69-6.05-7.7,9.07-11.43,13.71-18.91,22.9,2.85,3.83,4.25,5.72,7.07,9.56-2.46,2.28-3.69,3.43-6.13,5.74,0,0,.47,9.13.47,9.65S631.44,211.74,631.44,211.74Zm94.42,82.27c-1.99-1.36-2.99-2.05-4.98-3.4-3.09.9-4.63,1.34-7.71,2.25-8.21-1.76-12.32-2.62-20.55-4.25-2.74-2.9-4.12-4.34-6.88-7.2.07-4.16.1-6.23.17-10.35-4.24.79-6.36,1.2-10.58,2.04.49,1.86.73,2.8,1.22,4.67,2.03.61,3.05.92,5.08,1.55-3.48,2.81-5.21,4.23-8.66,7.09-4.04-2.87-6.06-4.29-10.11-7.09.77-1.4,1.16-2.1,1.93-3.5-3.78-5.84-5.68-8.72-9.5-14.43-4.98-.88-7.45-1.28-12.45-2.08-2.71-3.07-4.07-4.61-6.81-7.68-.24,2.56-.36005,3.84-.61005,6.41,7.67,5.52,11.4,8.19,18.89,13.85-1.66,4.32-2.49,6.5-4.14,10.86-4.68,1.2-7.02,1.85-11.73,3.11-.77-2.61-1.16-3.92-1.94-6.52,2.43-1.01,3.64-1.51,6.06-2.52-1.16-3.24-1.74-4.85-2.9-8.07-4.24-1.36-6.37-2.05-10.65-3.42-2.11-3.55-3.17-5.32-5.31-8.87-5.06,2.47-7.6,3.71-12.67,6.2-3.15-.43-4.74-.65-7.91-1.09-4.88,5.12-7.3,7.71-12.12,12.97-.02,3.55-.03,5.32-.05,8.89-7.62,2.57-11.42,3.88-19,6.57.32,1.47.48,2.2.8,3.67,5.05-.49,7.58-.72,12.63-1.18,0,0,13.14-6.39,14.44-6.41,1.29-.02,29.03-1.47,29.03-1.47,1.57,3.48,2.35,5.23,3.9,8.73-1.9,2.01-2.85,3.01-4.74,5.03,7.4,1.89,11.08,2.84,18.38,4.77,6.68,3.33,10.01,5.06,16.65,8.6,1.27-3.81,1.91-5.7,3.19-9.46,3.52-.24,5.29-.35,8.82-.56006,10.56,3.18,15.84,4.86005,26.34,8.34,2.91-.73,4.36-1.09,7.28-1.81,3.63.92,5.45,1.38,9.08,2.32C720.95,303.87,722.57,300.56,725.86,294.01Zm16.76-24.31c-6.55-6.01-9.85-9-16.5-14.92-5.37.59-8.05.9-13.4,1.53-3.52-3.44-5.28-5.15-8.83-8.54-4.75,6.02-7.09,9.05-11.73,15.19,3.17,2.41,4.75,3.63,7.91,6.08,6.09-1.94,9.15-2.89,15.29-4.77,6.4,2.13995,9.58,3.23,15.95,5.42C735.83,269.69,738.09,269.69,742.62,269.7Zm49.39,17.7q-9-14.205-18.23-28.27c1.9-2.85,2.86-4.27,4.78-7.1-5.07,1.31995-7.6,1.98-12.66,3.3,2.2,5.93,3.3,8.91,5.47,14.9,2.42,2.44,3.62,3.67,6.03,6.12-1.14,3.39-1.71,5.09-2.83,8.52,4.42,3.06,6.62,4.58,11.01,7.62,2.55993-2.04,3.84991-3.06,6.42993-5.09ZM611.16467,67.35691c-.2597-6.15484-.39123-9.24733-.66467-15.47514,6.02759-.212,9.02936-.33473,14.994-.637,3.49139-2.8562,5.23022-4.30515,8.69189-7.24474,9.33478.80381,13.87519,1.05283,23.31409,1.90992-2.22162,3.48976-3.32782,5.22942-5.52649,8.70412-4.77838,1.60647-7.11206,2.46356-11.847,4.06308,0,0,5.29657,2.96392,6.70709,3.49323,1.41052.53047,6.5332,13.12625,6.5332,13.12625-4.084-.3-6.09619-.40886-10.14587-.69842-.8877-2.94539-1.33387-4.42212-2.22956-7.38257-1.676.12394-2.51788.18184-4.20294.29419-1.99054,6.25445-2.99267,9.34926-5.00372,15.4902C623.6225,76.8162,619.479,73.65538,611.16467,67.35691ZM713.4,44c-4.75793-2.57547-7.13977-3.85559-11.9-6.394,1.91888-1.648,2.88116-2.47315,4.808-4.12554,2.38868,1.06676,3.583,1.60232,5.97278,2.681,1.489-1.6611,2.234-2.49274,3.72632-4.16146,1.79944,1.60341,2.698,2.40457,4.49292,4.00907C717.653,39.22025,716.2323,40.81821,713.4,44Zm15.34034-20.82486c1.95959.22352,2.93939.3364,4.899.56443,2.408,4.599,3.60175,6.88717,5.96875,11.44438,4.70215-5.22662,7.0589-7.86025,11.76557-13.184,1.6535,1.03516,2.47851,1.55444,4.12634,2.59186-1.99829,4.80217-3.00085,7.18068-5.01282,11.89931C746.55432,38.698,744.589,39.79868,740.66638,42c0,0-13.85266-.86809-14.97473-.93244S728.74036,23.17514,728.74036,23.17514ZM755.554,99.56594c4.1029-7.43343,6.16174-11.17313,10.27606-18.733,8.398-4.32927,12.60773-6.491,20.98974-10.83295,2.68757,2.2629,4.02332,3.39379,6.68018,5.65208-9.0437,6.56114-13.59113,9.81241-22.6496,16.2954,0,0-6.45392,20.48216-6.49481,21.2809-.04211.79989,9.96112,8.64591,9.96112,8.64591-.84241,2.05373-1.26306,3.07888-2.10431,5.12571-8.215-3.83394-12.36444-5.74746-20.7124-9.53429C753.128,110.35062,753.9397,106.77527,755.554,99.56594ZM873.20142,51c-1.42981-6.70415-2.16681-10.09831-3.70142-17,5.293,2.01023,7.85107,2.95306,12.93335,4.869.83246,2.036,1.24579,3.04846,2.06665,5.06431C880.03949,46.75954,877.78186,48.17377,873.20142,51ZM837.47473,35.9626c-1.17956-2.82662-1.77453-4.24622-2.97473-7.10027.439-5.87384.64539-8.84448,1.02136-14.86233,1.83759.32,2.75354.4812,4.57508.80352,3.72326,4.52854,5.55969,6.77909,9.17987,11.24705,3.99035.57492,5.96667.8641,9.87225,1.44474C862.13593,32.3736,863.60663,34.791,866.5,39.579c-1.24146,1.37273-1.86621,2.05624-3.12262,3.421C853.3045,40.18938,848.10474,38.77093,837.47473,35.9626ZM982.6651,60.99348c-1.25549-3.95914-1.88788-5.95233-3.1651-9.97423,4.14618.47609,6.23529.72242,10.45581,1.23286.19208-1.298.28815-1.94937.478-3.25211,5.44629,1.18549,8.20086,1.78949,13.80157,3.02709.51111,2.40533.7627,3.60148,1.26465,5.98668C1000.04,60.759,997.35742,62.15884,992.0506,65,988.26691,63.39289,986.39166,62.59112,982.6651,60.99348Zm29.5061-3.38648c-.66644-1.72968-1.00024-2.59727-1.6712-4.339,2.86444-.1175,4.30969-.17132,7.22754-.268,3.0813,1.45074,4.63556,2.17665,7.77246,3.63179-.906,1.3475-1.359,2.02071-2.2616,3.36821C1018.74933,59.027,1016.53882,58.54816,1012.1712,57.607ZM1005.5,72.68874c.97955-1.0764,1.46985-1.61347,2.454-2.68874,3.38776,1.47214,5.0954,2.21046,8.546,3.69165-.63208,1.324-.94751,1.98546-1.57959,3.30835-3.12378-.39912-4.67133-.59361-7.73907-.97351C1006.50928,74.69456,1006.17322,74.02746,1005.5,72.68874Zm-226,429.95555c-1.4549,4.9696-2.179,7.45779-3.62128,12.43078.59479,1.33338.89215,1.99774,1.4881,3.32886-1.86554.74921-2.79663,1.12207-4.65643,1.86334-3.36279,9.93012-5.0293,14.89637-8.33264,24.77454-3.79627.40222-5.68927.5932-9.46613.95819-1.766-5.46338-2.64789-8.20581-4.41162-13.70312,2.36084-4.113,3.54578-6.17414,5.92377-10.30188-.79492-4.53119-1.19184-6.80018-1.98334-11.3415,4.5603-2.2995,6.8479-3.45883,11.43915-5.79446,3.90039-5.1391,5.85858-7.71091,9.79437-12.859C777.20209,496.26337,777.96729,498.39334,779.5,502.64429ZM897.998,404c1.39532,2.48883,2.09552,3.73538,3.502,6.23166-.46307,2.30075-.693,3.45483-1.15,5.76834-1.98462-.0744-2.97791-.11157-4.97168-.18173-.35926-3.10733-.53534-4.65674-.8783-7.74707C895.90143,406.43677,896.60059,405.62167,897.998,404ZM536.5,151.988c-6.83942,3.05867-10.22137,4.65123-16.87805,8.012-5.03626-1.00725-7.53974-1.48065-12.50269-2.33792-2.26327-4.79782-3.38983-7.1794-5.61926-11.8877,1.91031-1.127,2.87-1.68208,4.8017-2.77438,2.17077,1.10349,3.26013,1.6653,5.44558,2.80461,7.15744-1.27807,10.792-1.81752,18.12754-2.77327C532.52039,146.59473,533.84656,148.38762,536.5,151.988Zm632.99243,380.50882c.43115,4.58557.63611,6.86364,1.00757,11.38354-2.91028,6.24854-4.42224,9.3479-7.08374,15.73236-5.87219,5.32648-8.73975,8.03272-14.39807,13.47248-2.81348,6.75488-4.15881,10.15667-6.863,16.91723-2.76611.36933-4.13965.554-6.863.93-4.02258,2.75159-6.01416,4.13019-9.9331,6.9101-2.19422-1.88159-3.27844-2.8241-5.42542-4.71472-2.52063,1.93939-3.76587,2.91357-6.21557,4.87219-4.68567-1.56213-7.03308-2.31885-11.61511-3.9433.22619-2.72552.33544-4.09167.546-6.83307-1.49744-2.79577-2.24268-4.20495-3.72205-7.04718,0,0-5.08423.83148-5.69324.7273-.608-.10309,1.85645-7.139,1.85645-7.139-2.97559,2.038-4.42444,3.05518-7.29077,5.09424-.85791-3.47547-1.28919-5.22449-2.16614-8.74182-3.55982-2.17389-5.29028-3.2829-8.70032-5.53717-7.50366,1.6369-11.05,2.43554-18.3645,4.10754-2.82129,2.68817-4.2522,4.04187-7.18945,6.77307-5.40625,1.19849-8.14539,1.8136-13.90735,3.1084-4.23755,2.8728-6.46216,4.36017-11.04212,7.259-3.21869-2.14325-4.841-3.22961-8.11261-5.4295,1.83393-2.48084,2.73914-3.72241,4.52015-6.20892-2.17621-12.78028-4.68006-25.38837-7.337-38.07807,1.92291-4.46435,2.86859-6.69482,4.73633-11.14563,10.6571-4.22534,15.7052-6.30066,25.295-10.125,1.45679-4.66943,2.17957-6.995,3.64649-11.62143,2.02087-1.03653,3.02966-1.55081,5.05493-2.57147.41553-1.89291.62378-2.83881,1.0459-4.726,2.52868-2.11835,3.79968-3.17072,6.38342-5.25962,4.59448.79523,6.90015,1.19171,11.62646,1.96314,1.30249-3.41086,1.969-5.11121,3.338-8.49716,3.28064-1.60178,4.95813-2.39927,8.411-3.98972,6.69983,1.05689,9.84314,1.55759,17.53247,2.5069-2.2843,4.45758-3.24353,6.70166-5.28345,11.20227,5.91846,3.8674,9.189,5.73541,15.72656,9.53821,2.78638-.2526,4.19483-.37268,7.03528-.60492,2.17066-9.56424,3.30432-14.32883,5.70337-23.77982,1.82275-.00226,2.738-.00113,4.57764.00116,1.21594,4.19928,1.82947,6.295,3.05664,10.46936,2.47119.921,3.71069,1.37976,6.19653,2.29508,1.79114,6.7243,2.69068,10.07061,4.46387,16.71,4.22522,2.38568,6.33948,3.56607,10.54675,5.88833.84326,2.49555,1.26209,3.73822,2.0918,6.21228,2.02527-.21746,3.04077-.32623,5.07178-.54486,3.158,5.0647,4.71154,7.5614,7.73559,12.46418Zm-41.83459,75.62384c.33691,1.403.50537,2.10272.84216,3.49658-1.66516,2.80481-2.49829,4.20209-4.168,6.9909-2.54431,1.34833-3.8042,2.02649-6.28345,3.39191-1.84143-2.29846-2.751-3.45337-4.54858-5.77569.87463-3.27472,1.30591-4.92115,2.1615-8.22431.88025.04547,11.99634.12055,11.99634.12055Zm114.85522-8.09619c.391,2.04559.58923,3.062.98694,5.08074-2.01208,1.38044-3.04187,2.06073-5.14062,3.39924-.29639,2.02929-.44849,3.03521-.76844,5.03192-2.30053,1.49084-3.47558,2.22467-5.87292,3.669-2.9585,3.93061-4.50757,5.85523-7.7533,9.62079-2.75683,2.50952-4.17627,3.74341-7.09192,6.17389-5.312-.39075-7.9978-.62683-13.3728-1.15478,1.66174-2.73517,2.46619-4.12134,4.02759-6.92749,7.644-4.6272,11.319-7.01117,18.24084-11.98847,4.08509-5.0517,6.0138-7.64032,9.68872-12.92926,2.86158.04181,4.27552.04761,7.05591.02435Zm13.38635-20.96808c2.72083-.40985,4.04346-.63745,6.60059-1.14576A176.44178,176.44178,0,0,1,1248.13989,602c-2.29382-3.82452-3.43432-5.78094-5.63989-9.72546,2.59949-3.50519,3.85229-5.28388,6.28455-8.8808,0,0-3.79847-14.39008-4.17066-15.49054,1.16577-.75519,1.74182-1.13556,2.88245-1.9032,3.14111,5.23065,4.85193,7.86981,8.40307,13.05634ZM1155.13782,461.01569c-.24793,1.54544-.37024,2.31817-.61255,3.86581,5.19665,4.10056,7.803,6.12979,12.97473,10.1185-5.42761-.56793-8.146-.8613-13.55664-1.45135-2.79541-2.37021-4.1947-3.5636-6.9856-5.96149-3.41577-.47937-5.11743-.7207-8.50256-1.19672-2.65161,1.95395-3.96606,2.94034-6.56665,4.92972-9.80127-1.99161-14.6333-2.98685-23.8855-4.84781,2.48743-2.83627,3.75318-4.23892,6.32776-7.01761-12.16406-3.009-17.71741-4.353-28.17078-7.38739-.11889-2.30377-.17431-3.454-.27856-5.75226-1.765-1.489-2.64014-2.23626-4.38147-3.733,2.00171-1.841,3.01953-2.75766,5.09485-4.58209,2.74316,1.06943,4.13013,1.6019,6.9447,2.65582.20947,2.82077.32044,4.23337.55359,7.06079,1.74927,1.20008,2.63013,1.79789,4.41211,2.988,3.91052-2.88275,6.02429-4.32635,10.31079-7.12057q18.54639,5.93,37.13306,11.72592C1149.615,457.606,1151.45593,458.74844,1155.13782,461.01569ZM1178.88708,453c1.85022,1.5881,2.77369,2.37711,4.61292,3.945-2.43835.39953-3.66077.5982-6.10571.99438-.33435.96295-.501,1.44556-.83411,2.4119-4.56445.65881-6.85266.98654-11.41382,1.64871-2.65674-1.15714-3.98742-1.74075-6.64636-2.91245,4.87219-.74749,7.32275-1.11337,12.21924-1.84625C1173.97839,455.53311,1175.61462,454.68576,1178.88708,453ZM1032.5,418.431c-1.951,2.29858-2.91528,3.45752-4.83118,5.79126,1.8512,3.939,2.78919,5.91251,4.67212,9.86056-3.79089,7.83274-5.58972,11.81592-9.17962,19.91715-7.94068-2.41983-11.90876-3.49381-19.72681-5.857-2.034-6.053-3.02429-9.07659-4.93451-15.10464,2.88916-.40106,4.33606-.60156,7.23541-1.00259C1013.22748,424.17923,1017.05133,420.31613,1025,413,1028.00159,415.17172,1029.50061,416.25815,1032.5,418.431Zm23.89783,18.40765c-6.87268.85776-10.22241,1.29688-16.94568,2.22193.13452,1.27975.203,1.91964.34094,3.20169,3.75464-.09009,5.62842-.13,9.40247-.20416-1.52149,1.371-2.27649,2.0588-3.77515,3.44238,2.41907,3.15378,3.62915,4.72784,6.04358,7.87137a73.36639,73.36639,0,0,0-5.43689,5.39511c-.51428.87942-1.924-4.52939-1.924-4.52939-1.63672,2.28125-2.44641,3.42868-4.05457,5.7373-1.09826.00913-1.64807.01368-2.74975.02509-1.12341-3.058-1.68335-4.58756-2.79883-7.64325,1.33435-6.89615,2.03577-10.31458,3.55615-17.08414,0,0,18.90625-4.13812,19.35791-4.27044.45044-.1323-1.01623,5.83654-1.01623,5.83654ZM1028.5,470.42789c5.07788-1.00943,7.55774-1.49146,12.52417-2.42789,3.76892.115,5.6394.17688,9.39709.30734,0,0,1.4126,1.97129,1.00489,2.11832-.40662.14593-9.24561,2.71423-9.24561,2.71423s1.30908,3.70151.76758,3.85739C1042.40674,477.1543,1028.5,470.42789,1028.5,470.42789ZM1065.61145,468c.35559,1.033.533,1.54956.88855,2.58258-4.95532,2.93-7.34717,4.41028-12.07971,7.41742a18.13507,18.13507,0,0,0-1.92029-2.73926c1.25781-1.94913,1.89185-2.91974,3.1759-4.853C1059.60168,469.43262,1061.57764,468.95242,1065.61145,468ZM1067.5,449.34329c4.704-.13684,7.09241-.203,12-.34329-.157,1.26761-.23438,1.90085-.38464,3.17194-3.4989.33053-5.21253.49636-8.59656.82806C1069.30811,451.5387,1068.705,450.80692,1067.5,449.34329Zm-2-15.06357c2.37683-.51413,3.57642-.77118,6-1.27972-1.24255,2.6366-1.84912,3.9588-3.03259,6.61777-1.058.1531-1.5846.22909-2.63526.38223C1065.69067,437.70764,1065.62427,436.56427,1065.5,434.27972Zm-32-55.39441c1.51514-3.99447,2.306-5.97177,3.9657-9.88531,2.42785.3848,3.64746.57776,6.10132.96591.26062,1.85086.39709,2.78018.68371,4.64325-.91162,2.06711-1.3573,3.1062-2.22717,5.1966,3.96228,3.69729,5.97168,5.55371,10.0321,9.26763,2.56336,1.07682,3.85279,1.61689,6.44434,2.6937-.58325,1.68784-.86877,2.534-1.42834,4.23291-2.58582-1.02246-3.87195-1.53369-6.433-2.55615-.92969-1.76218-1.39-2.64267-2.30383-4.39929-1.9845-1.32077-2.97278-1.9806-4.94043-3.29917-1.30078,2.83673-1.93262,4.26508-3.16126,7.14063C1037.45435,387.2547,1036.09717,384.45123,1033.5,378.88531Zm11,21.81571c.0896-2.28769.142-3.42813.26184-5.701,3.47705,2.08054,5.22376,3.122,8.73816,5.20252,0,0-3.86,3.897-4.65015,4.70852-.79126.81262-4.34985-4.21008-4.34985-4.21008ZM1059.243,403c1.293,2.30756,1.94531,3.463,3.257,5.77621-1.33606,3.26871-1.98145,4.9144-3.23254,8.22379-2.021-.227-3.02564-.34109-5.02906-.567-.83142-2.094-1.243-3.13995-2.06164-5.22952-1.81751.27561-2.72217.41565-4.52442.69577-1.67212.95554-2.50122,1.43671-4.15234,2.40244.57788-2.34482.87561-3.51273,1.4895-5.83948,2.79773-.58054,4.20349-.86856,7.04187-1.43671C1054.87671,405.4024,1056.31738,404.59711,1059.243,403Zm-19.79614-48c-1.58557-2.44864-2.375-3.67014-3.9469-6.10629,1.775-2.77475,2.67041-4.15305,4.47852-6.89371,1.40307.34543,2.10693.51813,3.52148.86469C1041.85168,347.67679,1041.04175,350.10385,1039.4469,355Zm98.09778-85.95642c.37549,1.67239.56616,2.51034.95532,4.18393-2.9353-.22431-4.53284-.37192-7.23315-.52417-1.66443,1.426-2.49732,2.14541-4.16175,3.59122-2.66748-.89838-4.02331-1.34467-6.76684-2.2291-1.99353,1.16336-2.98975,1.75024-4.981,2.93454-1.92883-.63339-2.90125-.94836-4.8573-1.57477.00342-2.02109.00562-3.031.01025-5.04745,2.96582-.22431,4.44422-.33,7.3783-.52994.63879-3.54938.96448-5.31824,1.62488-8.84784,3.97339,2.479,5.91015,3.72369,9.66113,6.22241C1132.4491,267.90579,1134.06824,268.27072,1137.54468,269.04358ZM1110.27051,294.573c1.891-5.88181,2.86914-8.79392,4.88391-14.573,2.361.41327,3.53247.62216,5.85412,1.04672,1.00171,3.6077,1.49646,5.41324,2.49146,9.02768-1.66394,2.26172-2.49036,3.39993-4.13293,5.69214-.18775,3.86853-.27088,5.80954-.40809,9.70856-8.11743,2.49319-12.24914,3.80755-20.37329,6.53222-3.86975-.54989-5.8092-.81863-9.67566-1.34936-2.73877,1.92975-4.0946,2.90536-6.77612,4.87012-.85559,2.17929-1.27832,3.27456-2.11365,5.47192-1.79663-.27325-2.69384-.40875-4.48144-.67862-.416-3.36493-.6228-5.03949-1.03882-8.38068,4.27454-3.96225,6.46472-5.91571,10.93372-9.76614,4.27124-.60413,6.42651-.89658,10.73925-1.46,1.38062-2.334,2.07886-3.49362,3.48865-5.80277C1103.91479,294.75592,1106.04309,294.68817,1110.27051,294.573Z"/>
  </defs>
  <use xlink:href="#svg-defs-map" class="uk-svg-default-background" fill="#fff"/>
  <use xlink:href="#svg-defs-map" class="uk-text-muted" fill="none" stroke="#ccc"/>
</svg>
