<svg xmlns="http://www.w3.org/2000/svg" width="80" height="80" viewBox="0 0 80 80">
    <polygon points="52.75 38.25 52.75 49.75 25.25 49.75 25.25 38.25 33.75 38.25 33.75 42.25 44.25 42.25 44.25 38.25 52.75 38.25" fill="#0045d4"/>
    <polygon points="28.25 35.75 28.25 26.25 33.75 26.25 33.75 30.25 44.25 30.25 44.25 26.25 49.75 26.25 49.75 35.75 28.25 35.75" fill="#0045d4"/>
    <rect x="36.25" y="26.25" width="5.5" height="1.5" fill="#0045d4"/>
    <rect x="36.25" y="38.25" width="5.5" height="1.5" fill="#0045d4"/>
    <path d="M0,0V80H80V0ZM22.75,35.75h3v-12h26.5v12h3v16.5H22.75ZM66,19.25H60.25v38H54.86A4.11,4.11,0,0,1,55.25,59a4.25,4.25,0,0,1-8.5,0,4.11,4.11,0,0,1,.39-1.75H31.86A4.11,4.11,0,0,1,32.25,59a4.25,4.25,0,0,1-8.5,0,4.11,4.11,0,0,1,.39-1.75H20v-2.5H57.75v-38H66Zm-15,38A1.75,1.75,0,1,0,52.75,59,1.76,1.76,0,0,0,51,57.25Zm-23,0A1.75,1.75,0,1,0,29.75,59,1.76,1.76,0,0,0,28,57.25Z" fill="#0045d4"/>
</svg>
