<svg xmlns="http://www.w3.org/2000/svg" width="80" height="80" viewBox="0 0 80 80">
    <path d="M60.82,29.92a1,1,0,0,1-.82-.85,7.84,7.84,0,0,0-.74-2.41,1,1,0,0,1,.18-1.15l1.29-1.31-1.12-1.34L58.1,23.91a1,1,0,0,1-1.16,0,8.14,8.14,0,0,0-2.25-1.16,1,1,0,0,1-.68-.95V20l-1.81-.14-.33,1.84a1,1,0,0,1-.84.81,7.86,7.86,0,0,0-2.41.75A1,1,0,0,1,47.48,23l-1.33-1.29L44.82,22.9l1.08,1.54a1,1,0,0,1,0,1.17,7.5,7.5,0,0,0-1.15,2.23,1,1,0,0,1-1,.7H41.94l-.14,1.71,1.83.32a1,1,0,0,1,.82.85,7.6,7.6,0,0,0,.75,2.38A1,1,0,0,1,45,35l-1.28,1.3,1.12,1.31,1.52-1.06a1,1,0,0,1,1.17,0,7.8,7.8,0,0,0,2.24,1.15,1,1,0,0,1,.69.95v1.87l1.72.14.32-1.85a1,1,0,0,1,.85-.81,8,8,0,0,0,2.4-.75,1,1,0,0,1,1.14.17l1.38,1.31,1.32-1.12L58.54,36a1,1,0,0,1,0-1.16,7.93,7.93,0,0,0,1.15-2.24,1,1,0,0,1,.95-.7H62.5l.13-1.7ZM56,34.61A5.75,5.75,0,0,1,47.9,34L47.82,34a5.76,5.76,0,1,1,8.16.66Zm4.84-4.69a1,1,0,0,1-.82-.85,7.84,7.84,0,0,0-.74-2.41,1,1,0,0,1,.18-1.15l1.29-1.31-1.12-1.34L58.1,23.91a1,1,0,0,1-1.16,0,8.14,8.14,0,0,0-2.25-1.16,1,1,0,0,1-.68-.95V20l-1.81-.14-.33,1.84a1,1,0,0,1-.84.81,7.86,7.86,0,0,0-2.41.75A1,1,0,0,1,47.48,23l-1.33-1.29L44.82,22.9l1.08,1.54a1,1,0,0,1,0,1.17,7.5,7.5,0,0,0-1.15,2.23,1,1,0,0,1-1,.7H41.94l-.14,1.71,1.83.32a1,1,0,0,1,.82.85,7.6,7.6,0,0,0,.75,2.38A1,1,0,0,1,45,35l-1.28,1.3,1.12,1.31,1.52-1.06a1,1,0,0,1,1.17,0,7.8,7.8,0,0,0,2.24,1.15,1,1,0,0,1,.69.95v1.87l1.72.14.32-1.85a1,1,0,0,1,.85-.81,8,8,0,0,0,2.4-.75,1,1,0,0,1,1.14.17l1.38,1.31,1.32-1.12L58.54,36a1,1,0,0,1,0-1.16,7.93,7.93,0,0,0,1.15-2.24,1,1,0,0,1,.95-.7H62.5l.13-1.7ZM56,34.61A5.75,5.75,0,0,1,47.9,34L47.82,34a5.76,5.76,0,1,1,8.16.66ZM31.2,43.21a4.69,4.69,0,0,0-1.72.33,4.75,4.75,0,0,0-2.8,2.4,4.66,4.66,0,0,0-.24,3.59,4.79,4.79,0,0,0,6.07,2.87l0,0,.38-.13a4.68,4.68,0,0,0-1.73-9ZM40.51,50A9.19,9.19,0,0,0,40.72,47a1,1,0,0,1,.58-1l2.27-1-.79-2.29-2.42.59a1,1,0,0,1-1.07-.43,9.64,9.64,0,0,0-2.08-2.29,1,1,0,0,1-.31-1.14l.87-2.23-2.23-1.06-1.29,2.07a1,1,0,0,1-1.07.45A9.87,9.87,0,0,0,30,38.43a1,1,0,0,1-1-.58l-1-2.17-2.39.81.6,2.29a1,1,0,0,1-.44,1.1A10.17,10.17,0,0,0,23.42,42a1,1,0,0,1-1.11.3L20,41.39l-1.1,2.19,2.08,1.21a1,1,0,0,1,.47,1.1,9.15,9.15,0,0,0-.2,3,1,1,0,0,1-.59,1l-2.26,1,.82,2.34,2.43-.59a1,1,0,0,1,1.08.44,9.17,9.17,0,0,0,2.07,2.28,1,1,0,0,1,.31,1.14l-.87,2.24,2.24,1.06,1.28-2.08a1,1,0,0,1,1.07-.45,9.75,9.75,0,0,0,3.14.18H32a1,1,0,0,1,.91.59l1,2.14,2.37-.81-.57-2.32A1,1,0,0,1,36.16,56,9.89,9.89,0,0,0,38.52,54a1,1,0,0,1,1.12-.3l2.33.86,1.1-2.18L41,51.11A1,1,0,0,1,40.51,50Zm-6.85,4.09a5.17,5.17,0,0,1-.51.18,6.76,6.76,0,0,1-8.6-4.1,6.71,6.71,0,0,1,4.21-8.52,6.69,6.69,0,0,1,4.9,12.44ZM60,29.07a7.84,7.84,0,0,0-.74-2.41,1,1,0,0,1,.18-1.15l1.29-1.31-1.12-1.34L58.1,23.91a1,1,0,0,1-1.16,0,8.14,8.14,0,0,0-2.25-1.16,1,1,0,0,1-.68-.95V20l-1.81-.14-.33,1.84a1,1,0,0,1-.84.81,7.86,7.86,0,0,0-2.41.75A1,1,0,0,1,47.48,23l-1.33-1.29L44.82,22.9l1.08,1.54a1,1,0,0,1,0,1.17,7.5,7.5,0,0,0-1.15,2.23,1,1,0,0,1-1,.7H41.94l-.14,1.71,1.83.32a1,1,0,0,1,.82.85,7.6,7.6,0,0,0,.75,2.38A1,1,0,0,1,45,35l-1.28,1.3,1.12,1.31,1.52-1.06a1,1,0,0,1,1.17,0,7.8,7.8,0,0,0,2.24,1.15,1,1,0,0,1,.69.95v1.87l1.72.14.32-1.85a1,1,0,0,1,.85-.81,8,8,0,0,0,2.4-.75,1,1,0,0,1,1.14.17l1.38,1.31,1.32-1.12L58.54,36a1,1,0,0,1,0-1.16,7.93,7.93,0,0,0,1.15-2.24,1,1,0,0,1,.95-.7H62.5l.13-1.7-1.81-.32A1,1,0,0,1,60,29.07Zm-4,5.54A5.75,5.75,0,0,1,47.9,34L47.82,34a5.76,5.76,0,1,1,8.16.66ZM31.2,43.21a4.69,4.69,0,0,0-1.72.33,4.75,4.75,0,0,0-2.8,2.4,4.66,4.66,0,0,0-.24,3.59,4.79,4.79,0,0,0,6.07,2.87l0,0,.38-.13a4.68,4.68,0,0,0-1.73-9Zm9.16,0a1,1,0,0,1-1.07-.43,9.64,9.64,0,0,0-2.08-2.29,1,1,0,0,1-.31-1.14l.87-2.23-2.23-1.06-1.29,2.07a1,1,0,0,1-1.07.45A9.87,9.87,0,0,0,30,38.43a1,1,0,0,1-1-.58l-1-2.17-2.39.81.6,2.29a1,1,0,0,1-.44,1.1A10.17,10.17,0,0,0,23.42,42a1,1,0,0,1-1.11.3L20,41.39l-1.1,2.19,2.08,1.21a1,1,0,0,1,.47,1.1,9.15,9.15,0,0,0-.2,3,1,1,0,0,1-.59,1l-2.26,1,.82,2.34,2.43-.59a1,1,0,0,1,1.08.44,9.17,9.17,0,0,0,2.07,2.28,1,1,0,0,1,.31,1.14l-.87,2.24,2.24,1.06,1.28-2.08a1,1,0,0,1,1.07-.45,9.75,9.75,0,0,0,3.14.18H32a1,1,0,0,1,.91.59l1,2.14,2.37-.81-.57-2.32A1,1,0,0,1,36.16,56,9.89,9.89,0,0,0,38.52,54a1,1,0,0,1,1.12-.3l2.33.86,1.1-2.18L41,51.11A1,1,0,0,1,40.51,50,9.19,9.19,0,0,0,40.72,47a1,1,0,0,1,.58-1l2.27-1-.79-2.29Zm-6.7,10.87a5.17,5.17,0,0,1-.51.18,6.76,6.76,0,0,1-8.6-4.1,6.71,6.71,0,0,1,4.21-8.52,6.69,6.69,0,0,1,4.9,12.44ZM0,0V80H80V0ZM45.23,46.38l-2.47,1.13a11.11,11.11,0,0,1-.16,2.23l2.29,1.33a1,1,0,0,1,.39,1.31l-1.92,3.83a1,1,0,0,1-1.24.49l-2.53-.93a11.71,11.71,0,0,1-1.77,1.53l.62,2.53A1,1,0,0,1,37.79,61L33.7,62.42a1,1,0,0,1-.33,0,1,1,0,0,1-.91-.58L31.4,59.55a11.59,11.59,0,0,1-2.35-.13l-1.4,2.25a1,1,0,0,1-1.27.38L22.49,60.2a1,1,0,0,1-.5-1.26l1-2.43a11.27,11.27,0,0,1-1.54-1.7l-2.64.64a1,1,0,0,1-1.18-.64l-1.42-4.06a1,1,0,0,1,.53-1.25l2.47-1.1a10.51,10.51,0,0,1,.15-2.24L17,44.84a1,1,0,0,1-.39-1.31l1.91-3.83a1,1,0,0,1,1.23-.49l2.56.92a12.79,12.79,0,0,1,1.76-1.53l-.66-2.51a1,1,0,0,1,.65-1.2l4.14-1.39a1,1,0,0,1,1.23.53l1.07,2.36a11.75,11.75,0,0,1,2.37.14l1.4-2.25a1,1,0,0,1,1.28-.38l3.88,1.85A1,1,0,0,1,40,37L39,39.44a11.68,11.68,0,0,1,1.53,1.69l2.63-.64a1,1,0,0,1,1.18.65l1.39,4A1,1,0,0,1,45.23,46.38ZM64.42,33a1,1,0,0,1-1,.92H61.36a10.37,10.37,0,0,1-.78,1.52l1.19,1.72a1,1,0,0,1-.17,1.33L58.89,40.8a1,1,0,0,1-1.33,0L56,39.3a10.21,10.21,0,0,1-1.65.52l-.36,2a1,1,0,0,1-1,.83H53l-3.55-.29a1,1,0,0,1-.92-1v-2.1A9.09,9.09,0,0,1,47,38.54l-1.7,1.19a1,1,0,0,1-1.33-.17l-2.3-2.7a1,1,0,0,1,0-1.35l1.43-1.46a9.33,9.33,0,0,1-.51-1.63l-2-.36A1,1,0,0,1,39.74,31L40,27.46a1,1,0,0,1,1-.92h2.07A8.72,8.72,0,0,1,43.87,25l-1.2-1.71A1,1,0,0,1,42.83,22l2.7-2.36a1,1,0,0,1,1.36,0l1.49,1.46A9.71,9.71,0,0,1,50,20.61l.36-2.05a1,1,0,0,1,1.07-.82l3.63.29A1,1,0,0,1,56,19V21.1a9.81,9.81,0,0,1,1.51.78l1.7-1.18a1,1,0,0,1,1.34.17l2.29,2.74A1,1,0,0,1,62.79,25l-1.45,1.48a9.44,9.44,0,0,1,.51,1.64l2,.35a1,1,0,0,1,.82,1.07ZM31.2,43.21a4.69,4.69,0,0,0-1.72.33,4.75,4.75,0,0,0-2.8,2.4,4.66,4.66,0,0,0-.24,3.59,4.79,4.79,0,0,0,6.07,2.87l0,0,.38-.13a4.68,4.68,0,0,0-1.73-9ZM40.51,50A9.19,9.19,0,0,0,40.72,47a1,1,0,0,1,.58-1l2.27-1-.79-2.29-2.42.59a1,1,0,0,1-1.07-.43,9.64,9.64,0,0,0-2.08-2.29,1,1,0,0,1-.31-1.14l.87-2.23-2.23-1.06-1.29,2.07a1,1,0,0,1-1.07.45A9.87,9.87,0,0,0,30,38.43a1,1,0,0,1-1-.58l-1-2.17-2.39.81.6,2.29a1,1,0,0,1-.44,1.1A10.17,10.17,0,0,0,23.42,42a1,1,0,0,1-1.11.3L20,41.39l-1.1,2.19,2.08,1.21a1,1,0,0,1,.47,1.1,9.15,9.15,0,0,0-.2,3,1,1,0,0,1-.59,1l-2.26,1,.82,2.34,2.43-.59a1,1,0,0,1,1.08.44,9.17,9.17,0,0,0,2.07,2.28,1,1,0,0,1,.31,1.14l-.87,2.24,2.24,1.06,1.28-2.08a1,1,0,0,1,1.07-.45,9.75,9.75,0,0,0,3.14.18H32a1,1,0,0,1,.91.59l1,2.14,2.37-.81-.57-2.32A1,1,0,0,1,36.16,56,9.89,9.89,0,0,0,38.52,54a1,1,0,0,1,1.12-.3l2.33.86,1.1-2.18L41,51.11A1,1,0,0,1,40.51,50Zm-6.85,4.09a5.17,5.17,0,0,1-.51.18,6.76,6.76,0,0,1-8.6-4.1,6.71,6.71,0,0,1,4.21-8.52,6.69,6.69,0,0,1,4.9,12.44ZM60.82,29.92a1,1,0,0,1-.82-.85,7.84,7.84,0,0,0-.74-2.41,1,1,0,0,1,.18-1.15l1.29-1.31-1.12-1.34L58.1,23.91a1,1,0,0,1-1.16,0,8.14,8.14,0,0,0-2.25-1.16,1,1,0,0,1-.68-.95V20l-1.81-.14-.33,1.84a1,1,0,0,1-.84.81,7.86,7.86,0,0,0-2.41.75A1,1,0,0,1,47.48,23l-1.33-1.29L44.82,22.9l1.08,1.54a1,1,0,0,1,0,1.17,7.5,7.5,0,0,0-1.15,2.23,1,1,0,0,1-1,.7H41.94l-.14,1.71,1.83.32a1,1,0,0,1,.82.85,7.6,7.6,0,0,0,.75,2.38A1,1,0,0,1,45,35l-1.28,1.3,1.12,1.31,1.52-1.06a1,1,0,0,1,1.17,0,7.8,7.8,0,0,0,2.24,1.15,1,1,0,0,1,.69.95v1.87l1.72.14.32-1.85a1,1,0,0,1,.85-.81,8,8,0,0,0,2.4-.75,1,1,0,0,1,1.14.17l1.38,1.31,1.32-1.12L58.54,36a1,1,0,0,1,0-1.16,7.93,7.93,0,0,0,1.15-2.24,1,1,0,0,1,.95-.7H62.5l.13-1.7ZM56,34.61A5.75,5.75,0,0,1,47.9,34L47.82,34a5.76,5.76,0,1,1,8.16.66Zm4.84-4.69a1,1,0,0,1-.82-.85,7.84,7.84,0,0,0-.74-2.41,1,1,0,0,1,.18-1.15l1.29-1.31-1.12-1.34L58.1,23.91a1,1,0,0,1-1.16,0,8.14,8.14,0,0,0-2.25-1.16,1,1,0,0,1-.68-.95V20l-1.81-.14-.33,1.84a1,1,0,0,1-.84.81,7.86,7.86,0,0,0-2.41.75A1,1,0,0,1,47.48,23l-1.33-1.29L44.82,22.9l1.08,1.54a1,1,0,0,1,0,1.17,7.5,7.5,0,0,0-1.15,2.23,1,1,0,0,1-1,.7H41.94l-.14,1.71,1.83.32a1,1,0,0,1,.82.85,7.6,7.6,0,0,0,.75,2.38A1,1,0,0,1,45,35l-1.28,1.3,1.12,1.31,1.52-1.06a1,1,0,0,1,1.17,0,7.8,7.8,0,0,0,2.24,1.15,1,1,0,0,1,.69.95v1.87l1.72.14.32-1.85a1,1,0,0,1,.85-.81,8,8,0,0,0,2.4-.75,1,1,0,0,1,1.14.17l1.38,1.31,1.32-1.12L58.54,36a1,1,0,0,1,0-1.16,7.93,7.93,0,0,0,1.15-2.24,1,1,0,0,1,.95-.7H62.5l.13-1.7ZM56,34.61A5.75,5.75,0,0,1,47.9,34L47.82,34a5.76,5.76,0,1,1,8.16.66Zm-.88-6.79a3.75,3.75,0,0,1-5.73,4.85l-.08-.09a3.76,3.76,0,0,1,5.81-4.76Z" fill="#0045d4"/>
</svg>
