<svg xmlns="http://www.w3.org/2000/svg" width="80" height="80" viewBox="0 0 80 80">
    <path d="M31,45V42H28.57l-1.8,3Zm-4.46-6L21,47.3V57h2.47A4.79,4.79,0,0,1,33,57h1V39ZM33,47H23.23l4.2-7H33ZM61.72,31.81,57.3,33.24c.53.75,1,1.51,1.44,2.24l4.11-2.55Zm-9.75-5,9.28-4-1.78-1.77L47.74,22.6c1,1,2.11,2,3.25,3.15ZM52.28,38l-1.56,4.82,1.12,1.12,2.77-4.42C53.85,39,53.06,38.52,52.28,38ZM50.11,54.89a2.79,2.79,0,1,0,2.78,2.79A2.8,2.8,0,0,0,50.11,54.89Zm.48-18.19c-1.14-.9-2.23-1.81-3.13-2.6L46.22,37h4.27ZM36,57h9.37a4.78,4.78,0,0,1,9.47,0H57V52.37H36Zm8.92-34.25a0,0,0,0,1,0,0,.84.84,0,0,1-.31-.19A2.06,2.06,0,0,0,41.12,24a2.05,2.05,0,0,0,.55,1.48l0,0c1.77,2,3.66,3.88,4.64,4.85a67.7,67.7,0,0,0,6.34,5.39c2.34,1.76,4.53,3.14,5.42,3.15-.13-1.25-3.58-6.72-8.53-11.73C47.76,25.36,46.23,23.91,44.92,22.75Zm1,9.93-1-.91q-1.86-1.85-3.31-3.4L40,40.43l1.79,1.78Zm-6-6.19a.59.59,0,0,0,0-.08v0S39.9,26.47,39.91,26.49Zm.5-5.41a4.05,4.05,0,0,1,1.43-.86c-1.9-1.41-3-1.82-3.55-1.82a.73.73,0,0,0-.54.18.59.59,0,0,0-.16.46,7.64,7.64,0,0,0,1.78,3.6A4.08,4.08,0,0,1,40.41,21.08Zm11.8,26-3.78-3.76L49.84,39H45.36l-2.87,6.71-4.58-4.56L38.2,39H36V50.37H57V40.58a6.2,6.2,0,0,1-.6-.21ZM31,45V42H28.57l-1.8,3Zm-2.79,9.89A2.79,2.79,0,1,0,31,57.68,2.8,2.8,0,0,0,28.21,54.89ZM21,47.3V57h2.47A4.79,4.79,0,0,1,33,57h1V39H26.54ZM33,40v7H23.23l4.2-7Zm28.72-8.19L57.3,33.24c.53.75,1,1.51,1.44,2.24l4.11-2.55Zm-9.75-5,9.28-4-1.78-1.77L47.74,22.6c1,1,2.11,2,3.25,3.15ZM52.28,38l-1.56,4.82,1.12,1.12,2.77-4.42C53.85,39,53.06,38.52,52.28,38ZM50.11,54.89a2.79,2.79,0,1,0,2.78,2.79A2.8,2.8,0,0,0,50.11,54.89Zm.48-18.19c-1.14-.9-2.23-1.81-3.13-2.6L46.22,37h4.27ZM36,57h9.37a4.78,4.78,0,0,1,9.47,0H57V52.37H36Zm8.92-34.25a0,0,0,0,1,0,0,.84.84,0,0,1-.31-.19A2.06,2.06,0,0,0,41.12,24a2.05,2.05,0,0,0,.55,1.48l0,0c1.77,2,3.66,3.88,4.64,4.85a67.7,67.7,0,0,0,6.34,5.39c2.34,1.76,4.53,3.14,5.42,3.15-.13-1.25-3.58-6.72-8.53-11.73C47.76,25.36,46.23,23.91,44.92,22.75Zm1,9.93-1-.91q-1.86-1.85-3.31-3.4L40,40.43l1.79,1.78Zm-6-6.27v0s0,0,0,0A.59.59,0,0,0,39.87,26.41Zm2-6.19c-1.9-1.41-3-1.82-3.55-1.82a.73.73,0,0,0-.54.18.59.59,0,0,0-.16.46,7.64,7.64,0,0,0,1.78,3.6,4,4,0,0,1,2.47-2.42ZM52.21,47.09l-3.78-3.76L49.84,39H45.36l-2.87,6.71-4.58-4.56L38.2,39H36V50.37H57V40.58a6.2,6.2,0,0,1-.6-.21ZM31,45V42H28.57l-1.8,3Zm-2.79,9.89A2.79,2.79,0,1,0,31,57.68,2.8,2.8,0,0,0,28.21,54.89ZM0,0V80H80V0ZM22,27h4V23h2v4h4v2H28v4H26V29H22ZM59.57,40.36a1.47,1.47,0,0,1-.57.35V59H54.7a4.78,4.78,0,0,1-9.19,0H32.81a4.78,4.78,0,0,1-9.2,0H19V46.7L25.46,37h13l1.4-10.56c-3-3.43-4.27-5.71-4.27-7.4a2.57,2.57,0,0,1,.76-1.88c1.86-1.83,5-.18,9.44,3.68l14.39-1.9,4.58,4.56L53.38,28.35c.81.92,1.74,2,2.65,3.19l6.24-2,3.78,3.76-6.42,4C60.14,38.6,60.23,39.71,59.57,40.36ZM21,47.3V57h2.47A4.79,4.79,0,0,1,33,57h1V39H26.54ZM33,40v7H23.23l4.2-7ZM28.21,54.89A2.79,2.79,0,1,0,31,57.68,2.8,2.8,0,0,0,28.21,54.89ZM56.4,40.37l-4.19,6.72-3.78-3.76L49.84,39H45.36l-2.87,6.71-4.58-4.56L38.2,39H36V50.37H57V40.58A6.2,6.2,0,0,1,56.4,40.37Zm-18.11-22a.73.73,0,0,0-.54.18.59.59,0,0,0-.16.46,7.64,7.64,0,0,0,1.78,3.6,4,4,0,0,1,2.47-2.42C39.94,18.81,38.88,18.4,38.29,18.4Zm1.58,8v0s0,0,0,0A.59.59,0,0,0,39.87,26.41Zm5.06,5.36q-1.86-1.85-3.31-3.4L40,40.43l1.79,1.78,4.08-9.53ZM46.22,37h4.27l.1-.3c-1.14-.9-2.23-1.81-3.13-2.6Zm3.35-9.84c-1.81-1.8-3.34-3.25-4.65-4.41a0,0,0,0,1,0,0,.84.84,0,0,1-.31-.19A2.06,2.06,0,0,0,41.12,24a2.05,2.05,0,0,0,.55,1.48l0,0c1.77,2,3.66,3.88,4.64,4.85a67.7,67.7,0,0,0,6.34,5.39c2.34,1.76,4.53,3.14,5.42,3.15C58,37.64,54.52,32.17,49.57,27.16Zm-8,1.21L40,40.43l1.79,1.78,4.08-9.53-1-.91Q43.07,29.92,41.62,28.37Zm-1.76-1.93s0,0,0,0a.59.59,0,0,0,0-.08ZM36,52.37V57h9.37a4.78,4.78,0,0,1,9.47,0H57V52.37ZM47.46,34.1,46.22,37h4.27l.1-.3C49.45,35.8,48.36,34.89,47.46,34.1Zm2.65,20.79a2.79,2.79,0,1,0,2.78,2.79A2.8,2.8,0,0,0,50.11,54.89ZM52.28,38l-1.56,4.82,1.12,1.12,2.77-4.42C53.85,39,53.06,38.52,52.28,38Zm7.19-16.91L47.74,22.6c1,1,2.11,2,3.25,3.15l1,1,9.28-4Zm2.25,10.76L57.3,33.24c.53.75,1,1.51,1.44,2.24l4.11-2.55Zm-21.85-5.4v0s0,0,0,0A.59.59,0,0,0,39.87,26.41Z" fill="#0045d4"/>
</svg>
