<svg xmlns="http://www.w3.org/2000/svg" width="420" height="290" viewBox="0 0 420 290">
    <polyline points="0 11 175.72 11 175.72 184.06 0 184.06" fill="none" stroke="#000" stroke-width="2"/>
    <path d="M199.68,200V84.22h102.5l19.56,54.91,81.62,11.65a7.2,7.2,0,0,1,4.88,2.55,6.38,6.38,0,0,1,1.77,4.1v65.23" fill="none" stroke="#000" stroke-linecap="round" stroke-linejoin="round" stroke-width="2"/>
    <polyline points="387.38 223.99 418 223.99 418 253.28 387.38 253.28" fill="none" stroke="#000" stroke-linecap="round" stroke-linejoin="round" stroke-width="2"/>
    <polygon points="303.52 148.12 219.65 148.12 219.65 102.85 290.2 102.85 303.52 148.12" fill="none" class="uk-text-primary" stroke="#0045d4" stroke-width="2"/>
    <path d="M279.55,84.22S246.94,49.45,233.2,40.91c-13.48-8.36-33.52-8.61-33.52-8.61V84.22Z" fill="none" stroke="#000" stroke-width="2"/>
    <line x1="302.18" y1="253.28" x2="287.54" y2="253.28" fill="none" stroke="#000" stroke-width="2"/>
    <path d="M22.63,253.28H1.33V200h358.1c14.32,0,27.95,8.88,27.95,24v29.29H372.74" fill="none" stroke="#000" stroke-width="2"/>
    <line x1="98.51" y1="253.28" x2="91.85" y2="253.28" fill="none" stroke="#000" stroke-width="2"/>
    <line x1="185.04" y1="253.28" x2="167.73" y2="253.28" fill="none" stroke="#000" stroke-width="2"/>
    <circle cx="336.72" cy="253.61" r="34.64" transform="translate(32.44 545.36) rotate(-80.78)" fill="none" class="uk-text-primary" stroke="#0045d4" stroke-width="2"/>
    <rect x="61.24" y="184.06" width="71.89" height="15.97" fill="none" stroke="#000" stroke-width="2"/>
    <line x1="246.27" y1="104.18" x2="246.27" y2="148.11" fill="none" class="uk-text-primary" stroke="#0045d4" stroke-width="2"/>
    <circle cx="336.72" cy="253.61" r="9.81" fill="none" class="uk-text-primary" stroke="#0045d4" stroke-width="2"/>
    <circle cx="132.97" cy="253.61" r="34.64" fill="none" class="uk-text-primary" stroke="#0045d4" stroke-width="2"/>
    <circle cx="132.97" cy="253.61" r="9.81" fill="none" class="uk-text-primary" stroke="#0045d4" stroke-width="2"/>
    <circle cx="56.51" cy="253.61" r="34.64" fill="none" class="uk-text-primary" stroke="#0045d4" stroke-width="2"/>
    <circle cx="56.51" cy="253.61" r="9.81" fill="none" class="uk-text-primary" stroke="#0045d4" stroke-width="2"/>
    <rect x="185.04" y="218.67" width="103.83" height="49.99" stroke-width="2" fill="none" stroke="#000" stroke-linecap="round" stroke-linejoin="round"/>
    <rect x="219.65" y="161.43" width="14.64" height="3.99" fill="none" stroke="#000" stroke-width="2"/>
</svg>
