<svg xmlns="http://www.w3.org/2000/svg" width="420" height="290" viewBox="0 0 420 290">
    <polyline fill="none" stroke="#000" stroke-width="2" points="222.785 269.38 273.255 281.09 273.525 285.86 217.275 281.59"/>
    <line fill="none" stroke="#000" stroke-width="2" x1="252.285" y1="206.39" x2="233.38499" y2="204.99001"/>
    <path fill="none" stroke="#000" stroke-width="2" d="M353.185,189c28.11,12.6,53.33,23.64,62.33,27.16,1.94.76,2.11.86,2.71,1.52a4.37,4.37,0,0,1,.77,2.4v3.72h0L301.045,210l-30.9-2.28"/>
    <path fill="none" stroke="#000" stroke-width="2" d="M308.695,168.87l16.86,7.68"/>
    <path fill="none" stroke="#000" stroke-width="2" d="M242.495,123.67a25.99983,25.99983,0,0,0,2.22,11.1c1.54,3.31,3.42,4.32,5.52,6.11,1.45,1.24,13,6.9,29.54,14.62"/>
    <path fill="none" stroke="#000" stroke-width="2" d="M308.945,153.41a42.50054,42.50054,0,0,1-.3,16.3c-1.46,6-6.21,12.11-8.53,15.24s-6.6,3-8.92,2.76-6.38-1.07-7.91-4.59-4.77-10.51-4.88-16.71c-.14-8.34,3.42-16.46,3.42-16.46"/>
    <path fill="none" stroke="#000" stroke-width="2" d="M354.565,171.4a40,40,0,0,1-.45,14.5c-1.39,5.72-5.89,11.5-8.1,14.47s-6.26,2.86-8.46,2.62-6.05-1-7.51-4.36-4.53-10-4.63-15.86a43,43,0,0,1,3.24-15.63"/>
    <path fill="none" stroke="#000" stroke-width="2" d="M256.105,198.84h1.86a3.3,3.3,0,0,1,3.3,3.3v12.01a3.3,3.3,0,0,1-3.3,3.3h-1.86a3.3,3.3,0,0,1-3.3-3.3V202.14A3.3,3.3,0,0,1,256.105,198.84Z"/>
    <path fill="none" stroke="#000" stroke-width="2" d="M265.065,198.84h1.86a3.3,3.3,0,0,1,3.3,3.3v12.01a3.3,3.3,0,0,1-3.3,3.3h-1.86a3.3,3.3,0,0,1-3.3-3.3V202.14A3.3,3.3,0,0,1,265.065,198.84Z"/>
    <polyline fill="none" stroke="#000" stroke-width="2" points="197.245 269.5 147.165 281.09 146.895 285.86 202.765 281.63"/>
    <path fill="none" stroke="#000" stroke-width="2" d="M210.5,288.34h.5s4.545-1.16,10.635-14.47,25.53-165.22,23.79-205.68C244.175,40,221.49,9.51,210,9.51"/>
    <path fill="none" stroke="#000" stroke-width="2" d="M210,9.51c-11.53,0-33.685,30.45-34.875,58.68-1.74,40.46,17.8,192.37,23.87,205.68S210,288.34,210,288.34h.5"/>
    <line fill="none" stroke="#000" stroke-width="2" x1="167.785" y1="206.42" x2="187.16499" y2="204.99001"/>
    <path fill="none" stroke="#000" stroke-width="2" d="M66.955,189c-28.17,12.58-53.44,23.61-62.47,27.13-1.94.76-2.11.86-2.71,1.52a4.27992,4.27992,0,0,0-.77,2.4v3.72h.04L119.335,210l30.71-2.27"/>
    <path fill="none" stroke="#000" stroke-width="2" d="M111.225,169.05c-5.56,2.54-11.28,5.13-17.05,7.74"/>
    <path fill="none" stroke="#000" stroke-width="2" d="M178.045,123.67a26.11,26.11,0,0,1-2.23,11.1c-1.55,3.31-3.44,4.32-5.54,6.11-1.46,1.25-13.16,6.94-29.79,14.7"/>
    <path fill="none" stroke="#000" stroke-width="2" d="M111.375,153.41a42.39028,42.39028,0,0,0,.31,16.3c1.46,6,6.22,12.11,8.55,15.24s6.62,3,8.94,2.76,6.4-1.07,7.93-4.59,4.79-10.51,4.9-16.71a44.6,44.6,0,0,0-3.14-15.77"/>
    <path fill="none" stroke="#000" stroke-width="2" d="M65.785,170.43a40.18016,40.18016,0,0,0,.26,15.47c1.39,5.72,5.91,11.5,8.12,14.47s6.28,2.86,8.49,2.62,6.07-1,7.52-4.36,4.55-10,4.65-15.86a41.74,41.74,0,0,0-2.74-14.33"/>
    <path fill="none" stroke="#000" stroke-width="2" d="M162.505,217.45h1.88a3.3,3.3,0,0,0,3.3-3.3h0v-12a3.3,3.3,0,0,0-3.3-3.3h-1.88a3.31,3.31,0,0,0-3.31,3.3v12A3.31,3.31,0,0,0,162.505,217.45Z"/>
    <path fill="none" stroke="#000" stroke-width="2" d="M153.505,217.45h1.88a3.31,3.31,0,0,0,3.31-3.3v-12a3.31,3.31,0,0,0-3.31-3.3h-1.88a3.3,3.3,0,0,0-3.3,3.3h0v12a3.3,3.3,0,0,0,3.3,3.3Z"/>
    <rect fill="none" stroke="#000" stroke-width="2" x="200.46499" y="98.23" width="9.63" height="21.19" rx="4.62" ry="4.62"/>
    <rect fill="none" stroke="#000" stroke-width="2" x="210.675" y="98.23" width="9.63" height="21.19" rx="4.62" ry="4.62"/>
    <path class="uk-text-primary" fill="none" stroke="#0045d4" stroke-linecap="round" stroke-linejoin="round" stroke-width="2" d="M308.875,154c-.67,6.18-7.31,10.52-14.82,9.7s-13.06-6.49-12.38-12.67a10.35,10.35,0,0,1,4.94-7.53,15.21,15.21,0,0,1,9.88-2.17C304.045,142.19,309.545,147.86,308.875,154Z"/>
    <path class="uk-text-primary" fill="none" stroke="#0045d4" stroke-linecap="round" stroke-linejoin="round" stroke-width="2" d="M354.505,171.52c-.65,5.94-7,10.12-14.25,9.33s-12.55-6.24-11.91-12.18a9.92,9.92,0,0,1,4.66-7.19,14.61,14.61,0,0,1,9.59-2.14C349.815,160.12,355.145,165.58,354.505,171.52Z"/>
    <path class="uk-text-primary" fill="none" stroke="#0045d4" stroke-linecap="round" stroke-linejoin="round" stroke-width="2" d="M126.485,164.74c-7.64.83-14.39-3.58-15.08-9.85s5-12,12.6-12.84a15,15,0,0,1,11.82,3.56,10.13006,10.13006,0,0,1,3.25,6.28C139.755,158.16,134.125,163.91,126.485,164.74Z"/>
    <path class="uk-text-primary" fill="none" stroke="#0045d4" stroke-linecap="round" stroke-linejoin="round" stroke-width="2" d="M80.215,181.38c-7.29.79-13.73-3.42-14.38-9.39-.44-4,1.84-7.81,5.59-10.11a15.6101,15.6101,0,0,1,6.42-2.15c7.29-.79,13.73,3.41,14.38,9.39S87.505,180.58,80.215,181.38Z"/>
</svg>
