<svg xmlns="http://www.w3.org/2000/svg" width="2560" height="770" viewBox="0 0 2560 770">
  <path fill="none" stroke="#fff" stroke-linecap="round" stroke-width="3" d="M1842,207V770m-46-470c17.5-4.2,34.6-16.8,46-32,11.4,15.2,28.5,27.8,46,32m-76-56c11.4-5.1,22.6-20.5,30-39,7.4,18.5,18.6,33.9,30,39m-90,116c22.80005-5.5,45.19995-22.1,60-42,14.80005,19.9,37.1,36.5,60,42M1782,641c22.80005-5.5,45.19995-22.1,60-42,14.80005,19.9,37.1,36.5,60,42M1769,432c27.80005-6.8,55-27.3,73-52,18,24.7,45.19995,45.2,73,52M1769,577c27.80005-6.8,55-27.3,73-52,18,24.7,45.19995,45.2,73,52m-146-72c27.80005-6.8,54.9-27.3,72.9-52a151.27023,151.27023,0,0,0,48.1,42m167-111a82,82,0,1,1,82,82A81.98378,81.98378,0,0,1,2057,384ZM1890,489a74,74,0,1,1,74,74A73.96043,73.96043,0,0,1,1890,489ZM2021,10a82,82,0,1,1-82,82A81.98378,81.98378,0,0,1,2021,10Zm118,367V770M1964,479V770m211-372-36,34-36-34m-103,97-36,34-36-34m93-408V442m-1,95V770m-35-662,36,34,36-34M1386,430V770m-44-249c16.80005-4.1,33.1-16.3,44-31,10.9,14.7,27.19995,26.9,44,31m-88,185c16.80005-4.1,33.1-16.3,44-31,10.9,14.7,27.19995,26.9,44,31m-73-240c11-4.9,21.80005-19.4,29-37,7.19995,17.6,18,32.1,29,37m-87,113c21.9-5.2,43.80005-21,58-40,14.19995,19,36.1,34.8,58,40m-129,74c39.5-8.3,71-50,71-50,15.30005,21,37.1,38.9,60.5,47.3M1569,618a65,65,0,1,0-65,65,64.99807,64.99807,0,0,0,65-65m-66-13V770m-34-147,34,33,34-33M483,496a74,74,0,1,1,74,74,73.96043,73.96043,0,0,1-74-74m74-9V771m36-268-35,35-36-35M410,40V770M350,481c22.7-5.5,45.3-22.2,60-42v-.2c14.7,19.8,36.4,36.7,59,42.2M350,561c22.7-5.5,45.3-21.8,60-41.6,14.7,19.8,37.3,36.1,60,41.6M364,619c17.4-4.2,34.7-17.7,46-33v.6c11.3,15.3,27.6,28.2,45,32.4M364,136c17.3-4.2,34.8-16.8,46-32,11.2,15.2,28.7,27.8,46,32M380,79c11.4-5.1,22.6-20.5,30-39,7.4,18.5,18.6,33.9,30,39M350,197c22.6-5.5,45.3-22.1,60-42,14.7,19.9,37.3,36.5,60,42M338,271c27.4-6.8,54.2-27.3,72-52,17.8,24.7,44.6,45.2,72,52M338,414c27.4-6.8,54.2-27.3,72-52,17.8,24.7,44.6,45.2,72,52M338,343c27.4-6.8,54.2-27.3,72-52,17.8,24.7,44.6,45.2,72,52"/>
</svg>
