<svg xmlns="http://www.w3.org/2000/svg" width="100" height="45" viewBox="0 0 100 45">
  <polyline points="40.6 7.6 40.6 39.32 58.99 39.32" fill="none" stroke="#000" stroke-width="1.4"/>
  <line x1="36.37" y1="34.13" x2="40.61" y2="34.13" fill="none" stroke="#000" stroke-width="1.4"/>
  <path d="M10.76,16.09H4.54c-1.95,0-3.54,1.58-3.54,3.52v8.18" fill="none" stroke="#000" stroke-linecap="round" stroke-width="1.4"/>
  <line x1="21.4" y1="39.07" x2="16.09" y2="39.07" fill="none" stroke="#000" stroke-linecap="round" stroke-linejoin="round" stroke-width="1.4"/>
  <polyline points="5.1 39.07 1 39.07 1 24.26 10.9 24.26 10.9 1 28.59 1 36.37 25.67 36.37 39.07 31.5 39.07" fill="none" stroke="#000" stroke-linecap="round" stroke-linejoin="round" stroke-width="1.4"/>
  <polygon points="13.73 3.82 13.73 24.26 32.83 24.26 26.46 3.82 13.73 3.82" fill="none" stroke="#000" stroke-linecap="round" stroke-linejoin="round" stroke-width="1.4"/>
  <ellipse cx="10.2" cy="39.07" rx="4.95" ry="4.93" fill="none" stroke="#000" stroke-linecap="round" stroke-width="1.4"/>
  <ellipse cx="26.46" cy="39.07" rx="4.95" ry="4.93" fill="none" stroke="#000" stroke-linecap="round" stroke-width="1.4"/>
  <rect class="uk-text-primary" x="44" y="27" width="13" height="9" fill="none" stroke="#0045d4" stroke-width="1.4"/>
  <rect class="uk-text-primary" x="44" y="19" width="11" height="8" fill="none" stroke="#0045d4" stroke-width="1.4"/>
  <rect class="uk-text-primary" x="44" y="12" width="7" height="7" fill="none" stroke="#0045d4" stroke-width="1.4"/>
  <line x1="17.98" y1="27.08" x2="15.15" y2="27.08" fill="none" stroke="#000" stroke-width="1.4"/>
</svg>