<svg xmlns="http://www.w3.org/2000/svg" width="110" height="75" viewBox="0 0 110 75">
  <path fill="none" stroke="#0045d4" stroke-width="2" d="M57,3,71,2V4L59,8m2,15,17-2,31-5v2.62622a1.128,1.128,0,0,1-.19891.61977c-.155.17044-.29979.19631-.80109.3925C105.67453,20.54744,65.77054,38.67981,65.39589,39a4.34574,4.34574,0,0,0-1.42626,1.65513A6.82964,6.82964,0,0,0,63.282,43.5214M53,3,39,2V4L51,8M64,58c.44957-10.44765-4.42648-49.56307-6-53s-3-4-3-4-1.43164.56307-3,4-6.44958,42.55234-6,53c.30747,7.2896,6.02088,15,9,15C57.96878,73,63.677,65.27927,64,58ZM49,23,32,21,1,16v2.634a1.10475,1.10475,0,0,0,.199.61973c.155.17042.29979.19625.801.3925C4.33316,20.55514,44.35864,38.67718,44.73588,39a4.37658,4.37658,0,0,1,1.43142,1.65513,6.71724,6.71724,0,0,1,.55156,2.86627M80.57134,32.06377a10.96788,10.96788,0,0,1-.006,3.7781,3.32228,3.32228,0,0,1-3.21683,3.11932,3.93187,3.93187,0,0,1-2.55279-.56034,2.67276,2.67276,0,0,1-1.22459-1.66553,9.65311,9.65311,0,0,1-.4527-1.2628m18.926-8.63324a5.23322,5.23322,0,0,1,.19189.613,10.32306,10.32306,0,0,1,.11627,3.74422c.14365,1.52179-1.23988,2.9141-3.09281,3.11415a3.77671,3.77671,0,0,1-2.47785-.5526,2.56187,2.56187,0,0,1-1.12132-1.46294A11.093,11.093,0,0,1,84.997,30.043M29.51369,32.062a10.953,10.953,0,0,0-.00193,3.74457,3.42748,3.42748,0,0,0,3.26889,2.96864,3.87732,3.87732,0,0,0,3.054-.91927,2.61549,2.61549,0,0,0,.78-1.30021c.14122-.35557.26983-.7161.37466-1.08277M17.99692,26.83984a5.19735,5.19735,0,0,0-.19192.61233,10.3687,10.3687,0,0,0-.06348,3.99469,2.87569,2.87569,0,0,0,1.45356,2.2078,4.03479,4.03479,0,0,0,1.6588.55517,3.22232,3.22232,0,0,0,3.688-2.24064,10.8346,10.8346,0,0,0,.52667-1.926"/>
</svg>
