<svg xmlns="http://www.w3.org/2000/svg" width="110" height="75" viewBox="0 0 110 75">
  <path fill="none" stroke="#0045d4" stroke-width="2" d="M59,66l12,4v2L57,71m6.282-40.5214a6.82964,6.82964,0,0,0,.68759,2.86627A4.34574,4.34574,0,0,0,65.39589,35c.37465.32019,40.27864,18.45256,42.60411,19.36151.5013.19619.64607.22206.80109.3925A1.128,1.128,0,0,1,109,55.37378V58L78,53,61,51M51,66,39,70v2l14-1M55,1c-2.97912,0-8.69253,7.7104-9,15-.44958,10.44766,4.43164,49.56307,6,53s3,4,3,4,1.42648-.56307,3-4,6.44957-42.55235,6-53C63.677,8.72073,57.96878,1,55,1ZM46.71886,30.4786a6.71724,6.71724,0,0,1-.55156,2.86627A4.37658,4.37658,0,0,1,44.73588,35C44.35864,35.32282,4.33316,53.44486,2,54.3538c-.50125.19625-.646.22208-.801.3925A1.10475,1.10475,0,0,0,1,55.366V58l31-5,17-2M73.1184,38.52748a9.65311,9.65311,0,0,1,.4527-1.2628,2.67276,2.67276,0,0,1,1.22459-1.66553,3.93187,3.93187,0,0,1,2.55279-.56034,3.32228,3.32228,0,0,1,3.21683,3.11932,10.96788,10.96788,0,0,1,.006,3.7781M84.997,43.957a11.093,11.093,0,0,1,.66362-2.25207A2.56187,2.56187,0,0,1,86.78194,40.242a3.77671,3.77671,0,0,1,2.47785-.5526c1.85293.2,3.23646,1.59236,3.09281,3.11415a10.32306,10.32306,0,0,1-.11627,3.74422,5.23322,5.23322,0,0,1-.19189.613M36.98937,38.527c-.10483-.36667-.23344-.7272-.37466-1.08277a2.61549,2.61549,0,0,0-.78-1.30021,3.87732,3.87732,0,0,0-3.054-.91927,3.42748,3.42748,0,0,0-3.26889,2.96864,10.953,10.953,0,0,0,.00193,3.74457m-4.4451,2.01883a10.8346,10.8346,0,0,0-.52667-1.926,3.22232,3.22232,0,0,0-3.688-2.24064,4.03479,4.03479,0,0,0-1.6588.55517,2.87569,2.87569,0,0,0-1.45356,2.2078,10.3687,10.3687,0,0,0,.06348,3.99469,5.19735,5.19735,0,0,0,.19192.61233"/>
</svg>
