<svg xmlns="http://www.w3.org/2000/svg" width="154" height="20" viewBox="0 0 154 20">
  <path fill="#000" d="M11.83,1.299a.304.304,0,0,1,.09.222V4.042a.31.31,0,0,1-.307.313H8.358a.115.115,0,0,0-.13.13V19.097a.31.31,0,0,1-.309.311H4.874a.31.31,0,0,1-.312-.308V4.484a.115.115,0,0,0-.13-.13H1.312A.31.31,0,0,1,1,4.046V1.521a.31.31,0,0,1,.307-.313H11.608a.303.303,0,0,1,.221.09Zm2.534,16.913a5.007,5.007,0,0,1-1.43-3.744V6.148a5.007,5.007,0,0,1,1.43-3.744A5.217,5.217,0,0,1,18.186,1a5.264,5.264,0,0,1,3.835,1.404,4.984,4.984,0,0,1,1.443,3.744v8.32a4.984,4.984,0,0,1-1.443,3.744,5.264,5.264,0,0,1-3.835,1.404A5.217,5.217,0,0,1,14.364,18.212Zm4.992-2.25a1.965,1.965,0,0,0,.442-1.338V5.992a1.965,1.965,0,0,0-.442-1.339,1.477,1.477,0,0,0-1.17-.507,1.438,1.438,0,0,0-1.157.507,2.002,2.002,0,0,0-.43,1.34v8.631a2.002,2.002,0,0,0,.43,1.339,1.438,1.438,0,0,0,1.157.507,1.477,1.477,0,0,0,1.17-.507ZM34.202,1.209h3.016a.3.3,0,0,1,.22.09.304.304,0,0,1,.092.223V19.098a.31.31,0,0,1-.309.311H34.176a.31.31,0,0,1-.312-.308V7.422c0-.068-.018-.104-.052-.104s-.07.026-.104.078L31.68,10.984q-.13.208-.208.208-.079,0-.208-.208L29.236,7.396c-.035-.052-.07-.078-.104-.078-.035,0-.052.036-.052.104V19.097a.31.31,0,0,1-.309.311H25.726a.31.31,0,0,1-.312-.308V1.52a.31.31,0,0,1,.307-.313h2.995a.43.43,0,0,1,.39.208L31.42,5.55q.078.105.156,0l2.236-4.134a.395.395,0,0,1,.39-.208Zm7.565,17.81A4.286,4.286,0,0,1,40,17.342a4.86694,4.86694,0,0,1-.624-2.483v-.754a.31.31,0,0,1,.308-.312h2.994a.31.31,0,0,1,.312.308v.576a1.95,1.95,0,0,0,.416,1.3,1.304,1.304,0,0,0,1.04.494,1.333,1.333,0,0,0,1.04-.468,1.77,1.77,0,0,0,.416-1.222,1.89893,1.89893,0,0,0-.52-1.339,15.60352,15.60352,0,0,0-2.028-1.651,24.92134,24.92134,0,0,1-2.106-1.664A6.56581,6.56581,0,0,1,39.87,8.333a5.143,5.143,0,0,1-.572-2.47,4.678,4.678,0,0,1,1.378-3.536A5.03,5.03,0,0,1,44.315,1a5.002,5.002,0,0,1,3.68,1.378,4.864,4.864,0,0,1,1.39,3.614v.624a.31.31,0,0,1-.308.312H46.083a.31.31,0,0,1-.312-.308V5.914a1.942,1.942,0,0,0-.403-1.287,1.31,1.31,0,0,0-1.053-.48,1.271,1.271,0,0,0-1.014.455,1.874,1.874,0,0,0-.39,1.26,2.1,2.1,0,0,0,.494,1.378,11.78412,11.78412,0,0,0,1.95,1.664q1.612,1.197,2.431,1.937a5.65991,5.65991,0,0,1,1.274,1.638,4.69,4.69,0,0,1,.455,2.145,4.819,4.819,0,0,1-1.404,3.64,5.1,5.1,0,0,1-3.692,1.352A5.6471,5.6471,0,0,1,41.767,19.019ZM60.657,4.265a.303.303,0,0,1-.222.09H55.001a.115.115,0,0,0-.13.13V8.593a.115.115,0,0,0,.13.13h3.12a.31.31,0,0,1,.312.308v2.527a.31.31,0,0,1-.309.311H55.001a.115.115,0,0,0-.13.13v4.134a.115.115,0,0,0,.13.13h5.434a.303.303,0,0,1,.221.092.3.3,0,0,1,.091.22v2.523a.31.31,0,0,1-.309.311H51.517a.31.31,0,0,1-.312-.308V1.52a.31.31,0,0,1,.307-.313h8.923a.31.31,0,0,1,.312.308V4.041a.302.302,0,0,1-.09.222ZM70.12,1.3a.301.301,0,0,1,.22-.091h3.017a.31.31,0,0,1,.312.308V19.098a.31.31,0,0,1-.309.311H69.925a.326.326,0,0,1-.338-.26L66.363,9.086q-.027-.078-.091-.065a.08.08,0,0,0-.065.091l.026,9.985a.31.31,0,0,1-.309.311H62.905a.31.31,0,0,1-.312-.308V1.52a.31.31,0,0,1,.307-.313h3.411a.327.327,0,0,1,.338.26l3.25,10.062c.017.052.047.074.09.065.044-.008.066-.038.066-.091L70.029,1.52a.302.302,0,0,1,.09-.222Zm32.876,16.81a5.445,5.445,0,0,1-3.77,1.3H94.313A.312.312,0,0,1,94,19.099V1.52a.312.312,0,0,1,.311-.313h4.343a6.092,6.092,0,0,1,4.07,1.248,4.609,4.609,0,0,1,1.468,3.718,4.161,4.161,0,0,1-1.767,3.744c-.07.052-.078.104-.027.156a4.948,4.948,0,0,1,2.054,4.317,4.725,4.725,0,0,1-1.456,3.717ZM97.666,4.485V8.567a.115.115,0,0,0,.13.13h.936a1.742,1.742,0,0,0,1.378-.56,2.29606,2.29606,0,0,0,.494-1.572,2.478,2.478,0,0,0-.481-1.638,1.715,1.715,0,0,0-1.39-.572h-.936a.115.115,0,0,0-.131.13Zm2.626,11.128a2.789,2.789,0,0,0,.494-1.768,3.024,3.024,0,0,0-.494-1.82,1.558,1.558,0,0,0-1.325-.675h-1.17a.115.115,0,0,0-.131.13v4.627a.115.115,0,0,0,.13.13H98.94A1.63,1.63,0,0,0,100.292,15.613Zm12.74,3.536-2.002-7.175c-.035-.07-.078-.105-.13-.105h-.883a.116.116,0,0,0-.131.13v7.099a.31.31,0,0,1-.309.311h-3.045a.312.312,0,0,1-.312-.311V1.52a.312.312,0,0,1,.311-.313h5.253a4.75993,4.75993,0,0,1,2.548.69,4.589,4.589,0,0,1,1.73,1.936,6.44109,6.44109,0,0,1,.61,2.86,5.964,5.964,0,0,1-.585,2.704,4.42,4.42,0,0,1-1.625,1.82.19489.19489,0,0,0-.078.065.089.089,0,0,0,0,.091l2.392,7.67.026.104c0,.173-.095.26-.285.26h-3.12a.342.342,0,0,1-.365-.26ZM109.886,4.485V8.932a.115.115,0,0,0,.13.13h1.17a1.6,1.6,0,0,0,1.313-.638,2.65606,2.65606,0,0,0,.507-1.703,2.702,2.702,0,0,0-.507-1.729,1.6,1.6,0,0,0-1.312-.637h-1.17a.115.115,0,0,0-.131.13Zm9.75,13.728a5.005,5.005,0,0,1-1.43-3.744V6.149a5.005,5.005,0,0,1,1.43-3.744,5.92,5.92,0,0,1,7.657,0,4.984,4.984,0,0,1,1.443,3.744v8.32a4.984,4.984,0,0,1-1.443,3.744,5.92,5.92,0,0,1-7.656,0Zm4.992-2.25a1.963,1.963,0,0,0,.442-1.338V5.992a1.963,1.963,0,0,0-.442-1.339,1.476,1.476,0,0,0-1.17-.507,1.438,1.438,0,0,0-1.157.507,2.007,2.007,0,0,0-.429,1.34v8.631a2.007,2.007,0,0,0,.429,1.339,1.438,1.438,0,0,0,1.157.507A1.476,1.476,0,0,0,124.628,15.963Zm6.227,3.355a.297.297,0,0,1-.091-.22V1.52a.312.312,0,0,1,.311-.313h4.707a5.242,5.242,0,0,1,3.796,1.378,4.859,4.859,0,0,1,1.43,3.666v8.112a4.857,4.857,0,0,1-1.43,3.666,5.238,5.238,0,0,1-3.796,1.378h-4.706a.3.3,0,0,1-.22-.09Zm3.706-3.055,1.17-.026a1.456,1.456,0,0,0,1.143-.597,2.52205,2.52205,0,0,0,.468-1.51V6.487a2.498,2.498,0,0,0-.442-1.56,1.433,1.433,0,0,0-1.196-.572h-1.143a.115.115,0,0,0-.131.13V16.133a.115.115,0,0,0,.13.13Zm10.958,3.029a.296.296,0,0,1-.091-.22v-6.76l-.027-.157-3.64-10.582a.28486.28486,0,0,1-.026-.13c0-.156.095-.234.287-.234h3.198a.342.342,0,0,1,.363.26l1.612,6.215c.017.051.043.077.078.077s.061-.026.079-.077l1.61-6.215a.344.344,0,0,1,.365-.26h3.198a.294.294,0,0,1,.235.09.286.286,0,0,1,.025.274l-3.666,10.582-.025.157v6.76a.3.3,0,0,1-.092.22.296.296,0,0,1-.22.09h-3.043a.296.296,0,0,1-.22-.09Z"/>
  <path class="uk-text-primary" fill="#0045d4" d="M82,12.2a.20059.20059,0,0,0-.2-.2H77.5a.50147.50147,0,0,1-.5-.5v-3a.50147.50147,0,0,1,.5-.5h4.3a.20059.20059,0,0,0,.2-.2V3.5a.50147.50147,0,0,1,.5-.5h3a.50147.50147,0,0,1,.5.5V7.8a.20059.20059,0,0,0,.2.2h4.3a.50147.50147,0,0,1,.5.5v3a.50147.50147,0,0,1-.5.5H86.2c-.11,0-.2-.11-.2,0v4.5a.50147.50147,0,0,1-.5.5h-3a.50147.50147,0,0,1-.5-.5Z"/>
</svg>
