<svg xmlns="http://www.w3.org/2000/svg" width="54" height="26" viewBox="0 0 54 26">
  <path fill="#000" d="M15.16113,1.11865a.39592.39592,0,0,1,.11914.28906V4.70557a.40678.40678,0,0,1-.4082.4082h-4.25a.15.15,0,0,0-.16992.16992V24.3916a.40678.40678,0,0,1-.4082.4082h-3.978a.406.406,0,0,1-.40772-.4082V5.28369a.15038.15038,0,0,0-.16992-.16992H1.4082A.40678.40678,0,0,1,1,4.70557V1.40771A.40595.40595,0,0,1,1.4082,1H14.87207A.39468.39468,0,0,1,15.16113,1.11865Zm36.08594,21.981a7.12236,7.12236,0,0,1-4.92969,1.70019H39.89062a.40677.40677,0,0,1-.40722-.4082V1.40771A.40594.40594,0,0,1,39.89062,1h5.67872a7.96521,7.96521,0,0,1,5.32031,1.63184,6.02646,6.02646,0,0,1,1.92187,4.8623,5.44085,5.44085,0,0,1-2.3125,4.89551c-.09082.06836-.10156.13574-.03418.2041a6.47148,6.47148,0,0,1,2.68653,5.64453A6.176,6.176,0,0,1,51.24707,23.09961ZM44.27734,5.28369v5.33838a.14981.14981,0,0,0,.16993.16992H45.6709a2.276,2.276,0,0,0,1.80176-.73144,3.00337,3.00337,0,0,0,.64648-2.05664,3.24353,3.24353,0,0,0-.62891-2.14209,2.24553,2.24553,0,0,0-1.81933-.74805H44.44727A.14981.14981,0,0,0,44.27734,5.28369Zm3.4336,14.55225a3.64541,3.64541,0,0,0,.64648-2.3125,3.95224,3.95224,0,0,0-.64648-2.37989,2.04084,2.04084,0,0,0-1.7334-.88378H44.44727a.14981.14981,0,0,0-.16993.16992v6.05176a.14943.14943,0,0,0,.16993.16992h1.49609A2.1315,2.1315,0,0,0,47.71094,19.83594Z"/>
  <path class="uk-text-primary" fill="#0045d4" d="M23.8,11a.20059.20059,0,0,0,.2-.2V5.5a.50147.50147,0,0,1,.5-.5h4a.50147.50147,0,0,1,.5.5v5.3a.20059.20059,0,0,0,.2.2h5.3a.50147.50147,0,0,1,.5.5v4a.50147.50147,0,0,1-.5.5H29.2a.20059.20059,0,0,0-.2.2v5.3a.50147.50147,0,0,1-.5.5h-4a.50147.50147,0,0,1-.5-.5V16.2a.20059.20059,0,0,0-.2-.2H18.5a.50147.50147,0,0,1-.5-.5v-4a.50147.50147,0,0,1,.5-.5Z"/>
</svg>
