<svg xmlns="http://www.w3.org/2000/svg" width="74" height="68" viewBox="0 0 74 68">
  <path fill="none" stroke="#0045d4" stroke-linecap="round" stroke-linejoin="round" stroke-width="2" d="M42.44,41.63l-2.08-6-4.92,1.2A15.72,15.72,0,0,0,32,33.06l1.8-4.61L28,25.7l-2.63,4.22a16.29,16.29,0,0,0-5.18-.3l-2-4.46L12,27.25,13.2,32a15.94,15.94,0,0,0-3.9,3.4L4.57,33.69,1.71,39.4,6,42A15.36,15.36,0,0,0,5.69,47L1.06,49.1l2.08,6,4.93-1.2a15.46,15.46,0,0,0,3.42,3.78l-1.8,4.63L15.49,65l2.64-4.23a16.18,16.18,0,0,0,5.16.29l2.06,4.49,6.12-2.1L30.3,58.69a16.22,16.22,0,0,0,3.89-3.38l4.74,1.74,2.86-5.72-4.33-2.56a15.36,15.36,0,0,0,.35-5.07ZM24.53,53.38a8.63,8.63,0,0,1-11-5.21A8.52,8.52,0,0,1,19,37.36a8.48,8.48,0,1,1,5.56,16Z"/>
  <path fill="none" stroke="#0045d4" stroke-linecap="round" stroke-linejoin="round" stroke-width="2" d="M63.75,33.53l4-3.43-2.38-3.4a13,13,0,0,0,1.94-3.78l4.12-.05.43-5.28-4.05-.71a13.22,13.22,0,0,0-1.3-4L69.42,9.9,66,5.86,62.62,8.22a13.09,13.09,0,0,0-3.79-1.94l0-4.14L53.5,1.71,52.77,5.8a13.22,13.22,0,0,0-4.05,1.3l-3-2.9-4,3.43L44.09,11a13.26,13.26,0,0,0-1.93,3.78l-4.13,0-.43,5.28,4.07.71a13.42,13.42,0,0,0,1.29,4l-2.88,2.95,3.43,4,3.38-2.37a13.13,13.13,0,0,0,3.78,1.93l0,4.17L56,36l.72-4.1a12.8,12.8,0,0,0,4-1.29ZM49.33,23.46a7.11,7.11,0,1,1,10,.81A7.1,7.1,0,0,1,49.33,23.46Z"/>
</svg>
