<svg xmlns="http://www.w3.org/2000/svg" width="72" height="72" viewBox="0 0 72 72">
    <line x1="48" y1="49" x2="48" y2="63" fill="none" stroke="#0045d4" stroke-linecap="round" stroke-linejoin="round" stroke-width="2"/>
    <line x1="40" y1="49" x2="40" y2="63" fill="none" stroke="#0045d4" stroke-linecap="round" stroke-linejoin="round" stroke-width="2"/>
    <line x1="64" y1="49" x2="64" y2="63" fill="none" stroke="#0045d4" stroke-linecap="round" stroke-linejoin="round" stroke-width="2"/>
    <line x1="56" y1="49" x2="56" y2="63" fill="none" stroke="#0045d4" stroke-linecap="round" stroke-linejoin="round" stroke-width="2"/>
    <line x1="8" y1="49" x2="8" y2="63" fill="none" stroke="#0045d4" stroke-linecap="round" stroke-linejoin="round" stroke-width="2"/>
    <line x1="24" y1="49" x2="24" y2="63" fill="none" stroke="#0045d4" stroke-linecap="round" stroke-linejoin="round" stroke-width="2"/>
    <line x1="32" y1="49" x2="32" y2="63" fill="none" stroke="#0045d4" stroke-linecap="round" stroke-linejoin="round" stroke-width="2"/>
    <line x1="16" y1="49" x2="16" y2="63" fill="none" stroke="#0045d4" stroke-linecap="round" stroke-linejoin="round" stroke-width="2"/>
    <rect x="1" y="41" width="70" height="30" fill="none" stroke="#0045d4" stroke-width="2"/>
    <polyline points="14.82 40.95 36.38 26.95 57.56 40.81" fill="none" stroke="#0045d4" stroke-linecap="round" stroke-linejoin="round" stroke-width="2"/>
    <path d="M31.42,23.93a5,5,0,1,0,5-5V13.2" fill="none" stroke="#0045d4" stroke-linecap="round" stroke-linejoin="round" stroke-width="2"/>
    <polygon points="42 2 31 2 33 13 40 13 42 2" fill="none" stroke="#0045d4" stroke-width="2"/>
</svg>
