<svg xmlns="http://www.w3.org/2000/svg" width="59" height="59" viewBox="0 0 59 59">
    <circle cx="13.27" cy="25.85" r="4.42" fill="none" stroke="#0045d4" stroke-linecap="round" stroke-width="2"/>
    <circle cx="17.93" cy="43.06" r="4.42" fill="none" stroke="#0045d4" stroke-linecap="round" stroke-width="2"/>
    <circle cx="33.91" cy="46.58" r="4.42" fill="none" stroke="#0045d4" stroke-linecap="round" stroke-width="2"/>
    <circle cx="45.51" cy="36.31" r="4.42" fill="none" stroke="#0045d4" stroke-linecap="round" stroke-width="2"/>
    <path d="M30.13,19.64c-4-3.22-6.64-7.92-14.44-7.92-10.46,0-14,8.75-13.87,15.7C2,35.21,3.79,42.83,9.42,49c5.8,6.37,14.93,8.94,24.92,8.18s17.55-6.34,20.81-11.83c3.4-5.74,3-15.38-1.7-18.8-4-2.92-9.19-2.59-15.3-3.67" fill="none" stroke="#0045d4" stroke-linecap="round" stroke-width="2"/>
    <path d="M34.64,19.49,51.07,3.07a2,2,0,0,1,2.79,0l1,1a2,2,0,0,1,0,2.79L39,22.72" fill="none" stroke="#0045d4" stroke-width="2"/>
    <path d="M36.78,28.09c-1.91,1.9-9.6,6.28-11.64,4.24s2.33-9.73,4.24-11.63a4.83,4.83,0,0,1,5.12-1.05,5.31,5.31,0,0,1,2,1.29A5.41,5.41,0,0,1,38,23.74,4.72,4.72,0,0,1,36.78,28.09Z" fill="none" stroke="#0045d4" stroke-linecap="round" stroke-width="2"/>
</svg>
