<svg xmlns="http://www.w3.org/2000/svg" width="150" height="55" viewBox="0 0 150 55">
  <polyline points="117.94 33.43 118 16 58 16 57.94 36.4" fill="none" class="uk-text-primary" stroke="#0045d4" stroke-width="2"/>
  <line x1="96.84" y1="36.95" x2="96.84" y2="16.5" fill="none" class="uk-text-primary" stroke="#0045d4" stroke-width="2"/>
  <line x1="76.7" y1="36.95" x2="76.7" y2="16.5" fill="none" class="uk-text-primary" stroke="#0045d4" stroke-width="2"/>
  <line x1="58" y1="27" x2="118" y2="27" fill="none" class="uk-text-primary" stroke="#0045d4" stroke-width="2"/>
  <polyline points="131 50 147 28 125 28 113 37 50 37 48 33 48 29 13 29 13 33 10 33 10 43 13 50" fill="none" stroke="#000" stroke-width="2"/>
  <line x1="146" y1="50" x2="3" y2="50" fill="none" stroke="#000" stroke-width="2"/>
  <polygon points="25 21 44 21 44 29 21 29 21 24 25 21" fill="none" stroke="#000" stroke-width="2"/>
  <polygon points="35 13 44 13 44 21 31 21 31 16 35 13" fill="none" stroke="#000" stroke-width="2"/>
  <line x1="16" y1="29" x2="16" y2="23" fill="none" stroke="#000" stroke-width="2"/>
  <line x1="43.94" y1="32.8" x2="39.94" y2="32.8" fill="none" stroke="#000" stroke-width="2"/>
  <line x1="37.94" y1="32.8" x2="33.94" y2="32.8" fill="none" stroke="#000" stroke-width="2"/>
  <line x1="44" y1="13" x2="44" y2="5" fill="none" stroke="#000" stroke-linejoin="bevel" stroke-width="2"/>
  <line x1="141.94" y1="27.82" x2="141.94" y2="22.47" fill="none" stroke="#000" stroke-linejoin="bevel" stroke-width="2"/>
</svg>