<svg xmlns="http://www.w3.org/2000/svg" width="70" height="62" viewBox="0 0 70 62">
    <path fill="#0045d4" d="M60.3,22.87l8.36-10.38L42.9.18,35,9.78,27.25,0,1.42,13.13l9.18,9.8L1,32.82l10.06,5.12V48.33L35.48,61,59.9,48.33V37.65l9.52-5.18ZM43.57,3.17,64.88,13.35l-6.52,8.1L36.93,11.26ZM5.37,13.82,26.59,3l6.57,8.24L12.54,21.46ZM33.47,35.3,26,42.81,5,32.16l7.5-7.74Zm.81,22.36L13.47,46.87V39.16l13,6.6,7.83-7.84ZM14.94,23,35,13h0L56,23,35.48,33.63ZM57.49,46.87,36.7,57.66V38.07l7.55,8.11L57.49,39Zm1-22.45,7.07,7.44L44.75,43.17l-7.3-7.83Z"/>
</svg>
