<svg xmlns="http://www.w3.org/2000/svg" width="560" height="440" viewBox="0 0 560 440">
    <path fill="none" stroke="#0045d4" stroke-linecap="round" stroke-linejoin="round" stroke-width="3" data-uk-parallax="rotate: -360" style="transform-origin: 167px 274px 0px;" d="M174.26,340.25A66.53,66.53,0,1,1,233.32,267v.09a66.42,66.42,0,0,1-59,73.14Zm154-58.18L323,232.63l-38.84.48a123.64,123.64,0,0,0-19-35L286.5,166,247.94,134.7l-26.89,27.62a122.55,122.55,0,0,0-38.2-11.38l-7.52-37.78L126,118.38l.48,38.52a123.22,123.22,0,0,0-35,19.09L59.14,154.41l-31.2,38.64,27.84,27.21a123.52,123.52,0,0,0-11.31,38.19L6.38,266.11l5.2,49.42,38.89-.48A123.3,123.3,0,0,0,69.54,350L48.1,382.2l38.56,31.26,27-27.71a122.81,122.81,0,0,0,38.08,11.32L159.24,435l49.32-5.22-.48-38.68a122.37,122.37,0,0,0,34.86-19l32.46,21.66,31.19-38.64-27.9-27.26A123.2,123.2,0,0,0,290,289.72Z"/>
    <path fill="none" stroke="#0045d4" stroke-linecap="round" stroke-linejoin="round" stroke-width="3" data-uk-parallax="rotate: 360" style="transform-origin: 424px 135px 0px;" d="M375.62,160.25a53.92,53.92,0,1,1,.2.39Zm90.13,99.92,36.09-18.62-11.95-29.43a100.48,100.48,0,0,0,21-24.86L541.68,194,554,155.38,525,143.1a100.2,100.2,0,0,0-2.75-32.45l26.5-17-18.65-36L500.93,69.55A101,101,0,0,0,476,48.49l6.79-31L444,5.24,431.6,34.49a101.16,101.16,0,0,0-32.43,2.72l-17.1-26.72L346,29.11l12,29.44A101.28,101.28,0,0,0,337.07,83.4L306.2,76.66l-12.32,38.62L323,127.6a100.28,100.28,0,0,0,2.71,32.33l-26.6,17,18.63,36L347,201.11A100.42,100.42,0,0,0,371.83,222L365,253.13l38.7,12.29,12.45-29.31a101.12,101.12,0,0,0,32.38-2.64Z"/>
</svg>
