<svg xmlns="http://www.w3.org/2000/svg" width="150" height="58" viewBox="0 0 150 58">
    <path d="M8,29.65a1.21,1.21,0,0,0,1.2,1h8a1.26,1.26,0,0,0,.68-.2l1.84-1.2A1.25,1.25,0,0,0,19,26.92H11.28" fill="none" class="uk-text-primary" stroke="#0045d4" stroke-linecap="round" stroke-linejoin="round" stroke-width="2"/>
    <path d="M112.74,22.14c.74,0,1.36.07,1.86.09,6.69.42,22.3,3.14,22.3,3.14a4.11,4.11,0,0,1,.75.21l8.29-24.47H134Z" fill="none" stroke="#000" stroke-linecap="round" stroke-width="2"/>
    <path d="M85.62,42.11l14.41,0c5.8,0,32.94-8.62,36.95-10.71s2.81-5.49-.08-6c0,0-15.61-2.72-22.3-3.14-8.48-.54-83.51-1-92.58,0-3.12.37-7.62,2.4-11.47,4.86a29.51,29.51,0,0,0-6,4.8,5.12,5.12,0,0,0-1.6,3c0,3.87,7.13,7,13.83,7.15,3,.07,19.19.08,36.51.07" fill="none" stroke="#000" stroke-linecap="round" stroke-linejoin="round" stroke-width="2"/>
    <path d="M56.66,39.39a16.13,16.13,0,0,0-1.8.1c-1.15.23-1.88,1.7-1.46,3.79s1.18,3.44,2.82,3.8a68.63,68.63,0,0,0,9.09.45,22.29,22.29,0,0,0,3.26-.24" fill="none" class="uk-text-primary" stroke="#0045d4" stroke-width="2"/>
    <path d="M51.19,35.92c-.35-1.74,1.89-2.11,5.88-2.09a113,113,0,0,1,21.68,2.59L101.4,56.51l-18.29.22Z" fill="none" stroke="#000" stroke-linecap="round" stroke-width="2"/>
    <path d="M117.84,30c0,1.12,1.65,2,3.66,2,1.57,0,24.13-2,24.13-2s-22.56-2-24.13-2S117.84,28.89,117.84,30Z" fill="none" stroke="#000" stroke-linecap="round" stroke-linejoin="round" stroke-width="2"/>
    <line x1="30.73" y1="29.6" x2="30.72" y2="28.04" fill="none" class="uk-text-primary" stroke="#0045d4" stroke-linecap="round" stroke-linejoin="round" stroke-width="2"/>
    <line x1="35.63" y1="29.6" x2="35.63" y2="28.04" fill="none" class="uk-text-primary" stroke="#0045d4" stroke-linecap="round" stroke-linejoin="round" stroke-width="2"/>
    <line x1="40.53" y1="29.6" x2="40.53" y2="28.04" fill="none" class="uk-text-primary" stroke="#0045d4" stroke-linecap="round" stroke-linejoin="round" stroke-width="2"/>
    <line x1="45.44" y1="29.6" x2="45.43" y2="28.04" fill="none" class="uk-text-primary" stroke="#0045d4" stroke-linecap="round" stroke-linejoin="round" stroke-width="2"/>
    <line x1="50.34" y1="29.6" x2="50.34" y2="28.04" fill="none" class="uk-text-primary" stroke="#0045d4" stroke-linecap="round" stroke-linejoin="round" stroke-width="2"/>
    <line x1="55.24" y1="29.6" x2="55.24" y2="28.04" fill="none" class="uk-text-primary" stroke="#0045d4" stroke-linecap="round" stroke-linejoin="round" stroke-width="2"/>
    <line x1="60.15" y1="29.6" x2="60.14" y2="28.04" fill="none" class="uk-text-primary" stroke="#0045d4" stroke-linecap="round" stroke-linejoin="round" stroke-width="2"/>
    <line x1="65.05" y1="29.6" x2="65.05" y2="28.04" fill="none" class="uk-text-primary" stroke="#0045d4" stroke-linecap="round" stroke-linejoin="round" stroke-width="2"/>
    <line x1="69.95" y1="29.6" x2="69.95" y2="28.04" fill="none" class="uk-text-primary" stroke="#0045d4" stroke-linecap="round" stroke-linejoin="round" stroke-width="2"/>
    <line x1="74.86" y1="29.6" x2="74.85" y2="28.04" fill="none" class="uk-text-primary" stroke="#0045d4" stroke-linecap="round" stroke-linejoin="round" stroke-width="2"/>
    <line x1="79.76" y1="29.6" x2="79.76" y2="28.04" fill="none" class="uk-text-primary" stroke="#0045d4" stroke-linecap="round" stroke-linejoin="round" stroke-width="2"/>
    <line x1="84.66" y1="29.6" x2="84.66" y2="28.04" fill="none" class="uk-text-primary" stroke="#0045d4" stroke-linecap="round" stroke-linejoin="round" stroke-width="2"/>
</svg>
