<svg xmlns="http://www.w3.org/2000/svg" width="70" height="68" viewBox="0 0 70 68">
    <rect x="13" y="9" width="44" height="23" fill="none" stroke="#0045d4" stroke-width="2"/>
    <polyline points="28.43 8.97 35 2 41.57 8.97" fill="none" stroke="#0045d4" stroke-linecap="round" stroke-linejoin="round" stroke-width="2"/>
    <line x1="10" y1="66" x2="26" y2="66" fill="none" stroke="#0045d4" stroke-width="2"/>
    <path d="M15.2,66.33l0-22.36v0a3,3,0,1,1,6,0v0l0,22.36" fill="none" stroke="#0045d4" stroke-width="2"/>
    <line x1="44" y1="66" x2="59" y2="66" fill="none" stroke="#0045d4" stroke-width="2"/>
    <path d="M49.09,66.33l0-22.36v0a3,3,0,1,1,6,0v0l0,22.36" fill="none" stroke="#0045d4" stroke-width="2"/>
    <path d="M49.07,45.1c-1.75,3.1-7.53,5.38-14.4,5.38-5.88,0-11-1.68-13.4-4.11" fill="none" stroke="#0045d4" stroke-width="2"/>
    <path d="M69,50.48h-.32c-5.88,0-11-1.68-13.41-4.1" fill="none" stroke="#0045d4" stroke-linecap="round" stroke-width="2"/>
    <path d="M1,50.48h.32c6,0,11.13-1.68,13.6-4.1" fill="none" stroke="#0045d4" stroke-linecap="round" stroke-width="2"/>
</svg>
