<svg xmlns="http://www.w3.org/2000/svg" width="1830" height="530" viewBox="0 0 1830 530">
  <path fill="#fff" opacity=".1" d="M895.72,360,888,362.67c.63,5.21.98,7.82,1.63,13.07L898,376C897.1,369.57,896.65,366.37,895.72,360Zm924.02-168.25,6.3501-2.92c.16992-3.11005.25-4.67005.41992-7.8l-20.33008-8-11.76,2.9c-23.69995-9-47.34985-18.08-70.81994-27.58-13.65-2.55-22-3.8-40.72-6a163.24826,163.24826,0,0,1,14,14.21l-4.46008,2.76c-11.33984-6.12-18-9.15-32.17993-15.18q-30,1.38-60.06006,3.45c-14.51-6.3-22-9.45-36.06994-15.72-16.44007.44-24.13.73-37.22,1.41,0,0-30.36-7.62006-30.72009-9-.35986-1.38-4.13989-8.76-4.13989-8.76-17-1.16-25.07007-1.62-40.79-2.37l-3.52,8.35,7,9.17c-13.32.76-19.76,1.22-32.40991,2.28.38989,3.59.58,5.38,1,9-8.28-4.18-12.36011-6.27-20.45007-10.43-1.63-5.14-2.44007-7.73-4.1-12.94-9.43994-2.19-14.1001-3.26-23.37-5.37-.21008,2.93-.31994,4.39-.54,7.3-3.34,1.85-5,2.78-8.33,4.65-5.13-3-7.67993-4.43-12.79-7.4-12.22.78-18.30005,1.22-30.56006,2.15-2.77991,3.73-4.17993,5.58-7,9.3l-9-3c5.75-11.17,8.57007-16.8,14.12012-28.16-8.12012-6.7-12.21-10.09-20.51-17L1289.47,85.46l-10.08-5.14c-2.6-3.28-3.92-4.92-6.55993-8.24l-9.69007.17c.33,8.43.46,12.59.69007,20.81-3.20008,3.28-4.81006,4.92-8.06006,8.19-4.21-1.26-6.29-1.81-10.62-3.16-11.30993,9.81994-17.15,14.67-29,24.27,4.58,2.94,6.84,4.4,11.32,7.31-9.28,2.7-14,4-23.52,6.71,6,6.65,9,9.95,14.87012,16.47l-5,2.38C1206.1,152.09,1202.17993,150.5,1194.26,147.3c-5.84009,4.3-8.77,6.45-14.66,10.73,6.6,10.16,9.83,15.18994,16.14,25.12994-1.28,8.84-1.93994,13.23-3.26,22-2.67993-9-4-13.47-6.84-22.55-7.70007-14.58-11.68005-22-19.9-37l-11.5-.37c-2.29,9.12-3.44995,13.64-5.78,22.63,5.11011,6.14,7.63013,9.2,12.61011,15.28q-23.265-6.25506-46.6001-12.35v6.71c4.24,2.78,6.36011,4.16,10.56006,6.93-14.93.91-22.44995,1.38-37.47,2.38-9.19006,4.72-13.77,7.08-22.88013,11.86-3.33984-5.31-5-8-8.40991-13.25h-10.12c.32,6.75.47,10.13.75989,16.88l-7.11987,2.31s-3-11.07-6-12.31S1004,179.34,1004,179.34c-9.39-2-14.09-3-23.43-4.81l-3.43-5.72c-11.55-1.48-17.3-2.15-28.7-3.36-14.93,7-29.5,14.58-44.5,21.39.86,4.52,1.27,6.73,2.1,11.2-6,8-9,11.88-15,19.71-12.69,9-19.09,13.3-31.79,22.15,2.06,8.74,3.08,13.12,5.1,21.87l10,6.13c7.76-2.52,11.64-3.78,19.35-6.36,4.36,6.31,6.51,9.45,10.78,15.7l-2.82,4.53c-3.06-.19-4.59-.29-7.67-.51l1.83-6.3-6.35-5.46-9.58,6.4c.32,5.82.47,8.74.79,14.58-6.51,2.1-9.78,3.13-16.31,5.22-3.19,3.49-4.78,5.24-8,8.77L846.78,307.09c.43994-3.78.66-5.66,1.1-9.42005L840.5,295.59c.67-2.6,1-3.89,1.69-6.48l-14.73-11.17c-.4-4.39-.61-6.58-1-10.95l-10.34-8.18c-6.07,1.71-9.1,2.58-15.14,4.36.89,5,1.34,7.56,2.23,12.62-7.22,4.44-10.81,6.7-17.91,11.33.19,2.86.29,4.29.49,7.15-.93,3.6-1.38,5.4-2.29,9l13.32,3.61c4.7-2.32,7.06-3.46,11.8-5.72.39-3.26.59-4.88995,1-8.13995,3.74-3,5.62-4.47,9.4-7.41l7.6,5.06c-4,2.93-5.95,4.41-9.88,7.39-.29,5.47-.44,8.21-.72,13.71-2.61005,1.88-3.91,2.82-6.51,4.72l7.87,2.76c-.15,4.33-.23,6.49-.39,10.84l9.2,1.61c3.68,4.82,5.51,7.22,9.14,12-1.4,3.12-2.09,4.68-3.47,7.83-14.61-.18-21.95-.26-36.56-.28-.94,15.62-1.4,23.49-2.38,39.33l13.69,3.47,6.23,4.06c-1.33,3.42-2,5.14-3.32,8.58-6.66,4.07-10,6.14-16.61,10.31-1,6.11-1.49,9.18-2.49,15.32-6.59,4.52-9.87,6.8-16.43,11.38-8,13.42-12,20.16-20,33.53,1.71,2.26,2.57,3.38,4.28,5.65q-1.785,22.665-3.34,45.34l8.08-.72c1.29.92,2.45,1.74,3.52,2.5H1082.4c-.08-.18-.16-.37-.24011-.56-9.45-8.84-14.17993-13.27-23.65991-22q-10.125-20.19-20.73-40.16c1.31006-3.26,2-4.89,3.29-8.13l-7.5-2.13c-3.24-5.62-4.87012-8.4-8.13013-13.94l8.12012-3.34c7.21,10.79,10.79993,16.26,18,27.36,1.63989,5.57,2.44995,8.38,4.09,14,8.41,10.27,12.6,15.49,21,26,3.67,8.13,5.51,12.23,9.17,20.47,16.65991-4.1,25-6.17,41.87988-10.51,3-3.71,4.45007-5.55,7.42-9.23,10.29992-4.34,15.47009-6.52,25.85-11,4.21-6.93,6.28-10.38,10.54-17.23l-6.38-7.8c-4.27991-.59-6.42-.9-10.70008-1.54l-9-9.12c-2.65991,3.06-4,4.59-6.63989,7.66-5.87012-1.08-8.79-1.63-14.64-2.76-7.53-11.44-11.27-17.1-18.78-28.3l4.7301-4.35c8.78991,7.21,13.16992,10.82,21.93994,18,15.86,4.4,31.83,8.56,47.87,12.36,9.34.46,14,.64,23.41.88,8.93994,8.91,13.54993,13.4,22.28,22.43,6.2-.57,9.25989-.84,15.34985-1.38-.46,4.95-.67993,7.44-1.10986,12.44q6.94482,15.9,13.78992,31.88h30.17c2.05-7.28,3.86-13.48,6.62988-22.65,13.06006-11.36,19.75-17,32.7301-27.62,5.27991.55,7.92.82,13.18006,1.39,5.41992,9.72,7.8999,14.71,13.3999,24.63-.45,2.34-.66992,3.51-1.11,5.86l6.20007,4c3.10986-1.7,4.66992-2.54,7.77991-4.21,3.27,7.58,5.27,12.08,8.26,18.6h53.71008c-.39014-5.29-.62012-9.36-.94007-15.8-6.85-6.84-10.21008-10.26-16.79992-17.09,2.78992-4.43,4.21-6.62,7.13989-11l10.14,1.15c-.81995,4.39-1.19007,6.61-1.89,11.06l7.66,1.76c2.12-5.74,3.23-8.57,5.58-14.17005,10.72-3,16.21-4.46,27.24-7.31994,6.1001-4.4,9.16-6.58,15.41-10.88,5.09-9.73,7.68005-14.52,13-24-1.77991-7-2.67-10.5-4.44007-17.44-5.15991-6.22-7.72-9.32-12.66992-15.52,6.69995-3.86,10.15991-5.77,17.34009-9.52L1487.9,397l-18-1.08-5.16-4.88c5.51-4,8.16-5.92,13.59009-9.87,1.57983,3.34,2.38989,5,4,8.35,5.43994-1.17,8.24-1.75,14-2.88,1.82983,4.67,2.75,7,4.57983,11.68l11.36011,1.87c-.91,6.46-1.3501,9.71-2.22,16.24,7.48-1.62,11.31995-2.41,19.10986-3.94-1.21-6.37-1.80993-9.54-3.05993-15.86-3.25-3.7-4.89-5.55-8.17-9.25,3.72009-3.13,5.61011-4.68,9.46008-7.77,1.74-3.92,2.63-5.87,4.42-9.75,7.74-.23,11.68994-.33,19.61987-.49,2.66016-2.47,4-3.7,6.71008-6.14,7.08-6,10.72-9,18.13-14.81,3.7-7.77,5.6-11.63,9.48-19.3-1.5-6.53-2.28-9.79-4-16.33,4.12,2.26,6.15991,3.4,10.16992,5.68.64014,12.12006.87012,18.18,1.28,30.33,7.81006.33,11.68005.51,19.20007.94-3.29-8-5-11.94-8.71008-19.92,3.33008-.18,5-.27,8.28-.43a360.21042,360.21042,0,0,0-21.81006-33.3c-17.63989-2.48-26.82983-3.61005-44.27991-5.78-2.9-3-4.36-4.49-7.28991-7.49,11.6499-12.22,17.87988-18.24,31.08984-30.09,16.43006-.93,25-1.33,41.68006-1.87,9.4,2.35,14,3.55,22.80993,6,7.95008.17,11.8501.28,19.33008.59-2.53-3.18-3.86-4.77-6.58008-8,5.30005-5.94,8-8.9,13.36011-14.8,5.15991.88,7.6499,1.34,12.40991,2.28,2.12012,2.17,3.12012,3.26,5.22,5.42,8.5-.13,12.82007-.17,21.55-.23q-17.45983,19.005-34.46,38c6.54,14.84,13.66992,29.56,21.21,44,4.26-1.54,6.4-2.31,10.7-3.83,8.09009-13.76,12.28-20.57,20.87012-34.18-5.37012-6.21-8-9.34-13.27-15.62.79-5.49,1.21-8.24,2.06006-13.76,11.75-1.72,17.69995-2.54,29.6499-4.15,0,0,13.77,7.48,15.14,5s31.7301-21.29,31.7301-21.29,10,4.58,10.65991,3.48,4-6,4-6c-8.52-7-12.83008-10.49-21.41992-17.6,4.28992-3.32995,6.42993-5,10.74-8.32995-5.33008-4.82-8-7.25-13.32007-12.14l7.83008-1.95,9,5.55,9.25-.91c7.7699,2.89,11.63989,4.33,19.30993,7.2l8.80994-.31C1824.72,199.9,1823.06006,197.2,1819.74,191.75ZM925.61,275c0-.7-.67-13.06-.67-13.06,3.48-3.12,5.23-4.68,8.74-7.77-4-5.19-6-7.74-10.08-12.92,10.68005-12.44,16-18.71,27-31,1.54,3.27,2.3,4.91,3.83,8.18-5.56,6.53-8.32,9.81-13.78,16.41,4.31,7.44,6.46,11.18,10.72,18.68,11.42-2,17.17-2.93,28.77-4.68.71,3,1.07,4.50995,1.78,7.52-10.38995.56-15.56.89-25.83,1.65-2.56,3.79-3.84,5.68-6.38,9.48-1,6.34-1.56,9.51-2.6,15.88-7.62,0-11.42.07-19,.23-6.32,3.06-9.5,4.59-15.89,7.56-3.4-.67-5.11-1-8.54-1.72C903.68,289.44,925.61,275.68,925.61,275Zm101.17,148.17v-.03c-5.18-1.26-7.77-1.89-12.95-3.13l-10.38,2.44c-15-4.7-22.51-7-37.57-11.28-5,.28-7.56.44-12.59.76-1.82,5.09-2.73,7.65-4.54,12.79-9.47-4.79-14.23-7.12-23.75-11.62-10.41-2.62-15.66-3.9-26.22-6.45,2.69995-2.73,4.06-4.1,6.76-6.81-2.21-4.74-3.32-7.1-5.55-11.82,0,0-39.57,2-41.42,2S838,398.67,838,398.67c-7.21.62-10.81.94-18,1.59-.45-2-.68-3-1.14-4.95,10.81-3.64,16.24-5.42,27.11-8.9,0-4.81994,0-7.23.06006-12,6.87-7.11,10.33-10.61,17.29-17.54l11.29,1.48c7.23-3.38,10.84-5.05,18.07-8.39,3.05,4.8,4.56,7.19,7.56,12l15.2,4.63c1.66,4.36,2.48,6.54,4.13,10.93l-8.64,3.4c1.12,3.52,1.67,5.28,2.78,8.82,6.71-1.7,10-2.58,16.72-4.21,2.35-5.9,3.53-8.84,5.9-14.68-10.68-7.66-16-11.28-26.94-18.75.35-3.47.53-5.21.87-8.67,3.91,4.16,5.86,6.24,9.71,10.4,7.14,1.07995,10.66,1.62,17.76,2.82,5.45,7.71,8.16,11.61,13.55005,19.51l-2.75,4.73c5.78,3.79,8.66,5.71,14.42,9.6,4.92-3.87,7.39-5.79,12.35-9.6l-7.24-2.1-1.75-6.31c6-1.13995,9.05-1.69,15.09-2.76-.09,5.57-.14,8.37006-.24,14,3.94,3.86005,5.9,5.81006,9.81,9.74,11.74,2.21,17.61005,3.37,29.32,5.75,4.38995-1.23,6.59-1.83,11.00006-3,2.84,1.84,4.27,2.76,7.1,4.61C1033.65991,409.64,1031.34009,414.12,1026.78,423.17Zm19.34-55.31v-.01c-9.08-3-13.63-4.44-22.74-7.33-8.77,2.53-13.13,3.82-21.82,6.45-4.5-3.32-6.76-5-11.28-8.23,6.62-8.3,10-12.41,16.72-20.55,5.07,4.59,7.59,6.9,12.61,11.55,7.63-.85,11.45007-1.26,19.11-2.06,9.49,8,14.18994,12,23.53,20.18Zm77.4,30.81v.02l-15.69995-10.31c1.59985-4.63,2.40991-6.94,4-11.53l-8.59009-8.28c-3.1-8.1-4.65991-12.13-7.80005-20.15l18-4.46c-2.74,3.82-4.09985,5.74-6.80993,9.6q13.17,19.005,26,38.25Zm474.99-18.21c-3.27-.57-4.91992-.85-8.24-1.4-2.84009,7.75-4.22,11.66-6.88,19.55-6,.15-9,.24-14.94006.45l-.02-.06c-2,3.1-3,4.66-4.90991,7.79-6.07007.75-9.11011,1.15-15.12,2-6.3,5.16-9.38,7.78-15.4,13.1.59009,4.48.88,6.73,1.46,11.24l6.31006.91c1.17993-3,1.78-4.42,3-7.34,3.78-2.64,5.68994-3.94,9.54-6.53,5.44995.71,8.17993,1.07,13.62988,1.81,11.44006-3.66,17.26-5.42,28.69006-8.77.19007-5.23.30994-7.83.56995-13,2.31006-3.07,3.48-4.6,5.82007-7.64C1600.62,387.73,1599.91992,385.3,1598.51,380.46Zm27.11-16.41c-5.09-1-7.46009-1.42-12.26-2.27h-.0199C1607.85,358.65,1605.02,357.1,1599.2,354c-1,4.41-1.44995,6.62-2.37988,11.06-4.30005.25-6.46008.38-10.80005.66V372c2.86.78,4.29,1.18,7.11,2,2.92-1.48,4.38-2.21,7.29993-3.67,4,1.11,6,1.67,9.90015,2.79,2.43994-1.81,3.65991-2.71,6.09985-4.49,4,.19,6.29.37,10.59009.65C1626.45,367.19,1626.16992,366.15,1625.62,364.05ZM1486.72,466c-2.71,3.37-4.06006,5.07-6.72,8.48,2.36,3,3.54,4.51,5.91992,7.52,2.39014-6,3.61011-9,6.08008-14.94Zm5.55,52.41c1.26-2.79,1.8999-4.17,3.21-6.93-.40991-2.49-.61-3.72-1-6.19l-8.79-1.29c-2.38989,5.22-3.53,7.85-5.71,13.18,2.64,5.23,4.38,8.63,6.59009,12.82H1492.45c.53-1.09,1.1001-2.25,1.80005-3.67l5.92993,3.67h5.65015C1500.56006,525.5,1497.67993,523.08,1492.27,518.41ZM756.51,197.04l.03-.04c-10.48,1.24-15.68,1.94-25.9,3.59-3.12-1.47-4.68-2.2-7.78-3.63-2.76,1.41-4.13,2.13-6.86,3.59L724,216c7.09,1.11,10.66,1.73,17.86,3,9.51-4.35,14.34-6.41,24.11-10.37C762.18,203.97,760.28,201.63,756.51,197.04ZM1439.57007,99,1436,102.84l2.44995,4.77c4.46.54,6.71.82,11.25,1.39L1452,104.27ZM1454.71,71c-3.11.14-4.6499.21-7.71.38.72,2.49,1.07007,3.73,1.78,6.2L1460.59009,81c1-1.92,1.43994-2.89,2.40991-4.81C1459.65,74.11,1458,73.07,1454.71,71ZM1438,76.27c-.75-3-1.13-4.48-1.9-7.49-8.4-1.54-12.52991-2.3-20.7-3.78-.28,1.63-.43,2.44-.72009,4.07-6.33-.64-9.46-.95-15.67993-1.55,1.91992,5,2.86,7.52,4.75,12.47,5.59009,2,8.4,3,14.08008,5V85C1425.83008,81.45,1429.83008,79.7,1438,76.27ZM1227.42993,36.15c-5.60986-.78-8.44995-1.17-14.18994-1.94-5.19995-6-7.84-9-13.18994-15.13L1193.47,18c-.54,8.09-.84,12.09-1.47,20,1.72,3.84,2.58008,5.74,4.28,9.55,15.28,3.77,22.75,5.68,37.23,9.46V57c1.81006-1.84,2.69995-2.75,4.49-4.6C1233.84009,45.96,1231.73,42.71,1227.42993,36.15Zm32.37012,19.15C1254.37,52.82,1251.65,51.6,1246,49c1.64,8.93,2.41992,13.32,4,22,4.88-3.66,7.29-5.49,12-9.15C1261.12,59.25,1260.67993,57.94,1259.80005,55.3ZM1090.66992,155.88c.06006-1.05,9.43006-28,9.43006-28,13.16-8.53,19.76-12.81,32.9-21.44-3.86-3-5.80005-4.46-9.69995-7.44-12.18005,5.71-18.29,8.56-30.49,14.25-6,10-9,14.87-14.92,24.65-2.35,9.49-3.53,14.19-5.89,23.55,12.12,5,18.15,7.51,30.08008,12.55,1.22-2.69,1.83984-4,3.05993-6.74C1105.14,167.26,1090.61,156.93,1090.66992,155.88ZM1076.09009,34c-6.75,6.39-10.13013,9.55-16.87012,15.82-3.38989-5.47-5.1-8.21-8.55005-13.73l-7-.68006s-6,21.39-4.35986,21.47L1060.74,58l14.07007-6.61c2.88989-5.66,4.33-8.52,7.18994-14.28ZM1022.61,47c-2.12,2.09-3.17,3.13-5.29,5.2l-8.49-3.35L1002,54c6.77,3.17,10.15,4.77,16.91,8,4-4,5.99994-6,10.09-10ZM921.25,83.23c-1.92-.7-9.25-4.66-9.25-4.66,6.55-2.13,9.78-3.28,16.39-5.42,3-4.63,4.57-7,7.64-11.6C923,60.4,916.7,60.07,903.79,59c-4.79,3.92-7.2,5.85-12,9.66-8.25.4-12.4.57-20.74.85.38,8.3.56,12.43.92,20.63,11.49,8.39,17.22,12.6,28.48,20.83,2.77-8.17,4.15-12.29,6.91-20.62,2.33-.15,3.49-.23,5.81-.4,1.24,4,1.85,5.92,3.08,9.85,5.6.38,8.39.53,14,.93C930.25,100.73,923.17,83.93,921.25,83.23Zm-20.8,27.74c0,.01-.01.02-.01.03h.05C900.48,110.99,900.46,110.98,900.45,110.97ZM784,46.07c-6.38-2.53-9.56-3.78-15.92-6.24l-15.64,5.5c-.72-3.15-1.08-4.73-1.8-7.91L746,36.79l-4.3,3.91c-4.26-.2-6.39-.3-10.63-.47,2.34-2.84,3.51-4.27,5.84-7.15,7.93006-1.44,11.92-2.14,19.91-3.52-.57-1.84-.86-2.77-1.45-4.62-7.44-3.52-11.15-5.27-18.57-8.73.33-2.08.5-3.12.82-5.22-13.11-2.1-19.38-3.1-32.59-5-6,2.77-9.48,4.25-16.83,7.35-10.15,1.93-15.81,3.06-27.5,5.49,1.44,2,2.15,3,3.56,5-4.81,6.15-7.24,9.2-12,15.25-7.69-4-11.7-6-19.82-10-1.35,4.28-2,6.39-3.27,10.58-5,.69-7.53,1-12.52,1.75.44-3.9.67-5.87,1.18-9.85-13.36,1.13-20.1,1.75-32.74,2.86-5.9-5-8.81-7.56-14.38-12.78-10.88-1.64-16-2.5-25-4.47-7.23.29-10.16.34-16,.39-.61-1.37-.91-2-1.49-3.43-11.24,3-16.59,4.34-26.93994,7-1.42,2.27-2.12006,3.4-3.49,5.63-2.79-.42-4.17-.64-6.91-1.07-9.37,5.5-13.84,8.14-22.59,13.3.74,5,1.16,7.53,2.08,12.46l-2.63,2.49-4.55-2.47c-.49-4.43-.71-6.67-1.06-11.18l-5-1.79c-6.15,9.89-9,14.69-14.77,24.23,1.73,2.94,2.61,4.4,4.41,7.31l-4.07,2.34c.82,4.13,1.25,6.19,2.14,10.28,5.12994.58,7.72.86005,12.94,1.41-.58,4.13-.87006,6.18-1.45,10.29l-10.76,5.33C438,97,434.28,95.7,427,93.08l-3,5.49c3.71,3.64,5.59,5.45,9.4,9.05-1.54,5-2.32,7.47-3.94,12.47,0,0,14.07,5.65,14.86,5.56994s26.36,2,26.36,2c2.86-3.87994,4.27-5.81,7.07-9.67-13.42-2.72-19.95-4.11-32.8-7,1.44-2,2.15-3,3.57-5.07,7.21.15,10.84.23,18.19.35,5.69,2,8.57,3,14.4,5l6.1-5.73c-.3-3.72-.45-5.58-.74-9.32L500,89.47c3.68-5.79,5.53-8.68994,9.34-14.58C521,67.2,526.93,63.3,539.74,55c.13,7.54.31,11.22.75,18.51l-30.61,11c-.16,3.29-.24,4.93-.39,8.19,3.36,2,5.06,3.06,8.49,5.08L512.34,102.85c2.88995,4.46,4.35,6.68,7.28,11.11,11.87-.17,17.93-.28,30.41-.57,6.49,10.67,9.77,16,15.87,26.84-.49,6.15-.78,9.25-1.51,15.51,5.64.9,8.33,1.41,14.09,2.26-.17,2.67-.26,4-.47,6.69-4.26-.18-6.3-.31-10.52-.5-2.29,3.84-3.45,5.77-5.83,9.65,3,2.81994,4.53,4.25,7.46,7.15-3.44,5.11-5.2,7.68-8.84,12.88,1.17,8.74,1.84,13.14,3.3,22l5.62,4.49c3.44,8.82,5.23,13.26,8.91,22.2,7.5,3.4,11.34,5.09,19.33,8.29,4.29.08,6.47.1,10.89.12,7.29-12.58,11.18-19,19.34-31.87,8.23-5.94,12.46-9,21-14.95-1-1.6-1.51-2.39-2.51-4,6.4-.71,9.62006-1,16-1.7,8-7.12,12-10.67,19.92-17.53,10.56-2.49,15.75-3.63,25.52-5.45a318.685,318.685,0,0,1,24.94-20.41c-1.8-5.87-2.68-8.77-4.41-14.52,3.17-3.67,4.78-5.49,8.02-9.1,2.64-.48,4-.72,6.63-1.18,3.63995-5.43,5.48-8.12,9.18994-13.49-4.77-6.5-7.13995-9.71-11.84-16.07,4.8-.11,7.21-.16,12-.22l1-4.75c-2.29-1.27-3.43-1.9-5.71-3.13995,5.43-11,8.17-16.53,13.58-27.82C770.2,57.41,774.81,53.7,784,46.07ZM434.4,71,427,73.78s1.18,10.76,2.44,11L439.3,87c1.08-3.1,1.62-4.65,2.7-7.77C438.89,75.96,437.37,74.31,434.4,71Zm-15.53-7.56c-1.3-2.17-1.94-3.26-3.21-5.44L411.08,59.81c.62,3,.93,4.56,1.57995,7.59L408,70.53c2.6,1.76,3.9,2.63995,6.54,4.37994.73,2.74,1.1,4.1,1.86,6.83l3.7.26c1.56-6,2.33-9,3.9-15.12C421.94,65.51,420.91,64.82,418.87,63.44Zm-1.01,43.28c.79-3.75,1.18-5.62,1.95-9.37l-12.43-1.93c-1.41,1.81-2.11,2.72-3.54,4.53l-5.5-5c-1.32,2.46-2,3.69-3.34,6.15v.05c3.09,5.44,4.67,8.15,7.89,13.54l12.56-.56c.88,1.75,1.33,2.63,2.22,4.38l7.55.49c1.13-2.65,1.68-4,2.78-6.62C423.91,110.13,421.88,109,417.86,106.72ZM392.66,60c-5,.61-7.45.91-12.47,1.55-.25,2.16-.37,3.25-.62,5.41L377,68.69l-6.25-1.55L369,69.66c.92,2.83,1.39,4.24,2.34,7L379.45,80c1.62-2.45,2.42-3.68,4-6.13L394,70.15c.79-2.2,1.18-3.31,2-5.52C394.65,62.78,394,61.86,392.66,60ZM382.54,98c-.58-3.5-.87-5.25-1.43-8.76L374.77,89c-1.06,5.15-1.59,7.73-2.67,12.87l-5.08.31c-3.34-6.41-5-9.64-8.2-16.09,2.66-5.35,4-8,6.56-13.35-4.4-.28-6.61-.42-11.07-.67-10.55,6.22-16,9.37-27.31,15.81l11.08,9.49L344.24,95,347,97.9c-3.42,2.14-5.16,3.21-8.67,5.36,4.68,2.21,7,3.33,11.66,5.55-1.12,2-1.69,3.08-2.83,5.13l8.75,1.07,12.75-3.92,11.69.11c3.94-4.42,5.87-6.62,9.67-11Zm93.6,392.05c-4.56-2-6.84-3-11.41-5.05l-10.49.58c-.22,2.3-.34,3.45-.57,5.76L444,491.1l3.95,4,15.22,1.9L477,493.89C476.66,492.35,476.49,491.58,476.14,490.05Zm-42.75-14.51c-7.36-2.65-11.05-3.94-18.47-6.51V469c-6.12-.79-9.19-1.18-15.36-1.95-3.81,1.11-5.72,1.67-9.56,2.77,1.12,1.25,1.67,1.88,2.78,3.14h9.33c12.27,3.55,18.34,5.4,30.44,9.14l7.45-1C437.36,478.86,436,477.75,433.39,475.54ZM558.87,326.38l-12.6-7.17c-.77-8.47-1.15-12.7-1.87-21.12-10.62-6.34-15.88-9.47-26.32-15.63.08-3.8.13-5.7.24-9.5-4.87-9.89-7.26-14.8-11.9-24.52-6.6,6.49-9.86,9.72-16.36,16.19l-5.17-3.34c-.61-5.73-.9-8.58-1.43-14.26-6-4.69-9-7-14.85-11.6-8.16-.37-12.23-.55-20.38-.89-1.23,7.34-1.8,11-2.9,18.42l-7.56,8.39,7.65,8.56c-.53,4.28-.79,6.43006-1.29,10.72-5.42,2.63-8.14,3.94-13.58,6.56.11,6.64.18,10,.34,16.65l-7.58,7.49-6.59-7.9s1.82-18.11-.5-17.94-10.09-.61-10.09-.61c-12.7-6-19-8.93-31.77-14.71-3.18-7.44-4.74-11.13-7.77-18.43,10.67-8.33,16-12.51,26.6-20.89,0-1.93.06-2.9.11-4.81995,7.89-3.22,11.81-4.84,19.65-8.09l6,8.64,8.83-4.41c4.51,1.15,6.77,1.73,11.28,2.91l5.5-2.77c-4-5.15-5.94-7.71-9.8-12.75,6.27-5.4,9.4-8.12,15.48-13.52-.68-2-1-3.06-1.74-5.09,7.34-7.64,10.9-11.45,17.8-19,1.64,4,2.44,6,4,10.07-1.69,2.47-2.55,3.7-4.29,6.18.48,1.88.72,2.82,1.18,4.72l17.18-1.37c-4.87,7.25-7.53,10.92-12.67,18.26l-15.29,3.31a39.58269,39.58269,0,0,1,1.11005,5.7c.26,2.67,17.36.15,17.36.15,1.53,3.65,2.31,5.49,3.89,9.18005,9,3.39,13.48,5.12,22.57,8.62l7.24-2.91c2.72-2.64,4.08-4,6.82-6.6-3-5.86-4.53-8.78-7.43005-14.56l9.37006.07c5.79-5.49,8.72-8.24,14.65-13.76-10.67-6.2-16.14-9.12-27.1-14.91,3.61-5.52,5.36-8.25995,8.76-13.72-10.62-7.14-16-10.63-26.62-17.62-1.87006-6-2.86005-9-4.86005-15-10.47-1-15.63-1.46-25.84-2.46-5.42005-1.33-8.11005-2-13.45-3.36-7.72,7.75-11.67,11.65-19.86,19.52,0,0,1,12.1-.86005,14.92s16.54,7.75,16.54,7.75c-7.26,6-11,9.08-18.53,15.15,1.11005-4.31006,1.64-6.47,2.64-10.77l-7.48-.47c-1.66-5.57-2.51-8.35-4.25-13.92.86-7.77,1.23-11.66,1.88-19.42,6.64-5.09,9.89-7.62,16.28-12.64-4.25-1.64-6.37-2.47-10.58-4.13,0,0-12,9.13-13.82995,11.09s-.66-13.53-.66-13.53l-12.69,1.78c-1.49,4.38995-2.26,6.58-3.82,11l-5.2-1.63c-1.08,1.7-1.63,2.55-2.73,4.26,5.29,6.29,8,9.41,13.34,15.64-.94,4.49-1.44,6.73-2.46,11.22-6.56,3.89-9.89,5.84-16.66,9.75.12,3.31.17,5,.25,8.25l-15,2.14-7.55-5.65c8.66-6,12.9-9.06,21.18-15.09-3-6-4.46-9-7.42005-15,6.25-9,9.24-13.48,15-22.41L371,125.46c-3.86,2.37-5.81,3.56-9.76,6-2.31,3.1-3.48,4.65-5.85,7.75l-9.14-.72-11-8c-.94-5.41-1.41-8.12-2.33-13.56-10.34-2-15.57-3-26.26-4.84-1.9,3.46-2.86,5.19-4.79,8.65-6.55,6-9.91,9-16.78,15.1-.35,2.71-.52,4.06994-.87006,6.77,4.55,1,6.8,1.51,11.28,2.53,5.48-2.64,8.18-4,13.5-6.58.43,2.79.65,4.19,1.08,7-3.41,2.73-5.14,4.09-8.62,6.82l7.13,6.62c-3.71,2.56-5.58,3.85-9.37006,6.42,3.36005,2.39,5,3.58,8.38,6l7.25,7.84c7.59.49,11.34.74,18.79,1.26-1.52,1.92-2.29,2.88-3.83,4.78-8-.45-12-.68-20.13-1.1l-8.52-8.2c-9-4.83-13.53-7.16-22.61-12.12,0,0-17.15.93-19.08,1.13s.81006-8.27.81006-8.27c-7,.25-10.54.38-17.72.66-7.61,1.84-11.47,2.75995-19.22,4.56995-1.74005-1.31-2.62006-1.95-4.38-3.23-5.89,1.8-8.85,2.69-14.78,4.45-1.65-2.39-2.47-3.58-4.14-5.94-6.58-1-9.91-1.44-16.62-2.28-16.27-3.52-24.63995-5-41.79-7.43-8.59-3.39-13-5-21.91-7.91-13.11,3.75-19.63995,5.64-32.43994,9.41-10.08,5.2-15,7.72-24.51,12.61-4.83.9-7.23,1.36-12,2.3l-9.06,4.72c1.94,4.2,2.91,6.28,4.84,10.47,3.15,2.08,4.72,3.14,7.83,5.33-5,1.34-7.54,2-12.47,3.38-1.19-1.63-1.79-2.43-3-4-11.21,3.69-16.62994,5.52-27,9.25l3,2.34,2.78,5.2c6.9-.71,10.41-1,17.48-1.54,2.79-1.28,4.21-1.92,7.07-3.2,2.07.23,3.1.35,5.17.61-3.61,3.49-5.34,5.21-8.69,8.64-6.31.63-9.43994,1-15.61,1.74-2.5.68-3.74,1-6.2,1.71.32,1.3.49005,2,.82,3.26-4.14,2.48-6.16,3.73-10.1,6.27,1.32,2,2,2.94,3.34,5,.37006,2.1.56006,3.17,1,5.36,4.51.4,6.78.63,11.34,1.17-.3,2.75-.33,4.08-.68,7,6.84.1,10.28.23,17.19.62006,1.12,1.83,1.67,2.76,2.76,4.65-4,3.23-5.95,4.87-9.8,8.22-3.54,3-5.28,4.55-8.71,7.67-2-.3-2.94-.44-4.89-.71,0,0-14.2,8.76-15.58,9.43s.38,3.39.38,3.39c9-3.91,13.6-5.73,23.06-9.14,7.89-5,11.93-7.42,20.25-12.05,4.29,1.32,6.42,2,10.69,3.47,0,0,8.63-6.38,11.22-7.31s-9.43-2.9-9.43-2.9c2.49-3.74,3.75-5.57,6.33-9.17,6.85.7,10.28,1.11,17.15,2,6.61-1.68,10-2.49,16.75-4.07,8.92,2.34,13.37,3.6,22.22,6.23,5.21,2.71,7.8,4.1,12.94,7,5.69,4.83,8.5,7.32,14.06,12.39,1.62006,4.62,2.42,7,4,11.72,5.45,4.09,8.16,6.17,13.54,10.37,3.88,9.23,5.78,13.95,9.53,23.51-2,2.77-3,4.16-5,7,6.94,8.25,10.36,12.43,17.17,20.81q-6.73507,24.18-13.48,48.35c5,4.51,7.46,6.77,12.42,11.25,1.27,7.06,1.88,10.58,3,17.59l12.34,7.49Q223.875,442.73,245,471l6.14-3.89c-8.47-14.75-12.86-22.27-21.83-37.52l6.22-1.43006q17.235,22.335,34.42,44.71c.08,4.44.18,6.66.29,11.15q23.565,9.135,47,18.56c6.95-.12,10.5-.15,17.47-.23,4.7,3.5,7,5.27,11.68,8.84,11.31,3.32,16.91,5,28,8.41,3.58,3.44,5.37,5.17,8.93,8.66,1.19.61,2.31,1.19,3.38,1.74h15.96c-1.65-1.02-3.37994-2.08-5.57995-3.42-.24-9.32-.37-14-.65-23.12-10.85-.87-16.31-1.3-27.32-2.16,3.06-10.1,4.57-15.13,7.54-25.09l-18.17,1.86-5.58,8.53c-6.62.52-9.94.77-16.63,1.27-6-3.6-9-5.39-15-8.89-2.07-11.21-3.17-16.76-5.59-28,7.69-5.25,11.62-7.9,19.23-13.28,9.09.88,13.6,1.32,22.55005,2.22,5.14-2.29,7.7-3.45,12.79-5.77,10.43,1.57,15.6,2.37,25.87,4,.73,2.2,1.09,3.3,1.81,5.5,4.73,6,7.06,9,11.66,15l6.3-2.87c-2.45-11.08-3.79-16.63-6.58-27.72,12.52-8.91,18.67-13.44,30.84-22.57-.19-3-.29-4.53-.49-7.55,12-9.72,18-14.64,29.76-24.52,1.63-4.46,2.43-6.69,4-11.16,5.68-2.56,8.51-3.84,14.18-6.42l7.28,4.94c11.45-5.9,17.17-8.86005,28.66-14.8-1.09-2.27-1.64-3.41-2.74-5.67l-11.85,3c-4.12-3.46-6.18-5.18-10.29-8.6L512,326.27c-.43-2.47-.64-3.71-1.07-6.17,8.46-2.77,12.7-4.15,21.22-6.92.74,2.85,1.1,4.28,1.83,7.13-2.72,2.07-4.07,3.11-6.79,5.17l1,9.12c13.42,1.09,20.17,1.66,33.81,2.86C560.75,333.02,560.12,330.8,558.87,326.38ZM506.83,528.04c-12.53-2.29-18.79-3.42-31.33-5.63-5.73-1.87994-8.59-2.81994-14.33-4.67,0,0-15.05,7.74-23.8,12.26h72.22C508.7,529.37,507.78,528.71,506.83,528.04Zm-89.29.96-1.34,1h3.83C418.55,529.42,417.54,529,417.54,529Z"/>
</svg>
