<svg width="1200" height="550" viewBox="0 0 1200 550" xmlns="http://www.w3.org/2000/svg">
  <path fill="#191558" d="M510.52 31.7a.49.49 0 0 1-.16-.38V.9a.49.49 0 0 1 .16-.38.49.49 0 0 1 .38-.16h4.1a.49.49 0 0 1 .38.16.49.49 0 0 1 .16.38v26.24c0 .15.08.22.23.22h9.72a.51.51 0 0 1 .38.16.53.53 0 0 1 .16.38v3.42a.53.53 0 0 1-.16.38.51.51 0 0 1-.38.16H510.9a.49.49 0 0 1-.38-.16zM1181.46 30a7.9 7.9 0 0 1-2.29-5.87v-1.31a.53.53 0 0 1 .16-.39.52.52 0 0 1 .38-.15h4a.52.52 0 0 1 .38.15.53.53 0 0 1 .16.39v1a4.27 4.27 0 0 0 .9 2.83 2.81 2.81 0 0 0 2.25 1.08 2.94 2.94 0 0 0 2.29-1 3.9 3.9 0 0 0 .9-2.68 4 4 0 0 0-.49-2 6.3 6.3 0 0 0-1.37-1.64c-.59-.51-1.54-1.25-2.86-2.21a39.38 39.38 0 0 1-3.62-2.88 10.83 10.83 0 0 1-2.3-3 8.83 8.83 0 0 1-.92-4.11 7.94 7.94 0 0 1 2.25-5.94 8.05 8.05 0 0 1 5.94-2.27 8.16 8.16 0 0 1 6.08 2.32 8.33 8.33 0 0 1 2.29 6.14v1.08a.52.52 0 0 1-.15.38.53.53 0 0 1-.39.16H1191a.55.55 0 0 1-.54-.54V8.37a4.22 4.22 0 0 0-.88-2.81 2.85 2.85 0 0 0-2.32-1.06 2.74 2.74 0 0 0-2.16 1 3.9 3.9 0 0 0-.85 2.68 4.2 4.2 0 0 0 .92 2.74 21.73 21.73 0 0 0 3.62 3.11q2.74 2.07 4.14 3.33a9.46 9.46 0 0 1 2.16 2.79 8 8 0 0 1 .77 3.64 8.27 8.27 0 0 1-2.32 6.14 9 9 0 0 1-12 .05zM1181.46 374a7.9 7.9 0 0 1-2.29-5.87v-1.26a.53.53 0 0 1 .16-.39.52.52 0 0 1 .38-.15h4a.52.52 0 0 1 .38.15.53.53 0 0 1 .16.39v1a4.27 4.27 0 0 0 .9 2.83 2.81 2.81 0 0 0 2.25 1.08 2.94 2.94 0 0 0 2.29-1 3.9 3.9 0 0 0 .9-2.68 4 4 0 0 0-.49-2 6.3 6.3 0 0 0-1.37-1.64c-.59-.51-1.54-1.25-2.86-2.21a39.38 39.38 0 0 1-3.62-2.88 10.83 10.83 0 0 1-2.3-3 8.83 8.83 0 0 1-.92-4.11 7.94 7.94 0 0 1 2.25-5.94 8.05 8.05 0 0 1 5.89-2.21 8.16 8.16 0 0 1 6.08 2.32 8.33 8.33 0 0 1 2.29 6.14v1.08a.52.52 0 0 1-.15.38.53.53 0 0 1-.39.16h-4a.55.55 0 0 1-.54-.54v-1.17a4.22 4.22 0 0 0-.88-2.81 2.85 2.85 0 0 0-2.32-1.06 2.74 2.74 0 0 0-2.16 1 3.9 3.9 0 0 0-.85 2.68 4.2 4.2 0 0 0 .92 2.74 21.73 21.73 0 0 0 3.62 3.11q2.74 2.07 4.14 3.33a9.46 9.46 0 0 1 2.16 2.79 8 8 0 0 1 .77 3.64 8.27 8.27 0 0 1-2.32 6.14 9 9 0 0 1-12 .05zM526.07 172.52a.52.52 0 0 1 .15.38v3.42a.52.52 0 0 1-.15.38.53.53 0 0 1-.39.16H520a.2.2 0 0 0-.23.22v26.24a.52.52 0 0 1-.15.38.53.53 0 0 1-.39.16h-4.14a.51.51 0 0 1-.38-.16.53.53 0 0 1-.16-.38v-26.24a.2.2 0 0 0-.22-.22h-5.4a.55.55 0 0 1-.54-.54v-3.42a.55.55 0 0 1 .54-.54h16.78a.53.53 0 0 1 .36.16zM1184.75 202.92a3.46 3.46 0 0 1-1-2.48 3.27 3.27 0 0 1 1-2.41 3.22 3.22 0 0 1 2.29-1 3.5 3.5 0 0 1 3.38 3.42 3.39 3.39 0 0 1-1 2.45 3.18 3.18 0 0 1-2.41 1 3.15 3.15 0 0 1-2.26-.98zM1184.75 547.92a3.46 3.46 0 0 1-1-2.48 3.27 3.27 0 0 1 1-2.41 3.22 3.22 0 0 1 2.29-1 3.5 3.5 0 0 1 3.38 3.42 3.39 3.39 0 0 1-1 2.45 3.18 3.18 0 0 1-2.41 1 3.15 3.15 0 0 1-2.26-.98zM677 29.88a8.37 8.37 0 0 1-2.36-6.21V8.55A8.37 8.37 0 0 1 677 2.34a9.5 9.5 0 0 1 12.49 0 8.31 8.31 0 0 1 2.39 6.21v15.12a8.31 8.31 0 0 1-2.39 6.21 9.5 9.5 0 0 1-12.49 0zm8.71-3.22a4 4 0 0 0 .95-2.76V8.33a4 4 0 0 0-.95-2.77 3.14 3.14 0 0 0-2.47-1.06 3.1 3.1 0 0 0-2.46 1.06 4.08 4.08 0 0 0-.92 2.77V23.9a4.05 4.05 0 0 0 .92 2.76 3.1 3.1 0 0 0 2.46 1.06 3.14 3.14 0 0 0 2.48-1.06zM526.07 344.52a.52.52 0 0 1 .15.38v3.42a.52.52 0 0 1-.15.38.53.53 0 0 1-.39.16H520a.2.2 0 0 0-.23.22v26.24a.52.52 0 0 1-.15.38.53.53 0 0 1-.39.16h-4.14a.51.51 0 0 1-.38-.16.53.53 0 0 1-.16-.38v-26.24a.2.2 0 0 0-.22-.22h-5.4a.55.55 0 0 1-.54-.54v-3.42a.55.55 0 0 1 .54-.54h16.78a.53.53 0 0 1 .36.16zM845.19 30a7.82 7.82 0 0 1-2.31-5.91V8.15a7.84 7.84 0 0 1 2.31-5.92A8.5 8.5 0 0 1 851.34 0a8.6 8.6 0 0 1 6.18 2.23 7.78 7.78 0 0 1 2.37 6V10a.55.55 0 0 1-.54.54h-4.14a.57.57 0 0 1-.39-.16.54.54 0 0 1-.15-.38V8.1a3.66 3.66 0 0 0-.93-2.61 3.11 3.11 0 0 0-2.4-1 3.08 3.08 0 0 0-2.39 1 3.73 3.73 0 0 0-.9 2.61v16a3.73 3.73 0 0 0 .9 2.61 3.08 3.08 0 0 0 2.39 1 3.11 3.11 0 0 0 2.4-1 3.66 3.66 0 0 0 .93-2.61v-4.3c0-.15-.08-.22-.23-.22h-2.74a.57.57 0 0 1-.39-.16.54.54 0 0 1-.15-.38v-3.29a.52.52 0 0 1 .15-.38.53.53 0 0 1 .39-.16h7.65a.51.51 0 0 1 .38.16.53.53 0 0 1 .16.38v8.33a7.71 7.71 0 0 1-2.37 5.92 8.6 8.6 0 0 1-6.18 2.23 8.5 8.5 0 0 1-6.15-2.23zM687.21 375.41l-3.87-13a.27.27 0 0 0-.23-.18h-2.34c-.15 0-.22.08-.22.23v12.82a.53.53 0 0 1-.16.38.51.51 0 0 1-.38.16h-4.14a.53.53 0 0 1-.39-.16.52.52 0 0 1-.15-.38v-30.42a.51.51 0 0 1 .54-.54h8.46a7.5 7.5 0 0 1 7 4.38 11 11 0 0 1 1 4.8 10.19 10.19 0 0 1-1.08 4.83 7.19 7.19 0 0 1-3 3.09c-.12 0-.17.12-.14.27l4.41 13.54a.52.52 0 0 1 .05.23c0 .27-.17.4-.5.4h-4.32a.56.56 0 0 1-.54-.45zM680.55 349v9a.19.19 0 0 0 .22.22h2.75a3.22 3.22 0 0 0 2.63-1.26 5.26 5.26 0 0 0 1-3.38 5.5 5.5 0 0 0-1-3.48 3.18 3.18 0 0 0-2.63-1.28h-2.75a.19.19 0 0 0-.22.18zM845.19 201.9a8.3 8.3 0 0 1-2.31-6.14v-15.34a8.25 8.25 0 0 1 2.31-6.15 8.44 8.44 0 0 1 6.15-2.27 8.55 8.55 0 0 1 6.21 2.27 8.19 8.19 0 0 1 2.34 6.15v.58a.61.61 0 0 1-.16.4.49.49 0 0 1-.38.18l-4.19.18a.48.48 0 0 1-.54-.54v-1.12a3.68 3.68 0 0 0-.9-2.57 3.06 3.06 0 0 0-2.38-1 3 3 0 0 0-2.34 1 3.68 3.68 0 0 0-.9 2.57v16.11a3.65 3.65 0 0 0 .9 2.56 3 3 0 0 0 2.34 1 3.06 3.06 0 0 0 2.38-1 3.65 3.65 0 0 0 .9-2.56V195a.55.55 0 0 1 .54-.54l4.19.18a.51.51 0 0 1 .38.16.53.53 0 0 1 .16.38v.54a8.25 8.25 0 0 1-2.34 6.14 8.42 8.42 0 0 1-6.21 2.32 8.31 8.31 0 0 1-6.15-2.28zM677 546.88a8.37 8.37 0 0 1-2.36-6.21v-15.12a8.37 8.37 0 0 1 2.36-6.21 9.5 9.5 0 0 1 12.49 0 8.31 8.31 0 0 1 2.39 6.21v15.12a8.31 8.31 0 0 1-2.39 6.21 9.5 9.5 0 0 1-12.49 0zm8.71-3.22a4 4 0 0 0 .95-2.76v-15.57a4 4 0 0 0-.95-2.77 3.14 3.14 0 0 0-2.47-1.06 3.1 3.1 0 0 0-2.46 1.06 4.08 4.08 0 0 0-.92 2.77v15.57a4.05 4.05 0 0 0 .92 2.76 3.1 3.1 0 0 0 2.46 1.06 3.14 3.14 0 0 0 2.48-1.06zM1014.46 202a7.9 7.9 0 0 1-2.29-5.87v-1.26a.53.53 0 0 1 .16-.39.52.52 0 0 1 .38-.15h4a.52.52 0 0 1 .38.15.53.53 0 0 1 .16.39v1a4.27 4.27 0 0 0 .9 2.83 2.81 2.81 0 0 0 2.25 1.08 2.94 2.94 0 0 0 2.29-1 3.9 3.9 0 0 0 .9-2.68 4 4 0 0 0-.49-2 6.3 6.3 0 0 0-1.37-1.64c-.59-.51-1.54-1.25-2.86-2.21a39.38 39.38 0 0 1-3.62-2.88 10.83 10.83 0 0 1-2.3-3 8.83 8.83 0 0 1-.92-4.11 7.94 7.94 0 0 1 2.25-5.94 8.05 8.05 0 0 1 5.89-2.21 8.16 8.16 0 0 1 6.08 2.32 8.33 8.33 0 0 1 2.29 6.14v1.08a.52.52 0 0 1-.15.38.53.53 0 0 1-.39.16h-4a.55.55 0 0 1-.54-.54v-1.17a4.22 4.22 0 0 0-.88-2.81 2.85 2.85 0 0 0-2.32-1.06 2.74 2.74 0 0 0-2.16 1 3.9 3.9 0 0 0-.85 2.68 4.2 4.2 0 0 0 .92 2.74 21.73 21.73 0 0 0 3.62 3.11q2.75 2.07 4.14 3.33a9.46 9.46 0 0 1 2.16 2.79 8 8 0 0 1 .77 3.64 8.27 8.27 0 0 1-2.32 6.14 9 9 0 0 1-12 0zM855.21 548.41l-3.87-13a.27.27 0 0 0-.23-.18h-2.34c-.15 0-.22.08-.22.23v12.82a.53.53 0 0 1-.16.38.51.51 0 0 1-.38.16h-4.14a.53.53 0 0 1-.39-.16.52.52 0 0 1-.15-.38v-30.42a.51.51 0 0 1 .54-.54h8.46a7.5 7.5 0 0 1 7 4.38 11 11 0 0 1 1 4.8 10.19 10.19 0 0 1-1.08 4.83 7.19 7.19 0 0 1-3 3.09c-.12 0-.17.12-.14.27l4.41 13.54a.52.52 0 0 1 .05.23c0 .27-.17.4-.5.4h-4.32a.56.56 0 0 1-.54-.45zM848.55 522v9a.19.19 0 0 0 .22.22h2.75a3.22 3.22 0 0 0 2.63-1.26 5.26 5.26 0 0 0 1-3.38 5.5 5.5 0 0 0-1-3.48 3.18 3.18 0 0 0-2.63-1.28h-2.75a.19.19 0 0 0-.22.18zM1029.07 517.52a.52.52 0 0 1 .15.38v3.42a.52.52 0 0 1-.15.38.53.53 0 0 1-.39.16H1023a.2.2 0 0 0-.23.22v26.24a.52.52 0 0 1-.15.38.53.53 0 0 1-.39.16h-4.14a.51.51 0 0 1-.38-.16.53.53 0 0 1-.16-.38v-26.24a.2.2 0 0 0-.22-.22h-5.4a.55.55 0 0 1-.54-.54v-3.42a.55.55 0 0 1 .54-.54h16.78a.53.53 0 0 1 .36.16zM1017.82 31.7a.49.49 0 0 1-.16-.38V.9a.49.49 0 0 1 .16-.38.49.49 0 0 1 .38-.16h4.14a.49.49 0 0 1 .38.16.49.49 0 0 1 .16.38v30.42a.55.55 0 0 1-.54.54h-4.14a.49.49 0 0 1-.38-.16zM855.63 375.37l-.85-4.73c0-.15-.09-.22-.27-.22H848q-.27 0-.27.18l-.9 4.77c0 .33-.22.49-.58.49h-4.14c-.39 0-.54-.19-.45-.58l6.61-30.42a.55.55 0 0 1 .59-.5h4.81a.55.55 0 0 1 .59.5l6.66 30.42v.18c0 .27-.17.4-.5.4h-4.18c-.38 0-.58-.16-.61-.49zm-6.79-9.05h4.9c.18 0 .26-.07.23-.22l-2.48-13.6c0-.08-.07-.13-.13-.13s-.11.05-.14.13l-2.61 13.6c-.03.15.05.22.23.22zM1011.49 375.7a.52.52 0 0 1-.15-.38V344.9a.52.52 0 0 1 .15-.38.53.53 0 0 1 .39-.16h4.32a.59.59 0 0 1 .63.41l7 18.31c.06.09.12.14.18.14s.09-.06.09-.18V344.9a.55.55 0 0 1 .54-.54h4.1a.51.51 0 0 1 .38.16.53.53 0 0 1 .16.38v30.42a.53.53 0 0 1-.16.38.51.51 0 0 1-.38.16h-4.37a.59.59 0 0 1-.63-.4l-7-18.36c0-.1-.08-.13-.16-.12a.15.15 0 0 0-.11.16l.05 18.18a.53.53 0 0 1-.16.38.51.51 0 0 1-.38.16h-4a.53.53 0 0 1-.49-.16zM680.82 203.7a.49.49 0 0 1-.16-.38V172.9a.55.55 0 0 1 .54-.54h4.14a.55.55 0 0 1 .54.54v30.42a.55.55 0 0 1-.54.54h-4.14a.49.49 0 0 1-.38-.16zM522.58 518.49a7.78 7.78 0 0 1 2.83 3.28 11 11 0 0 1 1 4.81 9.65 9.65 0 0 1-2.14 6.53 7.1 7.1 0 0 1-5.65 2.47h-3.82a.21.21 0 0 0-.23.23v12.51a.55.55 0 0 1-.54.54h-4.14a.55.55 0 0 1-.54-.54v-30.46a.53.53 0 0 1 .16-.39.52.52 0 0 1 .38-.15h8.46a7.64 7.64 0 0 1 4.23 1.17zm-2.39 11.72a5.47 5.47 0 0 0 1-3.49 5.74 5.74 0 0 0-1-3.58 3.19 3.19 0 0 0-2.67-1.32h-2.7c-.15 0-.23.07-.23.22v9.23c0 .15.08.22.23.22h2.7a3.23 3.23 0 0 0 2.67-1.28z"/>
</svg>
