<svg width="2560" height="1500" viewBox="0 0 2560 1500" xmlns="http://www.w3.org/2000/svg">
    <path fill="none" stroke="#080443" stroke-width="3px" stroke-linecap="round" d="M1842,767v733m-46-640c17.5-4.2,34.6-16.8,46-32,11.4,15.2,28.5,27.8,46,32m-76-56c11.4-5.1,22.6-20.5,30-39,7.4,18.5,18.6,33.9,30,39m-90,116c22.80005-5.5,45.19995-22.1,60-42,14.80005,19.9,37.1,36.5,60,42m-120,281c22.80005-5.5,45.19995-22.1,60-42,14.80005,19.9,37.1,36.5,60,42M1769,992c27.80005-6.8,55-27.3,73-52,18,24.7,45.19995,45.2,73,52m-146,145c27.80005-6.8,55-27.3,73-52,18,24.7,45.19995,45.2,73,52m-146-72c27.80005-6.8,54.9-27.3,72.9-52a151.27023,151.27023,0,0,0,48.1,42m167,19a82,82,0,1,1,82,82A81.98378,81.98378,0,0,1,2057,1074Zm-167-25a74,74,0,1,1,74,74A73.96043,73.96043,0,0,1,1890,1049ZM2021,10a82,82,0,1,1-82,82A81.98378,81.98378,0,0,1,2021,10Zm118,1057v433m-175-461v461m211-412-36,34-36-34M137,914a82,82,0,1,1,82,82A81.98378,81.98378,0,0,1,137,914Zm82-7v593m36-572-36,34-36-34m1817,127-36,34-36-34m93-968v915m-1,95v403M1985,108l36,34,36-34M1386,1120v380m-44-289c16.80005-4.1,33.1-16.3,44-31,10.9,14.7,27.19995,26.9,44,31m-88,185c16.80005-4.1,33.1-16.3,44-31,10.9,14.7,27.19995,26.9,44,31m-73-240c11-4.9,21.80005-19.4,29-37,7.19995,17.6,18,32.1,29,37m-87,113c21.9-5.2,43.80005-21,58-40,14.19995,19,36.1,34.8,58,40m-129,74c39.5-8.3,71-50,71-50,15.30005,21,37.1,38.9,60.5,47.3M1569,1308a65,65,0,1,0-65,65,64.99807,64.99807,0,0,0,65-65m-66-13v205m-34-187,34,33,34-33M453,1256a74,74,0,1,1,74,74,73.96043,73.96043,0,0,1-74-74m74-9v254m36-238-35,35-36-35M410,280V1500M350,721c22.7-5.5,45.3-22.2,60-42v-.2c14.7,19.8,36.4,36.7,59,42.2M350,801c22.7-5.5,45.3-21.8,60-41.6,14.7,19.8,37.3,36.1,60,41.6M364,859c17.4-4.2,34.7-17.7,46-33v.6c11.3,15.3,27.6,28.2,45,32.4M364,376c17.3-4.2,34.8-16.8,46-32,11.2,15.2,28.7,27.8,46,32m-76-57c11.4-5.1,22.6-20.5,30-39,7.4,18.5,18.6,33.9,30,39M350,437c22.6-5.5,45.3-22.1,60-42,14.7,19.9,37.3,36.5,60,42M338,511c27.4-6.8,54.2-27.3,72-52,17.8,24.7,44.6,45.2,72,52M338,654c27.4-6.8,54.2-27.3,72-52,17.8,24.7,44.6,45.2,72,52M338,583c27.4-6.8,54.2-27.3,72-52,17.8,24.7,44.6,45.2,72,52"/>
</svg>
