<svg xmlns="http://www.w3.org/2000/svg" width="1760" height="920" viewBox="0 0 1760 920">
  <path fill="#333" stroke="#555" d="M860,378l-7.54-.32c-.57-6.56-.87-9.83-1.46-16.34l7-3.34C858.83,366,859.24,370,860,378ZM627.64,617.71l11.36,7c-.47,8.9-.7,13.36-1.16,22.29-5.81,8.21-8.72,12.28-14.55,20.34.27,9.36.41,14.05.69,23.44-4.38,9.02-6.56,13.5-10.94,22.44-13.41,5.01-20.16,7.48-33.48,12.48-1.06,5.73-1.59,8.59-2.64,14.3-9.06,12.78-17.99,26-28.28,37.8501l-15.59-1.33c2.81,6,4.1,9,6.52,15-5.22,3.53-7.88,5.29-13.29,8.8l-15.16-1.41c-2.58,5.84-3.97,8.76-6.82,14.61l-8.48-2.25c-.84,3.44-1.28,5.17-2.16,8.61-.27,1.93-.41,2.93-.68,4.93-1.72,4.72-2.6,7.03-4.34,11.72l-10.42,6.94c3.19,4.5,4.86,6.76,8.19,11.29-6.97,10.46-10.41,15.7-16.41,26.13a217.53359,217.53359,0,0,0,8.45,20.13s16.74,9.85,14.94,10.11-16.69,3.84-16.69,3.84c-5.94-3.16-8.89-4.74-14.74-7.89.45-2.74.71-4.12,1.31-6.87-6.41-4.76-9.54-7.14-15.71-11.88,2-2.74,3.04-4.11,5.17-6.87-4.12-5.74-6.09-8.6-9.88-14.3-2.69-10.84-3.76-16.25-5.69-27,4.61-3.08,6.91-4.63,11.52-7.73,1.26-7.84,1.93-11.74,3.13-19.52-.51-11.34-.78-16.98-2.12-28.13,5.64-10,8.16-14.99,12-24.93-1.02-9.92-2.37-14.76-4.26-24.48,1.74-5.68,2.62-8.53,4.37-14.27-1.74-15.86-2.59-23.81-4.27-39.68-12.47-8.37-18.71-12.5-31.21-20.7q-16.06-23.48-32.44-46.76c1.14-5.9,1.71-8.85,2.84-14.76-1.13-5.03-1.7-7.54-2.83-12.54,7.75-7.14,11.6-10.74,19.26-18-2.67-8.48-3.99-12.67-6.67-21-2.82-1.66-4.23-2.48-7.06-4.12-3.37,2.06-5.01,3.13-8.37,5.13-9.93-5.57-14.93-8.32-24.93-13.74-3.43-3.54-5.15-5.30005-8.59-8.78-10.74-3.46-16.12-5.17-27-8.53-4.48-3.65-6.73-5.44-11.24-9-6.71.09-10.13.11-16.83.24q-22.55-9.57-45.23-18.82c-.11-4.55-.21-6.8-.28-11.3q-16.54-22.67-33.12-45.34l-6,1.45c8.62,15.43,12.85,23.05,21,38l-5.91,3.95q-20.33-28.7-40.67-57.39c-4.75-3.02-7.13-4.54-11.87-7.59-1.13-7.1-1.72-10.68-2.94-17.83-4.81-4.55-7.21-6.83-12-11.41q6.52-24.49,13-49c-6.52-8.5-9.85-12.74-16.52-21.1,1.91-2.84,2.87-4.25,4.81-7.06-3.61-9.7-5.44-14.48-9.17-23.84-5.15-4.25-7.75-6.36-13-10.51-1.53-4.82-2.3-7.2-3.85-11.88-5.35-5.15-8.06-7.67-13.53-12.57-4.95-2.84-7.46-4.25-12.46-7-8.51-2.67-12.79-3.94-21.38-6.32-6.53,1.6-9.75,2.42-16.12,4.13-6.61-.91-9.91-1.33-16.5-2.05-2.48,3.66-3.7,5.52-6.1,9.3,0,0,11.57,2.05,9.08,3s-10.8,7.41-10.8,7.41c-4.1-1.52-6.16-2.18-10.28-3.52-8.01,4.7-11.9,7.14-19.49,12.22-9.11,3.46-13.55,5.26-22.2,9.26,0,0-1.69-2.74-.36-3.43s15-9.56,15-9.56c1.88.27,2.82.41,4.71.71,3.3-3.16,4.98-4.71,8.38-7.77,3.71-3.39,5.59-5.06,9.43-8.33-1.05-1.92-1.58-2.86-2.66-4.72-6.64-.39-9.95-.53-16.53-.63.33-3,.36-4.35.65-7.14-4.39-.54-6.57-.78-10.92-1.19-.39-2.21-.58-3.29-.94-5.43-1.3-2-1.94-3-3.22-5,3.8-2.58,5.73-3.84,9.73-6.36-.32-1.3-.48-1.99-.8-3.3,2.4-.74,3.6-1.05,6-1.74,5.91-.77,8.92-1.13,15-1.77,3.22-3.48,4.89-5.22,8.36-8.75-2-.27-3-.39-5-.63-2.76,1.25-4.12,1.95-6.81,3.25-6.83.56-10.18.84-16.83,1.56-1.07-2.13-1.61-3.18-2.67-5.27-1.15-.96-1.73-1.43-2.88-2.37,10-3.78,15.21-5.64,26-9.38,1.15,1.63,1.73,2.44,2.87,4.09,4.74-1.38,7.14-2.06,12-3.43-3-2.21-4.54-3.29-7.54-5.39-1.86-4.25-2.79-6.36-4.66-10.62l8.72-4.79c4.56-.95,6.91-1.42,11.56-2.33,9.16-4.95,13.89-7.51,23.59-12.79,12.32-3.82,18.6-5.73,31.22-9.54,8.6,3,12.81,4.56,21.08,8,16.5,2.44,24.59,4,40.21,7.56,6.47.86,9.67,1.32,16,2.32,1.62,2.38,2.41,3.58,4,6,5.7-1.78,8.55-2.69,14.22-4.51,1.69,1.27,2.53,1.95,4.21,3.27,7.5-1.83,11.17-2.76,18.5-4.63,6.91-.28,10.33-.41,17.05-.66,0,0-2.64,8.57-.78,8.37s18.37-1.14,18.37-1.14c8.75,5.03,13.12,7.4,21.75,12.29l8.22,8.19c7.83.43,11.7.66,19.37,1.12,1.49-1.93,2.23-2.85,3.69-4.85-7.17-.52-10.78-.78-18.08-1.28l-7-7.95-8.06-6.05c3.63-2.61,5.43-3.91,9-6.51l-6.86-6.71c3.36-2.77,5.02-4.15,8.3-6.91-.38-2.83-.58-4.24-1-7.07-5.13,2.67-7.73,3.99-13,6.67-4.31-1.03-6.48-1.56-10.86-2.56.34-2.75.5-4.12.84-6.87,6.61-6.14,9.84-9.2,16.15-15.31,1.86-3.51,2.78-5.26,4.6-8.77,10.28,1.91,15.28,2.91,25.28,4.91.88,5.51,1.33,8.26,2.24,13.74,4.23,3.27,6.35,4.9,10.6,8.16l8.8.73c2.28-3.15,3.41-4.72,5.63-7.86,3.8-2.39,5.68-3.6,9.39-6l9,4.35c-5.54,9.05-8.43,13.6-14.43,22.71,2.85,6.09,4.28,9.17,7.14,15.17-7.97,6.11-12.05,9.18-20.39,15.3l7.27,5.72,14.44-2.17c-.08-3.35-.13-5.01-.24-8.35,6.48-3.97,9.68-5.9,16-9.9.98-4.55,1.46-6.82,2.37-11.37-5.17-6.31-7.75-9.48-12.84-15.86,1.06-1.73,1.58-2.59,2.63-4.32l5,1.65c1.5-4.45,2.24-6.68,3.68-11.13l12.21-1.8s-1.18,15.69.63,13.71,13.31-11.24,13.31-11.24c4.05,1.68,6.09,2.52,10.19,4.19-6.16,5.09-9.29,7.66-15.67,12.82-.63,7.86-.98,11.8-1.82,19.69,1.68,5.64,2.5,8.46,4.1,14.11l7.2.48c-.97,4.36-1.48,6.54-2.55,10.92,7.29-6.17,10.84-9.24,17.84-15.37,0,0-17.67-5.02-15.92-7.88s.83-15.12.83-15.12c7.88-8,11.68-12,19.15-19.81,5.14,1.4,7.73,2.05,12.94,3.4,9.87,1.02,14.79,1.49,24.87,2.49,1.93,6.08,2.87,9.12,4.68,15.23,10.22,7.1,15.4,10.63,25.62,17.87-3.28,5.53-4.96,8.31-8.43,13.91,10.5,5.91,15.77,8.84,26.02,15.08-5.7,5.59-8.52,8.38-14.09,13.95l-9-.07c2.79,5.86,4.22,8.82,7.15,14.76-2.64,2.69-3.95,4.02-6.56,6.69l-7,3c-8.72-3.56-13.09-5.31-21.72-8.74-1.53-3.75-2.27-5.61-3.74-9.32,0,0-16.46,2.56-16.71-.14a41.68124,41.68124,0,0,0-1.07-5.79L451,212.16c5-7.44,7.52-11.16,12.21994-18.52006l-16.54,1.38c-.44-1.92-.67-2.88-1.13-4.78,1.67-2.51,2.5-3.77,4.13-6.27-1.49-4.1-2.26-6.14-3.83-10.21-6.65,7.67-10.07,11.53-17.13,19.28.67,2.06,1.02,3.09,1.67,5.16-5.89,5.48-8.89,8.23-14.89,13.7,3.71,5.12,5.6,7.71,9.43,12.93l-5.29,2.81c-4.35-1.19-6.52-1.78-10.86-2.94l-8.5,4.46c-2.35-3.52-3.51-5.27-5.81-8.75-7.54,3.29-11.31,4.93-18.9,8.2-.05,1.95-.11,2.88-.11,4.88-10.22,8.5-15.33,12.74-25.6,21.19,2.92,7.4,4.42,11.14,7.48,18.68,12.25,5.91,18.35,8.84,30.57,14.91a95.28471,95.28471,0,0,0,9.71.62c2.24-.17.48,18.19.48,18.19,2.53,3.18,3.8,4.78,6.34,8l7.3-7.59c-.16-6.78-.22-10.16-.33-16.89,5.24-2.65,7.85-3.98,13.07-6.65.49-4.35.73-6.52,1.24-10.86l-7.36-8.68c2.91-3.4,4.36-5.11,7.28-8.51,1.05-7.5,1.61-11.23,2.79-18.67,7.84.34,11.76.52,19.62.9,5.66,4.65,8.52,7,14.28,11.75.52,5.77.79,8.66,1.38,14.47l5,3.38c6.26-6.55,9.4-9.83,15.75-16.41,4.45,9.86,6.76,14.86,11.45,24.86-.1,3.85-.15,5.77-.23,9.63,10.04,6.25,15.11,9.42,25.32,15.84.7,8.55,1.07,12.83,1.81,21.43,4.83,2.89,7.26,4.34,12.12,7.27,1.2,4.48,1.8,6.72,3,11.22-13.12-1.21-19.61-1.79-32.54-2.9l-.95-9.24,6.53-5.24c-.7-2.9-1.05-4.34-1.76-7.23-8.2,2.79-12.28,4.2-20.42,7,.38,2.5.59,3.75,1,6.26l-12.75,8.49c3.96,3.47,5.91,5.21,9.91,8.71l11.4-3c1.06,2.3,1.59,3.45,2.64,5.75-11.06,6-16.59,9-27.59,15l-7-5-13.64,6.51c-1.55,4.53-2.33,6.79-3.9,11.32-11.35,10-17.05,15-28.63,24.87.19,3.06.29,4.59.47,7.65-11.68,9.26-17.63,13.88-29.68,22.88,2.69,11.25,3.97,16.88,6.33,28.11l-6.06,2.91c-4.42-6.11-6.67-9.16-11.22-15.23-.69-2.23-1.04-3.34-1.74-5.57-9.9-1.6-14.9-2.4-24.9-4-4.89,2.36-7.36,3.52-12.31,5.85-8.61-.91-12.95-1.36-21.7-2.25-7.32,5.46-11.1,8.14-18.51,13.46,2.34,11.44,3.39,17.07,5.39,28.44,5.8,3.54,8.7,5.35,14.44,9l16-1.29c2.16-3.46,3.23-5.19,5.37-8.65,7.04-.75,10.49-1.12,17.49-1.89-2.86,10.11-4.26,15.2-7.26,25.44,10.6.87,15.85,1.31,26.3,2.19.27,9.3.39,14,.63,23.45,5,3.2,7.48,4.81,12.48,8.06,2.88-2.26,4.32-3.38995,7.18-5.66,0,0,11.69,5.18,13.35,4.24S441,524.4,441,524.4c5.52,1.88,8.28,2.83,13.79,4.74,12.06,2.24,18.09,3.38,30.14,5.71,13.12,9.84,19.68,14.84,32.86,25l9.53-1.7c10.52,6.38,15.8,9.6,26.41,16.14,4.07,8.12,6.11,12.19,10.2,20.39l16.82,3,7.89,7.32c10.48,1.22,15.79,1.87,26.3,3C620,611.9,622.56,613.84,627.64,617.71ZM416.39,482.08c2.61,2.35,3.97,3.54,6.61,5.92l-7.45,1c-12.1-4-18.17-6-30.44-9.75l-9.33.05L373,475.95c3.84-1.17,5.75-1.76,9.56-2.95,6.17.82,9.24,1.24,15.36,2.08C405.34,477.82,409,479.2,416.39,482.08ZM446.1,491c4.43,1.84,6.64,2.77,11.07,4.63.33,1.41.5,2.11.83,3.52L444.59,502c-5.9-.75-8.85-1.06-14.76-1.75L426,496.59l9.38.23.55-5.29ZM322.59,98.33l-10.55-9.49c10.79-6.44,16-9.59,26-15.81,4.24.25,6.35.39,10.54.67-2.47,5.35-3.71,8-6.25,13.35,3.07,6.45,4.63,9.68,7.82,16.09l4.83-.31c1.03-5.14,1.55-7.72,2.55-12.87l6,.28c.54,3.51.81,5.26,1.36,8.76l7.10993,2.2c-3.62,4.38-5.46,6.58-9.21,11l-11.13-.11-12.15,3.92-8.33-1.07c1.09-2.05,1.63-3.13,2.7-5.13-4.44-2.22-6.66-3.34-11.11-5.55,3.35-2.15,5-3.22,8.26-5.36L328.42,96Zm33.58-18.79c-.88-2.95-1.32-4.39-2.17-7.39.63-1.07.98-1.59,1.63-2.65l5.78,1.63,2.38-1.82c.22-2.27.34-3.41.57-5.69L375.91,62c1.22,1.95,1.84,2.87,3.09,4.87l-1.82,5.79-9.78,3.91c-1.48,2.57-2.23,3.86-3.73,6.43Zm21.07,16.48c2.12,2.07,3.19,3.1,5.33,5.16,1.39-1.89,2.07-2.84,3.44-4.73,4.8.79,7.21,1.2,12.05,2-.75,3.91-1.12,5.86-1.89,9.76,3.9,2.37,5.83,3.55,9.83,5.9-1.06,2.75-1.6,4.13-2.69,6.89l-7.33-.51-2.15-4.57-12.18.59c-3.12-5.62-4.65-8.44-7.65-14.11C375.31,99.84,376,98.56,377.24,96.02ZM387,71.53l5.25-3.13c-.78-3.03-1.09-4.59-1.78-7.59L395.62,59c1.43,2.18,2.15,3.27,3.61,5.44,2.29,1.38,3.45,2.07,5.77,3.44C403.23,74,402.36,77,400.61,83l-4.16-.26c-.85-2.73-1.27-4.09-2.09-6.83C391.39,74.17,389.92,73.29,387,71.53Zm20.95,14.74c-1.01-.34-1.95-13.79-1.95-13.79L411.92,69c2.38,4.14,3.59,6.2,6.08,10.29-.86,3.89-1.29,5.83-2.16,9.71Zm295.10987,69.32a310.41017,310.41017,0,0,0-24.17,20.74c-9.48,1.84-14.51,3.01-24.75,5.54-7.65,6.97-11.56,10.57-19.3,17.81-6.19.66-9.31,1.01-15.52,1.73.98,1.56,1.44,2.37,2.44,4-8.23,6.09-12.31,9.19-20.31,15.19-7.92,13.08-11.69,19.6-18.75,32.39-4.28-.02-6.4-.04-10.56-.12-7.73-3.26-11.47-4.97-18.73-8.42-3.58-9.09-5.31-13.57-8.65-22.57l-5.44-4.56c-1.42-8.98-2.07-13.44-3.21-22.33,3.53-5.29,5.24-7.9,8.58-13.1-2.85-2.94-4.3-4.39-7.23-7.26,2.30005-3.94,3.43005-5.9,5.65-9.81,4.09.2,6.07.33,10.19.51.2-2.73.29-4.09.46-6.79-5.58-.88-8.19-1.39-13.66-2.3.71-6.37.99-9.51,1.46-15.77-5.91-11.04-9.09-16.43-15.38-27.27-12.1.29-17.98.4-29.49.58-2.83-4.51-4.24-6.77-7.05-11.3l5.47-5.15c-3.32-2.05-4.97-3.08-8.23-5.16.14-3.33.22-4.98.38-8.33,11.48-4.34,17.36-6.56,29.67-11.19-.43-7.41-.6-11.16-.72-18.82C503.76,62.22,498.02,66.19,486.76,74c-3.69,6-5.48,9-9.02,14.78-5.31,2.76-7.93,4.12-13.15,6.85.28,3.79.43,5.69.71,9.46l-5.9,5.83c-5.7-2-8.49-3-14-5-7.13-.13-10.64-.2-17.64-.36l-3.46,5.16c12.46,2.9,18.8,4.32,31.8,7.07-2.72,3.93-4.08,5.89-6.85,9.83,0,0-24.8-2.08-25.56-2s-14.41-5.67-14.41-5.67c1.57-5.07,2.33-7.61,3.83-12.67-3.7-3.66-5.52-5.5-9.12-9.2,1.17-2.23,1.76-3.35,2.91-5.58,7.06,2.67,10.63,3.99,17.88,6.59l10.44-5.42c.56-4.18.83-6.27,1.4-10.46-5.06-.56-7.54-.84-12.54-1.43-.86-4.16-1.28-6.25-2.08-10.45l3.96-2.38c-1.74-2.96-2.6-4.43-4.28-7.43C427.25,51.83,430,46.95,436,36.9l4.89,1.8c.32,4.58.53,6.85,1,11.36,1.76,1.01,2.64,1.51,4.42,2.51l2.54-2.53c-.87-5.01-1.28-7.54-2-12.66,8.48-5.25,12.81-7.93,21.9-13.52,2.69.44,3.99.66,6.69,1.08,1.33-2.26,2.01-3.41,3.4-5.71,10.03-2.66,15.21-4.07,26.1-7.07.57,1.4.86,2.1,1.45,3.49,5.7-.06,8.56-.1,15.56-.4,8.69,2,13.7,2.88,24.24,4.55,5.4,5.32,8.23,7.91,13.95,13,12.25-1.13,18.74-1.75,31.74-2.9-.49,4-.72,6-1.15,10l12.14014-1.77c1.23-4.26,1.86-6.41,3.17-10.75,7.87,4.08,11.76,6.11,19.22,10.21,4.66-6.15,6.99-9.25,11.66-15.49l-3.45-5.05c11.33-2.47,16.82-3.58,26.66-5.58,7.12-3.15,10.46-4.66,16.31-7.47,12.81,1.92,18.89,2.93,31.61005,5.18-.32,2.13-.48,3.19-.8,5.3,7.18,3.52,10.78,5.29,18,8.87l1.4,4.69c-7.75,1.41-11.61,2.12-19.31,3.58-2.25,2.93-3.39,4.38-5.65,7.27,4.11.17,6.17.27,10.3.48l4.13-4,4.54.63c.74,3.19,1.05,4.8,1.74,8l15.17-5.62c6.16,2.51,9.25,3.78,15.43,6.35-8.89,7.74-13.36,11.52-22.28,19-5.24,11.47-7.9,17.08-13.17,28.27l5.59,3.19-1,4.83c-4.67.07-7.01995.11-11.67.23,4.56,6.46,6.85,9.72,11.48,16.33-3.59,5.46-5.37994,8.19-8.91,13.71-2.58.47-3.87.71-6.43,1.2-3.16,3.68-4.72,5.54-7.82,9.29C700.47,146.63,701.32,149.58,703.05988,155.59ZM858,358l-7,3.34c.59,6.51.89,9.78,1.46,16.34L860,378C859.24,370,858.83,366,858,358Zm-7,3.34c.59,6.51.89,9.78,1.46,16.34L860,378c-.76-8-1.17-12-2-20Zm909.18994-158.75-8.49.31994-18.60986-7.34-8.92017.93-8.6499-5.65-7.54,2c5.12,4.98,7.69995,7.45,12.83008,12.36l-10.3501,8.47c8.28,7.25,12.43005,10.84,20.65,17.93,0,0-3.2699,4.94-3.88,6.07s-10.28-3.54-10.28-3.54-29.26,19.06-30.58,21.67-14.59-5-14.59-5c-11.51,1.63-17.25,2.47-28.58008,4.22-.84,5.61-1.23,8.41-2,14,5.05005,6.4,7.62012,9.57,12.79,15.9-8.27,13.85-12.31006,20.79-20.11,34.79-4.14,1.55-6.21008,2.33-10.30993,3.91-7.27-14.67-14.14014-29.66-20.44007-44.77q16.36506-19.395,33.14-38.48c-8.42.06-12.58008.11-20.77.24-2-2.21-3-3.31-5-5.52-4.63-.96-7-1.43-12-2.33-5.18994,6.01-7.76,9.08-12.87,15.08,2.62,3.23,3.9,4.85,6.34,8.08-7.21-.31-10.97-.42-18.62988-.6-8.5-2.51-12.94007-3.73-22-6.12-16.08008.55-24.33008.95-40.17017,1.9-12.7699,12.07-18.7699,18.19-30,30.64l7,7.62c16.81006,2.21,25.67017,3.36,42.67017,5.88a371.29847,371.29847,0,0,1,21,33.9c-3.19007.17-4.79.25-8,.44,3.54992,8.12,5.22,12.18,8.38989,20.28-7.24-.44-10.97-.63-18.5-.95-.3999-12.38-.62-18.55-1.24-30.88995-3.86-2.32-5.80005-3.47-9.80005-5.78,1.61011,6.63,2.37012,9.98,3.81006,16.63-3.74,7.81-5.57007,11.73-9.14,19.65-7.14,5.93-10.64,8.95-17.47,15.07-2.61,2.49-3.91,3.74-6.46008,6.26-7.6499.16-11.44995.26-18.90991.49-1.73,3.93-2.58008,5.93-4.26,9.93-3.71,3.13995-5.53,4.72-9.12,7.91,3.16,3.76,4.74,5.65,7.88,9.42,1.2,6.43,1.78,9.66,2.93994,16.14-7.51,1.55-11.19995,2.36-18.40991,4,.83-6.65,1.27-9.95,2.13989-16.53-4.49-.76-6.67993-1.15-11-1.9-1.76-4.77-2.6499-7.14-4.40991-11.89-5.5,1.15-8.26,1.74-13.5,2.93-1.56006-3.4-2.33008-5.1-3.86011-8.5-5.24,4.05-7.77991,6.05-13.09985,10.05l5,5L1432.2,398l3.38013,4.25c-6.92017,3.82-10.26,5.76-16.72009,9.69,4.77,6.31,7.21008,9.47,12.21008,15.8,1.71,7.07,2.56994,10.62,4.28992,17.76-5.16,9.62-7.66,14.5-12.56995,24.41-6.02,4.38-8.97,6.59-14.84009,11.07-10.62988,2.92-15.92993,4.37-26.25,7.46-2.26,5.69-3.37988,8.58-5.37988,14.42l-7.38013-1.79c.67-4.53,1.03-6.79,1.82007-11.26l-9.77-1.17c-2.82007,4.41-4.19995,6.64-6.88,11.15,6.35,6.96,9.58,10.41,16.19006,17.41.36987,8.8.65991,13.22,1.36987,22.22-4.2699,2.61005-6.38989,3.94-10.60986,6.61005C1356.95,549.65,1354.95,551.48,1350.95,555.17c-.81995-2.38-1.21-3.59-2-6-7.80994-5.82-11.65991-8.74-19.28-14.59-1.48,4.79-2.19995,7.2-3.61987,12.05,2.44995,5.67,3.69995,8.52,6.26,14.22,4.86987,4.23,7.28992,6.35,12.28992,10.57,2.86,14.03,4.44006,21.1,7.79,35.31,4,2.91,6,4.36005,10,7.26,0,0-1.18005,12.09-1.09,13.34s10.24,2.18,10.24,2.18c1.83,2.77,2.75,4.16,4.6,6.92,0,0,12.30994-2.9,14.74-3s12.93006,7.69,12.93006,7.69c-.78,2.18-1.16,3.27-1.93006,5.46-17.02-3.46-25.48-5.31-42.26-9.12l-.79993-5.42c-4.44007-1.18-6.66016-1.78-11.08008-3-4.88-4.91-7.27-7.37-12-12.3-5.6499-10.11-8.40991-15.17-13.76-25.26-6.33-5.92-9.46-8.88-15.6499-14.81-.07007-2.63-.07007-3.98-.07007-6.63,0,0,19.25,7.72,20.83008,8.12,1.57983.4,3.77991,8.65,3.77991,8.65l7.87.33c-2.23-5.1-3.33008-7.64-5.48-12.73-5.80005-6.86-8.65-10.3-14.26-17.16.90991-7.68,1.43994-11.5,2.43994-19.06-4.12988-9.54-6.13989-14.29-10-23.72-3.01,1.7-4.5,2.55005-7.5,4.28l-6-4.07c.41-2.43.63013-3.62,1.06006-6-5.30005-10.07-7.68994-15.18-12.90991-25.07-5.07007-.58-7.61011-.86-12.71009-1.42-12.53,10.84-18.95007,16.55-31.53,28.12-4.04993,14.15-5.98,21.34-9.7699,35.92-6.04,5.09-9.08008,7.67-15.20008,12.87-7.94006-19.39-15.78-38.81-23.78-58.18.41-5.09.62-7.67,1.05993-12.67l-14.78991,1.4c-8.41-9.19-12.86-13.75-21.47-22.82-9.05-.25-13.56994-.44-22.56994-.91-15.45008-3.86-30.84009-8.1-46.13013-12.57-8.44995-7.36-12.66992-11.03-21.13989-18.36l-4.55005,4.42c7.23,11.41,10.84,17.17005,18.09,28.82,5.64,1.15,8.46008,1.71,14.11,2.81,2.55005-3.13,3.83008-4.69,6.41-7.8,3.45007,3.71,5.17,5.57,8.64,9.28,4.12.65,6.17993.97,10.31006,1.58l6.1499,7.93c-4.15991,6.97-6.15991,10.48-10.15991,17.54-10,4.54-14.99,6.77-24.91,11.18-2.87,3.75-4.3,5.62-7.15,9.39-16.24,4.42-24.30005,6.53-40.37,10.71-3.53-8.39-5.28991-12.56-8.83-20.85-8.07007-10.67-12.11005-15.98-20.22-26.44-1.57-5.78-2.35-8.63-3.93-14.3-6.9-11.31-10.36-16.86-17.31-27.86l-7.83,3.4c3.15,5.64,4.71,8.47,7.84,14.2l7.13,2.17c-1.27,3.28-1.91,4.96-3.17,8.28q10.245,20.325,20,40.88c9.13995,8.93,13.7,13.44,22.81,22.44,1.44006,3.62,2.16,5.41,3.6,9,13.79-2.30005,20.71-3.48,34.62012-6,1.91992,2.87,2.91992,4.3,4.91992,7.16-5.61,12.35-8.41992,18.59-14,31.18q-26.04,25.485-51.56,51.48c-.53,12.13995-.79,18.24-1.29,30.45l5.28,8.11c-.99,11.45-1.45,17.19-2.45,28.65l-28.61,21c.81,4.62,1.2,6.93,2,11.54-.36,5.26-.54,7.88995-.9,13.12994l-12.68,11.34v10.81c-10.82,12.22-21.74,24.36-32.6,36.55,0,0-16.46-.86-17.67-1s-12,4.86005-12,4.86005c-3.71-2.48-5.57-3.72-9.29-6.15-2.05-11.25-3.12-16.52-5.21-27.52L894.16,752.23c-1.95-11.44995-2.87-17.22-4.87-28.86-5.16-10.93-7.77-16.42-13-27.37,1.16-7.92,1.77-11.86,3-19.86,3.22-6.42,4.84-9.64,8.09-16.08-2.26-13.28-3.39-19.92-5.66-33.12-7.22-10.25-10.88995-15.33-18.22-25.33,1.23-10.47,1.86-15.67,3.11-26-3.75-4.13-5.63-6.18-9.4-10.24l-10.15,2.24c-3.79-4.92-5.7-7.36-9.52-12.19-6.29.44-9.44.67-15.75,1.15-5.41,2.72-8.12,4.08-13.52,6.82-5.83-.74-8.74-1.1-14.58-1.8l-18.7,5.69c-9.42-5.41-14.15-8.07-23.64-13.33-1.01-4.71-1.54-7.05-2.54-11.71-6.03-4.64-9.05-6.93-15.12-11.49l-7.78.73q1.5-23.08492,3.21-46.15c-1.65-2.31-2.47-3.46-4.12-5.75,7.79-13.58,11.64-20.47,19.31-34.12,6.31-4.66,9.48-6.98,15.82-11.59.97-6.25,1.41-9.36,2.41-15.59,6.37-4.24,9.57-6.35,16-10.5,1.27-3.5,1.91-5.25,3.2-8.73l-6-4.13-13.19-3.53c.95-16.13,1.39-24.15,2.3-40.05,14.08.03,21.15.11,35.23.29,1.34-3.23,2-4.83,3.34-8-3.5-4.89-5.26-7.33-8.81-12.24l-8.86-1.64c.15-4.39.23-6.6.38-11l-7.59-2.81c2.5-1.94,3.76-2.9,6.27-4.81.28-5.6.42-8.39.7-13.95,3.79-3.04,5.7-4.52,9.52-7.52l-7.33-5.16c-3.63,2.99-5.44,4.55-9.05,7.55-.42,3.29-.62,4.96-1,8.29-4.56,2.29-6.84,3.46-11.37,5.81994-5.13-1.48-7.7-2.22-12.84-3.68.88-3.68,1.32-5.52,2.21-9.18-.19-2.91-.28-4.37-.47-7.28,6.85-4.71,10.26-7.02,17.26-11.54-.86-5.15-1.29-7.72-2.15-12.85,5.82-1.81,8.74-2.69,14.6-4.43l9.95,8.32c.41,4.45.61,6.68,1,11.15l14.19,11.38c-.63,2.59-.98,3.95-1.63,6.59l7.12,2.12c-.43,3.83-.64,5.74-1.06,9.59l9.24-2.67c3.05-3.59,4.59-5.37,7.66-8.93l15.72-5.31c-.31-5.95-.46-8.92-.77-14.84l9.24-6.51,6.12,5.55c-.7,2.56-1.06,3.85-1.76,6.42,2.96.21,4.39.32,7.39.51,1.08-1.84,1.63-2.76,2.71-4.61-4.11-6.38-6.19-9.58-10.39-16-7.43,2.63-11.17,3.91-18.65,6.47l-9.61-6.23c-1.91-8.92-2.91-13.37-4.91-22.27,12.23-9.01,18.4-13.43,30.63-22.55,5.77-7.98,8.67-11.97,14.42-20.06-.77-4.55-1.17-6.81-2-11.41C884,177,898,169.22,912.33,162.07c10.98,1.23,16.52,1.92,27.65,3.42,1.31,2.33,1.99,3.5,3.31,5.83,9.01,1.89,13.58,2.89,22.58,4.89,0,0,25.83,11.86,28.69,13.12s5.8,12.53,5.8,12.53l6.85-2.35c-.27-6.87-.42-10.31-.73-17.19h9.75c3.27,5.4,4.89,8.09,8.1001,13.49,8.78992-4.86,13.19995-7.27,22.05993-12.07,14.48-1.02,21.72-1.49,36.11-2.42-4.05005-2.82-6.09009-4.23-10.17993-7.06v-6.83q22.485,6.21,44.90991,12.57c-4.80005-6.19-7.23-9.3-12.1499-15.55,2.24-9.12,3.35986-13.72,5.55993-23l11.09.38c7.92993,15.27,11.75,22.8,19.17,37.64,2.7,9.29,4.0199,13.88,6.59,23,1.29-8.92,1.91992-13.38995,3.15-22.38995-6.08-10.12-9.19006-15.24-15.54992-25.58,5.66992-4.36,8.5-6.54,14.11987-10.93,7.64,3.26,11.41,4.88,18.8501,8.08l4.79993-2.42c-5.64-6.63995-8.5-10-14.33-16.77,9.17993-2.72,13.73-4.09,22.66992-6.84L1170.29,118.18c11.48-9.77,17.11-14.7,28-24.7,4.17993,1.38,6.17993,1.94,10.24,3.22,3.12988-3.34,4.67993-5,7.76-8.34-.21-8.37-.34009-12.61-.66-21.18l9.34-.18c2.55,3.39,3.82007,5.05,6.33008,8.39L1241,80.62l10.82007-4.47,19.77,17.27C1266.25,104.98,1263.52,110.71,1257.98,122.09c3.49,1.19,5.22,1.79,8.67993,3,2.7301-3.78,4.05-5.68006,6.7301-9.47,11.81995-.95,17.67-1.4,29.45008-2.19,4.92993,3.02,7.38989,4.53,12.32983,7.53,3.18006-1.9,4.79-2.84,8-4.72.22009-2.97.32007-4.44.53-7.44,8.93005,2.15,13.42,3.24,22.52,5.46l4,13.18c7.8,4.24,11.69995,6.36,19.69995,10.62-.34985-3.64-.52991-5.46-.90991-9.12,12.23-1.07,18.3999-1.54,31.23-2.31-2.71-3.72-4.06006-5.59-6.77-9.34,1.39-3.39,2.04-5.09,3.39-8.5,15.15.76,22.95007,1.24,39.31994,2.42,0,0,3.65015,7.48,4,8.91.3501,1.43,29.61011,9.19,29.61011,9.19,12.61-.7,20.02-1,35.86987-1.44,13.57007,6.38,20.75,9.58,34.75,16q28.89-2.1,57.89014-3.51c13.68994,6.14,20.06995,9.23,31,15.46L1633.61,153a167.30575,167.30575,0,0,0-13.44007-14.48c18.03,2.26,26.09009,3.53,39.24,6.13,22.62012,9.67,45.41016,18.94,68.25,28.06995L1739,169.77l19.53,8.21c-.17,3.18-.25,4.77-.41,7.93l-6.12,3ZM869.26,288.34c3.3.76,4.95,1.06994,8.22,1.76,6.16-3.03,9.23-4.59,15.31-7.7,7.29-.17,10.95-.24,18.29-.24,1-6.48,1.51-9.71,2.51-16.16,2.44-3.87,3.67-5.8,6.15-9.65,9.88-.78,14.88-1.11,24.88-1.68-.71-3.07-1.02-4.6-1.71-7.66-11.17,1.76-16.72,2.76-27.72,4.76-4.11-7.61005-6.18-11.42-10.33-19,5.28-6.7,7.91-10.05,13.28-16.7l-3.7-8.33c-10.59,12.49-15.71,18.88-26,31.54,3.92,5.27,5.84,7.87,9.72,13.16-3.42,3.14-5.06994,4.72-8.42,7.91,0,0,.64,12.57.64,13.29C890.38,274.35,869.28,288.34,869.26,288.34Zm129.7,113.35-6.83-4.68c-4.25,1.23-6.37,1.85-10.6,3.1-11.25-2.42-16.94-3.61-28.25-5.86-3.77-3.99-5.66-5.98-9.45-9.91.09-5.73.13-8.58.23-14.26-5.83,1.1-8.74,1.66-14.54,2.82.68,2.56,1,3.85,1.68,6.43,2.81.84,4.21,1.27,7,2.13-4.79,3.88-7.17,5.83-11.91,9.77-5.54-3.96-8.32-5.91-13.89-9.77l2.65-4.82c-5.2-8.04-7.81-12.01-13.06-19.86-6.84-1.22-10.23-1.77-17.12-2.87006-3.71-4.23-5.58-6.35-9.35-10.57995-.33,3.52-.5,5.28-.84,8.82,10.58,7.61,15.71,11.29,26,19.09-2.28,5.95-3.42,8.95-5.68,14.95-6.44,1.65-9.65,2.55-16.12,4.28-1.07-3.62-1.6-5.42-2.67-9l8.32-3.46c-1.6-4.47-2.39-6.69-4-11.13l-14.64-4.71c-2.89-4.88-4.35-7.32-7.28-12.21-6.97,3.4-10.42,5.1-17.42,8.54l-10.88-1.51c-6.66,7.06-10.04,10.63-16.66,17.86-.06,4.89-.06,7.34-.06,12.25-10.47,3.54-15.7,5.35-26.12006,9.06l1.1,5c6.94-.67,10.42-.99,17.36-1.62,0,0,18.05-8.83,19.84-8.83s39.91-2,39.91-2c2.16,4.77,3.23,7.17,5.36,12-2.61,2.76-3.91,4.15-6.52,6.93,10.18,2.57,15.27,3.9,25.27,6.57,9.18,4.58,13.76,6.96,22.89,11.83,1.74-5.21,2.62-7.82,4.37-13,4.85-.33,7.28-.49,12.13-.77,14.52,4.38,21.77,6.7,36.21,11.48,4-1,6-1.48,10-2.48,5,1.26,7.48,1.9,12.48,3.18C992.27,415.24,994.5,410.68,998.96,401.69Zm90.9599-9.13q-12.29993-19.605-25-38.95c2.56006-3.92,3.93006-5.88,6.56006-9.77l-17.38989,4.55c3.0199,8.16,4.50989,12.26,7.50989,20.51,3.29,3.37,4.9801,5.05,8.29,8.43-1.56994,4.67-2.35,7.02-3.89,11.74l15.1,10.49C1084.63,396.75,1086.4,395.35,1089.91992,392.56ZM840.89,90.35c-.35-8.52-.52-12.8-.89-21.43,8.1-.29,12.1-.46,20.1-.88,4.65-3.92,7.01-5.93,11.65-10,12.51,1.11,18.6,1.46,31.25,2.64-2.98,4.84-4.46,7.25-7.41,12.06-6.4,2.22-9.53,3.41-15.88,5.62,0,0,7.11,4.11,9,4.84s8.76,18.17,8.76,18.17c-5.47-.45-8.17-.6-13.6-1l-3-10.23c-2.25.18-3.37.26-5.63.41-2.71,8.66-4.01,12.95-6.71,21.45C857.59,103.44,852,99.06,840.89,90.35ZM980.66,60c-6.26-3.43-9.4-5.14-15.66-8.53L971.33,46l7.86,3.55c1.9-2.22,2.9-3.33,4.9-5.55L990,49.35ZM1001.54,30.59l6.86.76c3.35,6.21,5.04,9.3,8.35,15.45,6.58-7.06,9.88-10.61,16.47-17.8l5.78,3.5c-2.78,6.48-4.18,9.69-7,16.06L1018.27,56l-21-1.26C995.7,54.65,1001.54,30.59,1001.54,30.59Zm37.08008,105.36c5.65991-10.04,8.50988-15.09,14.18994-25.31,11.61-5.84,17.42-8.76,29-14.63,3.71,3.06,5.54993,4.58,9.22,7.64-12.49,8.85-18.77,13.24-31.28,22,0,0-8.94006,27.67-9,28.75s13.76,11.68,13.76,11.68c-1.16,2.77-1.75,4.15-2.91,6.92-11.34-5.18-17.07-7.76-28.6-12.88C1035.25,150.51,1036.37,145.68,1038.62012,135.95ZM1199.93994,69C1198,59.93,1197,55.34,1195,46c7.06006,2.72,10.47,4,17.24,6.59,1.11,2.75,1.67,4.12,2.76,6.85C1209.05005,63.26,1206,65.18,1199.93994,69Zm-47.85-21.71c-1.62-3.9-2.43995-5.85-4.09-9.79.6-8.1.89-12.2,1.4-20.5l6.30005,1.1c5.11,6.24,7.62,9.35,12.62,15.51,5.48.8,8.19995,1.2,13.56994,2C1186,42.34,1188,45.68,1192,52.28c-1.71008,1.89-2.57007,2.84-4.29,4.72C1173.86,53.12,1166.71,51.17,1152.09,47.29Zm200.17016,33.42-4.26-13.09c5.58.62,8.39.95,14.08,1.62.25-1.71.38-2.56.64-4.27l18.58,4C1382,72.13,1382.32,73.7,1383,76.83c-7.35,3.6-10.96,5.44-18.1,9.17C1359.80005,83.89,1357.28,82.84,1352.26013,80.71ZM1392.23,76.58c-.89-2.47-1.34-3.71-2.23-6.2,3.82007-.17,5.75-.24,9.64-.38,4.11,2.07,6.17994,3.11,10.36,5.19L1407,80ZM1384,99.84l3.11-3.84c4.31005,2.1,6.49,3.16,10.88,5.27-.79,1.9-1.19995,2.84-2,4.73-3.98-.57-5.94995-.85-9.85-1.39C1385.28,102.71,1384.86,101.75,1384,99.84ZM1072.05994,691.39008c-2,6.72-3,10.08-5,16.8l2,4.5-6.42005,2.52c-4.64,13.43-6.93994,20.14-11.5,33.49-5.2301.55-7.8501.81-13.05,1.3-2.43994-7.39-3.65991-11.09-6.09-18.52,3.26-5.56,4.89-8.35,8.17-13.93-1.1-6.13-1.64-9.19-2.73-15.33,6.29-3.11,9.44006-4.68,15.77-7.84,5.38-6.94,8.08-10.38,13.51-17.38ZM1235,555c2,3.31,3,4.98,5,8.31-.64,3.07-.99,4.61-1.64,7.69l-7.11-.24c-.51-4.15-.76-6.21-1.25-10.33C1232,558.25,1233,557.16,1235,555ZM737,208.12c-9.38,4.14-14.02,6.29-23.15,10.84-6.9-1.36-10.34-2-17.14-3.16-3.11005-6.49-4.65-9.72-7.71-16.09,2.59-1.52,3.94-2.27,6.59-3.75,2.97,1.49,4.46,2.25,7.46,3.79,9.86-1.75,14.8-2.45,24.86-3.75C731.54,200.86,733.36,203.29,737,208.12ZM1608.62,731.7699c.59,6.32.87,9.46,1.38,15.68-4,8.62-6.08,12.89-9.73,21.69-8.07007,7.34-12.01,11.07-19.79,18.56-3.87,9.32-5.72009,14-9.43005,23.32-3.8.51-5.69007.76-9.43006,1.28-5.53,3.79-8.27,5.69-13.65,9.52-3.02-2.59-4.46-3.89-7.46-6.49-3.46009,2.71-5.17,4.01-8.54,6.71-6.48-2.15-9.69995-3.2-16-5.43.31006-3.76.46-5.64.75-9.42-2.05994-3.85-3.12-5.80005-5.12-9.71,0,0-6.99,1.14-7.81994,1s2.55005-9.84,2.55005-9.84c-4.07,2.79-6.06006,4.19-10,7-1.21-4.74-1.80005-7.15-3-12-4.93995-2.99-7.31006-4.52-12-7.63-10.30994,2.26-15.17994,3.36-25.24,5.66-3.88,3.71-5.88,5.57-9.88,9.34-7.42,1.65-11.18994,2.5-19.11,4.28-5.82007,3.95-8.88,6-15.17,10l-11.15-7.49c2.52-3.42,3.76-5.13,6.21-8.55-2.99-17.62-6.42993-34.99-10.08-52.48,2.64-6.15,3.94007-9.23,6.51-15.36,14.64-5.87,21.58-8.73,34.76-14,2-6.42,3-9.63,5-16,2.83-1.43,4.21-2.14,7-3.55.57007-2.6.8501-3.91,1.43006-6.51,3.48-2.92,5.23-4.37,8.78-7.25,6.34,1.1,9.51,1.64,16,2.71,1.78992-4.71,2.71-7.05005,4.59-11.71,4.56006-2.21,6.81006-3.31,11.56006-5.5,9.19995,1.45,13.52,2.15,24.09,3.45-3.14,6.15-4.46,9.24-7.26,15.44,8.13,5.33,12.61,7.91,21.61,13.15,3.83008-.35,5.77-.52,9.67-.84,2.98-13.18,4.53992-19.77,7.84-32.77h6.29c1.66992,5.79,2.51,8.68,4.2,14.43,3.39,1.27,5.1,1.9,8.51,3.16,2.46,9.24,3.70007,13.85,6.14,23,5.8,3.29,8.71,4.92,14.49,8.12,1.16,3.44,1.74,5.15,2.88,8.56l7-.75C1602.32,721.53,1604.46,725,1608.62,731.7699ZM1550.88013,836.16c.44995,1.91.67,2.86,1.12,4.75-2.22009,3.81-3.33008,5.7-5.56006,9.49-3.38,1.83-5.06994,2.75-8.38,4.6-2.45007-3.12006-3.66-4.69-6.06006-7.84,1.17-4.44,1.74-6.68,2.88-11.16C1536.06006,836.06,1550.88,836.16,1550.88013,836.16ZM1709.59,824.03c.54,2.79.80993,4.18,1.36,6.93-2.7699,1.88-4.17993,2.81-7.06995,4.64-.36,2.76-.56005,4.14-1,6.86-3.16992,2-4.7799,3-8.08,5-4.07007,5.36-6.20007,7.99-10.66,13.12-3.75,3.42-5.75,5.11-9.75,8.42-7.31005-.57-11-.85-18.39-1.57,2.28-3.73,3.39-5.62,5.54-9.45,10.51-6.35,15.55994-9.56,25.08-16.35,5.62-6.89,8.31994-10.42,13.31994-17.63C1703.88,824.06,1705.82,824.07,1709.59,824.03Zm18.5-28.26c3.67-.56,5.46008-.87,8.91-1.56-6.95007,13.59-10.70007,20.21-19.39,32.79-3.09-5.24-4.61-7.87-7.61-13.24,3.48-4.77,5.19995-7.19,8.48-12.09,0,0-5.12-19.58-5.63-21.08,1.58-1.03,2.36-1.59,3.89-2.59C1721,785.12,1723.30005,788.71,1728.09,795.77008ZM1589.01,632.15c-.34,2.09-.51,3.13-.84,5.23,7.13,5.54,10.70008,8.28,17.80005,13.67-7.44995-.81-11.17993-1.2-18.6-2-3.84-3.2-5.76-4.82-9.59-8.06l-11.66-1.61c-3.63,2.66-5.43006,3.97-9,6.66-13.45008-2.69-20.08008-4.04-32.78-6.55,3.41992-3.84,5.1499-5.73,8.68994-9.49-16.66-4.08-24.31006-5.9-38.66-10-.16-3.11005-.24-4.67-.38-7.77-2.41-2-3.61-3-6-5,2.76-2.49,4.15-3.72,7-6.19,3.76,1.45,5.67,2.16,9.53,3.59.29,3.81.44006,5.72.76,9.54,2.35,1.58,3.56006,2.39,6,4,5.37-3.9,8.27-5.85,14.15-9.62q25.47987,8.00994,51,15.84C1581.46,627.49,1584,629,1589.01,632.15Zm32.68-10.15008c2.51,2.12,3.77,3.17,6.27,5.26l-8.30005,1.33c-.46,1.28-.68,1.92-1.14,3.21L1603,634l-9-3.88c6.62-1,9.96-1.46,16.62-2.46C1615.05005,625.38,1617.28,624.25,1621.69006,621.99994ZM1420,574.42c-2.68,3.14-4.03,4.72-6.68,7.91,2.55993,5.37994,3.86,8.06994,6.46,13.47-5.24,10.69-7.68994,16.13-12.68994,27.2-10.98-3.31-16.46-4.77-27.27-8-2.82-8.27-4.17994-12.4-6.82-20.63l10-1.37c10.36-10.73,15.63-16,26.63-26Zm32.47,25.63c-9.58,1.19-14.23,1.79-23.58,3.07.18995,1.75994.28,2.65.47,4.41,5.23-.12006,7.84-.18005,13.09-.28-2.12,1.89-3.17,2.84-5.26,4.75l8.36011,10.89s-6.88,6.23-7.56006,7.44-2.68-6.25-2.68-6.25c-2.28,3.15-3.4,4.73-5.64,7.92h-3.83c-1.56006-4.22-2.34-6.33-3.89-10.54,1.91-9.51,2.88-14.23,5-23.57,0,0,26.30005-5.7,26.93005-5.89C1454.51,591.82,1452.47,600.05,1452.47,600.05005ZM1415,646.24c7.06006-1.35,10.52-1.99,17.42-3.24,5.25.15,7.85.24,13.08.41,0,0,1.97,2.62,1.4,2.82s-12.87,3.62-12.87,3.62,1.83,4.94,1.07,5.15C1434.35,655.21,1415,646.24,1415,646.24Zm50.79-3.24c.49,1.36.73,2.01,1.21,3.36-6.72,3.81-9.97,5.73-16.39,9.64a23.52823,23.52823,0,0,0-2.61-3.56c1.71008-2.53,2.57007-3.8,4.31006-6.31C1457.64,644.86,1460.32,644.24,1465.79,643Zm2.17993-25.57,16-.43c-.21,1.62-.31006,2.42-.51,4L1472,622Zm-3.91992-22.6c3.56995-.74,5.36-1.1,9-1.83-1.86011,3.77-2.77,5.66-4.55005,9.45l-4,.55C1464.29,599.73,1464.18994,598.09,1464.05005,594.83Zm-43.0802-74.87c2.06006-5.62,3.14-8.4,5.39-13.91l8.30005,1.36c.36011,2.6.54,3.91.93006,6.53-1.21,2.91-1.81006,4.38-3,7.32,5.39,5.16,8.12,7.77,13.65,13,3.48,1.52,5.24,2.28,8.76,3.79-.78992,2.42-1.17993,3.61-1.93994,6l-8.75-3.6c-1.27-2.48-1.89-3.72-3.13-6.19l-6.72-4.64c-1.77,3.94-2.63,6-4.30005,10C1426.38,531.69,1424.53,527.75,1420.96985,519.96ZM1436,550.41c.12-2.97.18994-4.41.35-7.41,4.65,2.7,6.96008,4.06,11.65,6.76,0,0-5.19995,5.12-6.19995,6.12C1440.74,556.94,1436,550.41,1436,550.41Zm20.70984,3.54c1.71008,3.13,2.56006,4.7,4.29,7.84-1.76,4.44-2.61,6.67-4.25,11.16l-6.62-.77c-1.09-2.84-1.64-4.26-2.71-7.1l-6,1c-2.19995,1.26-3.28992,1.95-5.46,3.26.80005-3.18,1.18994-4.77,2-7.93,3.68005-.78,5.53-1.18,9.27-1.95C1451,557.26,1452.87,556.17,1456.70984,553.95ZM1429.43005,487c-2.18-3.21-3.27-4.81-5.43-8,2.44006-3.61,3.67-5.42,6.16-9l4.84,1.13C1432.73,477.42,1431.62,480.6,1429.43005,487Zm135.24012-119.44c.51989,2.19.78991,3.29,1.32995,5.49-4.06994-.3-6.30993-.49-10.06994-.69-2.32007,1.87-3.48011,2.82-5.80005,4.71-3.7201-1.18-5.61011-1.76-9.43006-2.92-2.77,1.53-4.16,2.3-6.93005,3.85l-6.77-2.07v-6.62c4.14-.3,6.19006-.43,10.28-.7.89-4.66,1.34-6.98,2.26-11.61,5.53992,3.25,8.24,4.89,13.46,8.17C1557.57,366.06,1559.83,366.54,1564.67017,367.56Zm-37.56006,36.34c2.57995-8.03,3.87-12.01,6.57995-19.9,3.18006.56,4.76.85,7.88,1.43,1.36,4.93,2.02,7.39,3.36,12.33-2.24,3.09-3.35,4.64-5.56994,7.77-.25,5.27-.36011,7.94-.55005,13.27-10.92993,3.4-16.5,5.2-27.43994,8.92-5.18006-.75-7.79-1.12-13-1.85-3.69007,2.66-5.52,3.97-9.13,6.66-1.15,2.97-1.72,4.47-2.84,7.47l-6-.93c-.56006-4.59-.84-6.88-1.4-11.44,5.73-5.42,8.73-8.08,14.73-13.34,5.75-.83,8.6499-1.23,14.46-2,1.86-3.18,2.79993-4.77,4.7-7.92C1518.62,404.15,1521.49,404.06,1527.11011,403.9Z"/>
</svg>
